<?xml version="1.0" encoding="utf-8"?><svg xmlns="http://www.w3.org/2000/svg" xmlns:xlink="http://www.w3.org/1999/xlink"><symbol viewBox="0 0 32 60" id="branch_left" xmlns="http://www.w3.org/2000/svg"><path d="M19.215 23.707c5.53 0 10.722-3.444 12.67-8.947a1.356 1.356 0 0 0-.826-1.73 13.337 13.337 0 0 0-10.212.515 30.56 30.56 0 0 1 2.692-3.08 1.356 1.356 0 1 0-1.918-1.919 33.39 33.39 0 0 0-1.98 2.167c-.15-4.028-2.095-7.949-5.626-10.461a1.356 1.356 0 0 0-1.891.318 13.34 13.34 0 0 0-2.3 10.016 13.328 13.328 0 0 0 4.819 8.226 32.978 32.978 0 0 0-1.171 3.148 13.655 13.655 0 0 0-.932-1.735 13.34 13.34 0 0 0-8.406-5.912 1.356 1.356 0 0 0-1.62 1.027C.953 22.313 5.15 29.256 11.94 31.186a33.386 33.386 0 0 0 .178 4.308c-.314-.28-.642-.547-.986-.8a13.34 13.34 0 0 0-9.98-2.454 1.356 1.356 0 0 0-1.135 1.545 13.338 13.338 0 0 0 5.32 8.792 13.327 13.327 0 0 0 9.293 2.54 32.867 32.867 0 0 0 1.92 3.773c-4.197-1.345-8.97-.61-12.626 2.384a1.357 1.357 0 0 0-.19 1.908 13.34 13.34 0 0 0 9.058 4.854 13.303 13.303 0 0 0 9.067-2.389 33.386 33.386 0 0 0 4.962 4.016 1.355 1.355 0 0 0 1.495-2.264 30.668 30.668 0 0 1-4.775-3.9 30.246 30.246 0 0 1-7.101-11.185c6.44-2.482 10.023-9.55 8.052-16.29a1.357 1.357 0 0 0-1.683-.922 13.34 13.34 0 0 0-8.009 6.44c-.055.1-.104.201-.156.302a30.581 30.581 0 0 1 1.257-8.557c1.103.283 2.216.42 3.315.42zm-7.336 4.609c-4.492-1.668-7.346-6.17-6.94-10.944a10.633 10.633 0 0 1 5.31 4.305 10.634 10.634 0 0 1 1.63 6.639zM6.943 40.392a10.634 10.634 0 0 1-3.93-5.593l.172-.002c4.721 0 8.93 3.137 10.27 7.677a10.65 10.65 0 0 1-6.512-2.082zm6.117 14.945a10.635 10.635 0 0 1-6.231-2.81 10.739 10.739 0 0 1 12.895 1.284 10.639 10.639 0 0 1-6.664 1.526zm4.118-22.493a10.636 10.636 0 0 1 5.023-4.637c.711 4.738-1.848 9.413-6.224 11.367a10.643 10.643 0 0 1 1.201-6.73zm4.786-16.828a10.635 10.635 0 0 1 6.786-.824 10.738 10.738 0 0 1-11.696 5.58 10.637 10.637 0 0 1 4.91-4.756zm-9.466-5.88a10.633 10.633 0 0 1 1.072-6.752c3.493 3.28 4.378 8.536 2.152 12.779a10.633 10.633 0 0 1-3.224-6.027z"/></symbol><symbol viewBox="0 0 33 60" id="branch_right" xmlns="http://www.w3.org/2000/svg"><path d="M19.665 45.188c2.839 0 5.595-.898 7.925-2.61a13.338 13.338 0 0 0 5.32-8.793 1.356 1.356 0 0 0-1.136-1.545c-4.111-.628-8.08.69-10.966 3.263.152-1.435.213-2.877.179-4.317a13.328 13.328 0 0 0 7.662-5.722 13.34 13.34 0 0 0 1.763-10.124 1.356 1.356 0 0 0-1.62-1.028 13.339 13.339 0 0 0-8.405 5.913 13.64 13.64 0 0 0-.932 1.735 32.976 32.976 0 0 0-1.172-3.149c5.49-4.415 6.657-12.427 2.52-18.241A1.355 1.355 0 0 0 18.91.251a13.34 13.34 0 0 0-5.455 8.71 13.666 13.666 0 0 0-.177 1.744 33.314 33.314 0 0 0-1.974-2.159 1.356 1.356 0 1 0-1.918 1.918 30.83 30.83 0 0 1 2.692 3.08 13.336 13.336 0 0 0-10.212-.515 1.356 1.356 0 0 0-.826 1.731c1.948 5.503 7.14 8.947 12.67 8.947 1.099 0 2.212-.137 3.315-.42a30.607 30.607 0 0 1 1.258 8.57 13.386 13.386 0 0 0-8.166-6.755 1.356 1.356 0 0 0-1.682.921 13.339 13.339 0 0 0 1.11 10.217 13.325 13.325 0 0 0 6.94 6.075 30.251 30.251 0 0 1-7.1 11.184 30.66 30.66 0 0 1-4.774 3.9 1.356 1.356 0 0 0 1.495 2.264 33.373 33.373 0 0 0 4.962-4.016 13.365 13.365 0 0 0 7.723 2.45c3.89 0 7.75-1.677 10.401-4.915a1.356 1.356 0 0 0-.19-1.908 13.342 13.342 0 0 0-9.837-2.973 13.55 13.55 0 0 0-2.78.577 32.843 32.843 0 0 0 1.912-3.76c.457.045.913.07 1.367.07zm8.323-27.815a10.64 10.64 0 0 1-1.63 6.639 10.635 10.635 0 0 1-5.31 4.305c-.406-4.774 2.448-9.276 6.94-10.944zm1.924 17.426c-1.356 4.595-5.651 7.747-10.44 7.674 1.357-4.595 5.649-7.753 10.44-7.674zM4.176 15.192a10.633 10.633 0 0 1 6.786.823 10.634 10.634 0 0 1 4.91 4.757c-4.693.974-9.502-1.32-11.696-5.58zm13.027.97a10.631 10.631 0 0 1-1.072-6.75 10.635 10.635 0 0 1 3.225-6.028c2.225 4.243 1.34 9.5-2.153 12.779zM19.434 51c2.36-.235 4.678.303 6.663 1.526-3.508 3.263-8.812 3.791-12.895 1.284A10.634 10.634 0 0 1 19.434 51zm-2.486-11.426a10.635 10.635 0 0 1-5.023-4.637 10.635 10.635 0 0 1-1.2-6.73c4.375 1.954 6.934 6.629 6.223 11.367z"/></symbol><symbol viewBox="0 0 10 14" id="ruble" xmlns="http://www.w3.org/2000/svg"><path d="M1.836-.15h-.15v8.986H.764v1.255h.922v4.059h1.255v-4.06h3.244V8.837H2.94v-.972h2.457c2.123 0 3.839-1.804 3.839-4.008C9.237 1.653 7.52-.15 5.398-.15H1.836zm1.105 1.255h2.458c1.416 0 2.583 1.226 2.583 2.751 0 1.527-1.167 2.753-2.583 2.753H2.94V1.105z"/></symbol></svg>