<svg width="1920" height="340" viewBox="0 0 1920 340" fill="none" xmlns="http://www.w3.org/2000/svg">
<path d="M41.6607 305.68L-16 309.97V340H1922V3L1698.85 40.1796L1638.94 32.553L1608.98 56.3861L1567.05 15.3932L1427.77 167.925L1391.82 156.485L1307.95 90.7058L1245.05 105.006L1207.61 187.945L1177.65 193.188L1140.21 258.014H1108.76L1065.33 323.317L1024.89 334.757L973.968 323.317L918.553 272.791L899.083 291.38L839.176 258.014L792.748 286.614L755.306 291.38L711.873 258.014L690.906 278.034L675.929 258.014L616.771 278.034L597.301 267.547L562.105 278.034L525.412 316.167L505.942 299.484H455.77L433.304 286.614H403.351L394.365 258.014L351.681 291.38L317.234 278.034L303.006 258.014L267.062 272.791L250.587 258.014L228.122 305.68L177.95 316.167L153.238 305.68L140.508 291.38L74.6097 278.034L41.6607 305.68Z" fill="white" fill-opacity="0.03" stroke="white" stroke-opacity="0.06" stroke-width="4"/>
</svg>
