<svg width="1920" height="302" viewBox="0 0 1920 302" fill="none" xmlns="http://www.w3.org/2000/svg">
<path d="M76.4927 280.52L2 289.542V302H1920V3L1853.03 21.4727L1812.4 15.8879L1712.32 91.9267L1614.5 37.3678L1555.06 85.0532L1512.17 66.5805L1458.75 138.323L1386.51 143.478L1324.06 198.467L1254.83 215.221L1217.21 259.47L1173.57 269.351L1147.23 296.415H1090.8L1040.38 283.098L973.415 259.47L913.219 283.098L837.222 234.553L800.352 253.455L731.126 259.47L679.207 246.582L632.555 234.553L564.834 266.773L497.113 259.47L451.966 234.553L383.493 272.787L343.613 246.582L302.228 272.787L244.29 283.098L199.895 266.773L154.748 272.787L116.373 259.47L76.4927 280.52Z" fill="white" fill-opacity="0.07" stroke="white" stroke-opacity="0.12" stroke-width="4"/>
</svg>
