<svg width="1401" height="414" viewBox="0 0 1401 414" fill="none" xmlns="http://www.w3.org/2000/svg">
<rect x="80" y="5" width="1321" height="355" fill="white"/>
<path d="M81.2204 405.848C81.3484 407.96 82.9164 409.192 84.9644 409.192C87.4284 409.192 88.8524 407.512 88.8524 405.432C88.8524 403.784 87.7804 402.216 85.9244 402.136L88.7564 398.104V397.816H81.6684V399.32H86.1804L83.6524 403.08V403.4C85.1884 403.016 87.0924 403.576 87.0924 405.448C87.0924 406.776 86.2284 407.576 84.9324 407.576C83.7804 407.576 82.9804 406.984 82.8684 405.848H81.2204ZM92.5031 399.272V407.56H90.4551V409H96.3751V407.56H94.2951V397.8H90.7111V399.272H92.5031ZM98.9081 409.192C99.5001 409.192 99.9801 408.792 99.9801 408.2C99.9801 407.576 99.5001 407.192 98.9081 407.192C98.3161 407.192 97.8361 407.576 97.8361 408.2C97.8361 408.792 98.3161 409.192 98.9081 409.192ZM106.092 397.624C103.772 397.624 101.916 399.08 101.916 401.48V405.352C101.916 407.768 103.772 409.208 106.092 409.208C108.38 409.208 110.236 407.768 110.236 405.352V401.48C110.236 399.08 108.38 397.624 106.092 397.624ZM106.092 407.56C104.94 407.56 104.028 407 103.788 405.928C103.724 405.608 103.676 405.256 103.676 404.872V401.976C103.676 401.592 103.724 401.24 103.788 400.92C104.028 399.832 104.94 399.256 106.092 399.256C107.244 399.256 108.14 399.832 108.38 400.92C108.444 401.24 108.492 401.592 108.492 401.976V404.872C108.492 405.256 108.444 405.608 108.38 405.928C108.14 407 107.244 407.56 106.092 407.56ZM114.112 399.368H119.2V397.8H112.592V403.4C113.408 403.208 114.496 403.032 115.504 403.08C116.944 403.16 118.176 403.72 118.144 405.464C118.096 406.984 117.056 407.64 115.936 407.64C114.832 407.64 114.016 407.08 113.904 405.912H112.192C112.368 407.992 113.872 409.192 115.888 409.192C118.496 409.192 119.872 407.432 119.872 405.416C119.872 402.68 117.968 401.736 115.616 401.688C115.104 401.688 114.608 401.736 114.112 401.848V399.368ZM125.649 404.424H133.697V402.92H125.649V404.424ZM143.998 397.624C141.678 397.624 139.822 399.08 139.822 401.48V405.352C139.822 407.768 141.678 409.208 143.998 409.208C146.286 409.208 148.142 407.768 148.142 405.352V401.48C148.142 399.08 146.286 397.624 143.998 397.624ZM143.998 407.56C142.846 407.56 141.934 407 141.694 405.928C141.63 405.608 141.582 405.256 141.582 404.872V401.976C141.582 401.592 141.63 401.24 141.694 400.92C141.934 399.832 142.846 399.256 143.998 399.256C145.15 399.256 146.046 399.832 146.286 400.92C146.35 401.24 146.398 401.592 146.398 401.976V404.872C146.398 405.256 146.35 405.608 146.286 405.928C146.046 407 145.15 407.56 143.998 407.56ZM149.97 405.848C150.098 407.96 151.666 409.192 153.714 409.192C156.178 409.192 157.602 407.512 157.602 405.432C157.602 403.784 156.53 402.216 154.674 402.136L157.506 398.104V397.816H150.418V399.32H154.93L152.402 403.08V403.4C153.938 403.016 155.842 403.576 155.842 405.448C155.842 406.776 154.978 407.576 153.682 407.576C152.53 407.576 151.73 406.984 151.618 405.848H149.97ZM160.533 409.192C161.125 409.192 161.605 408.792 161.605 408.2C161.605 407.576 161.125 407.192 160.533 407.192C159.941 407.192 159.461 407.576 159.461 408.2C159.461 408.792 159.941 409.192 160.533 409.192ZM167.717 397.624C165.397 397.624 163.541 399.08 163.541 401.48V405.352C163.541 407.768 165.397 409.208 167.717 409.208C170.005 409.208 171.861 407.768 171.861 405.352V401.48C171.861 399.08 170.005 397.624 167.717 397.624ZM167.717 407.56C166.565 407.56 165.653 407 165.413 405.928C165.349 405.608 165.301 405.256 165.301 404.872V401.976C165.301 401.592 165.349 401.24 165.413 400.92C165.653 399.832 166.565 399.256 167.717 399.256C168.869 399.256 169.765 399.832 170.005 400.92C170.069 401.24 170.117 401.592 170.117 401.976V404.872C170.117 405.256 170.069 405.608 170.005 405.928C169.765 407 168.869 407.56 167.717 407.56ZM177.769 397.736L174.377 403.112C173.945 403.768 173.657 404.616 173.657 405.432C173.657 407.928 175.497 409.16 177.801 409.16C180.121 409.16 181.961 407.928 181.961 405.432C181.961 403.112 180.313 401.784 178.105 401.832C177.753 401.832 177.417 401.912 177.097 402.088L179.833 397.736H177.769ZM177.801 407.576C176.457 407.576 175.481 406.824 175.481 405.432C175.481 404.04 176.441 403.272 177.801 403.272C179.145 403.272 180.121 404.04 180.121 405.432C180.121 406.824 179.161 407.576 177.801 407.576Z" fill="#21293E"/>
<path d="M1304.5 399.096C1306.65 399.096 1306.58 401.4 1305.38 402.856L1300.98 408.6V409H1308.04V407.464H1303.72C1305.38 405.32 1306.1 404.312 1306.7 403.64C1308.79 400.888 1307.86 397.672 1304.57 397.672C1302.38 397.688 1301.24 398.808 1301.19 400.936H1302.7C1302.76 399.784 1303.42 399.096 1304.5 399.096ZM1316.52 406.648H1317.61V405.128H1316.52V397.8H1314.62L1309.32 405.816V406.648H1314.83V409H1316.52V406.648ZM1315.03 399.976L1314.94 402.712V405.192H1311.51L1315 399.976H1315.03ZM1320.47 409.192C1321.06 409.192 1321.54 408.792 1321.54 408.2C1321.54 407.576 1321.06 407.192 1320.47 407.192C1319.88 407.192 1319.4 407.576 1319.4 408.2C1319.4 408.792 1319.88 409.192 1320.47 409.192ZM1327.65 397.624C1325.33 397.624 1323.48 399.08 1323.48 401.48V405.352C1323.48 407.768 1325.33 409.208 1327.65 409.208C1329.94 409.208 1331.8 407.768 1331.8 405.352V401.48C1331.8 399.08 1329.94 397.624 1327.65 397.624ZM1327.65 407.56C1326.5 407.56 1325.59 407 1325.35 405.928C1325.29 405.608 1325.24 405.256 1325.24 404.872V401.976C1325.24 401.592 1325.29 401.24 1325.35 400.92C1325.59 399.832 1326.5 399.256 1327.65 399.256C1328.81 399.256 1329.7 399.832 1329.94 400.92C1330.01 401.24 1330.05 401.592 1330.05 401.976V404.872C1330.05 405.256 1330.01 405.608 1329.94 405.928C1329.7 407 1328.81 407.56 1327.65 407.56ZM1335.67 399.368H1340.76V397.8H1334.15V403.4C1334.97 403.208 1336.06 403.032 1337.07 403.08C1338.51 403.16 1339.74 403.72 1339.71 405.464C1339.66 406.984 1338.62 407.64 1337.5 407.64C1336.39 407.64 1335.58 407.08 1335.47 405.912H1333.75C1333.93 407.992 1335.43 409.192 1337.45 409.192C1340.06 409.192 1341.43 407.432 1341.43 405.416C1341.43 402.68 1339.53 401.736 1337.18 401.688C1336.67 401.688 1336.17 401.736 1335.67 401.848V399.368ZM1347.21 404.424H1355.26V402.92H1347.21V404.424ZM1361.03 405.848C1361.16 407.96 1362.73 409.192 1364.78 409.192C1367.24 409.192 1368.66 407.512 1368.66 405.432C1368.66 403.784 1367.59 402.216 1365.74 402.136L1368.57 398.104V397.816H1361.48V399.32H1365.99L1363.46 403.08V403.4C1365 403.016 1366.9 403.576 1366.9 405.448C1366.9 406.776 1366.04 407.576 1364.74 407.576C1363.59 407.576 1362.79 406.984 1362.68 405.848H1361.03ZM1372.32 399.272V407.56H1370.27V409H1376.19V407.56H1374.11V397.8H1370.52V399.272H1372.32ZM1378.72 409.192C1379.31 409.192 1379.79 408.792 1379.79 408.2C1379.79 407.576 1379.31 407.192 1378.72 407.192C1378.13 407.192 1377.65 407.576 1377.65 408.2C1377.65 408.792 1378.13 409.192 1378.72 409.192ZM1385.9 397.624C1383.58 397.624 1381.73 399.08 1381.73 401.48V405.352C1381.73 407.768 1383.58 409.208 1385.9 409.208C1388.19 409.208 1390.05 407.768 1390.05 405.352V401.48C1390.05 399.08 1388.19 397.624 1385.9 397.624ZM1385.9 407.56C1384.75 407.56 1383.84 407 1383.6 405.928C1383.54 405.608 1383.49 405.256 1383.49 404.872V401.976C1383.49 401.592 1383.54 401.24 1383.6 400.92C1383.84 399.832 1384.75 399.256 1385.9 399.256C1387.06 399.256 1387.95 399.832 1388.19 400.92C1388.26 401.24 1388.3 401.592 1388.3 401.976V404.872C1388.3 405.256 1388.26 405.608 1388.19 405.928C1387.95 407 1387.06 407.56 1385.9 407.56ZM1395.96 397.736L1392.56 403.112C1392.13 403.768 1391.84 404.616 1391.84 405.432C1391.84 407.928 1393.68 409.16 1395.99 409.16C1398.31 409.16 1400.15 407.928 1400.15 405.432C1400.15 403.112 1398.5 401.784 1396.29 401.832C1395.94 401.832 1395.6 401.912 1395.28 402.088L1398.02 397.736H1395.96ZM1395.99 407.576C1394.64 407.576 1393.67 406.824 1393.67 405.432C1393.67 404.04 1394.63 403.272 1395.99 403.272C1397.33 403.272 1398.31 404.04 1398.31 405.432C1398.31 406.824 1397.35 407.576 1395.99 407.576Z" fill="#21293E"/>
<path d="M6.13969 264.856V273.944H3.93169V275H9.62769V273.944H7.40369V263.8H4.18769V264.856H6.13969ZM19.5066 263.64C17.1866 263.64 15.3626 265.096 15.3626 267.496V271.336C15.3626 273.752 17.1866 275.192 19.5066 275.192C21.7946 275.192 23.6186 273.752 23.6186 271.336V267.496C23.6186 265.096 21.7946 263.64 19.5066 263.64ZM19.5066 274.024C18.1786 274.024 17.1386 273.368 16.8026 272.216C16.6906 271.88 16.6266 271.48 16.6266 271.016V267.816C16.6266 267.352 16.6906 266.952 16.8026 266.616C17.1386 265.464 18.1786 264.792 19.5066 264.792C20.7866 264.792 21.8586 265.464 22.1946 266.616C22.3066 266.952 22.3706 267.352 22.3706 267.816V271.016C22.3706 271.48 22.3066 271.88 22.1946 272.216C21.8586 273.368 20.7866 274.024 19.5066 274.024ZM30.0378 263.64C27.7178 263.64 25.8938 265.096 25.8938 267.496V271.336C25.8938 273.752 27.7178 275.192 30.0378 275.192C32.3258 275.192 34.1498 273.752 34.1498 271.336V267.496C34.1498 265.096 32.3258 263.64 30.0378 263.64ZM30.0378 274.024C28.7098 274.024 27.6698 273.368 27.3338 272.216C27.2218 271.88 27.1578 271.48 27.1578 271.016V267.816C27.1578 267.352 27.2218 266.952 27.3338 266.616C27.6698 265.464 28.7098 264.792 30.0378 264.792C31.3178 264.792 32.3898 265.464 32.7258 266.616C32.8378 266.952 32.9018 267.352 32.9018 267.816V271.016C32.9018 271.48 32.8378 271.88 32.7258 272.216C32.3898 273.368 31.3178 274.024 30.0378 274.024ZM40.5691 263.64C38.2491 263.64 36.4251 265.096 36.4251 267.496V271.336C36.4251 273.752 38.2491 275.192 40.5691 275.192C42.8571 275.192 44.6811 273.752 44.6811 271.336V267.496C44.6811 265.096 42.8571 263.64 40.5691 263.64ZM40.5691 274.024C39.2411 274.024 38.2011 273.368 37.8651 272.216C37.7531 271.88 37.6891 271.48 37.6891 271.016V267.816C37.6891 267.352 37.7531 266.952 37.8651 266.616C38.2011 265.464 39.2411 264.792 40.5691 264.792C41.8491 264.792 42.9211 265.464 43.2571 266.616C43.3691 266.952 43.4331 267.352 43.4331 267.816V271.016C43.4331 271.48 43.3691 271.88 43.2571 272.216C42.9211 273.368 41.8491 274.024 40.5691 274.024Z" fill="#21293E"/>
<path d="M5.55288 178.792C8.09688 178.792 8.01688 181.272 6.65688 182.936L2.03288 188.712V189H9.08888V187.816H4.20888L7.85688 183.32C8.67288 182.296 8.92888 181.176 8.81688 180.216C8.68888 178.792 7.56888 177.64 5.58488 177.64C3.42488 177.64 2.35287 178.728 2.24088 180.728H3.36088C3.47288 179.384 4.20888 178.792 5.55288 178.792ZM19.3894 177.64C17.0694 177.64 15.2454 179.096 15.2454 181.496V185.336C15.2454 187.752 17.0694 189.192 19.3894 189.192C21.6774 189.192 23.5014 187.752 23.5014 185.336V181.496C23.5014 179.096 21.6774 177.64 19.3894 177.64ZM19.3894 188.024C18.0614 188.024 17.0214 187.368 16.6854 186.216C16.5734 185.88 16.5094 185.48 16.5094 185.016V181.816C16.5094 181.352 16.5734 180.952 16.6854 180.616C17.0214 179.464 18.0614 178.792 19.3894 178.792C20.6694 178.792 21.7414 179.464 22.0774 180.616C22.1894 180.952 22.2534 181.352 22.2534 181.816V185.016C22.2534 185.48 22.1894 185.88 22.0774 186.216C21.7414 187.368 20.6694 188.024 19.3894 188.024ZM29.9206 177.64C27.6006 177.64 25.7766 179.096 25.7766 181.496V185.336C25.7766 187.752 27.6006 189.192 29.9206 189.192C32.2086 189.192 34.0326 187.752 34.0326 185.336V181.496C34.0326 179.096 32.2086 177.64 29.9206 177.64ZM29.9206 188.024C28.5926 188.024 27.5526 187.368 27.2166 186.216C27.1046 185.88 27.0406 185.48 27.0406 185.016V181.816C27.0406 181.352 27.1046 180.952 27.2166 180.616C27.5526 179.464 28.5926 178.792 29.9206 178.792C31.2006 178.792 32.2726 179.464 32.6086 180.616C32.7206 180.952 32.7846 181.352 32.7846 181.816V185.016C32.7846 185.48 32.7206 185.88 32.6086 186.216C32.2726 187.368 31.2006 188.024 29.9206 188.024ZM40.4519 177.64C38.1319 177.64 36.3079 179.096 36.3079 181.496V185.336C36.3079 187.752 38.1319 189.192 40.4519 189.192C42.7399 189.192 44.5639 187.752 44.5639 185.336V181.496C44.5639 179.096 42.7399 177.64 40.4519 177.64ZM40.4519 188.024C39.1239 188.024 38.0839 187.368 37.7479 186.216C37.6359 185.88 37.5719 185.48 37.5719 185.016V181.816C37.5719 181.352 37.6359 180.952 37.7479 180.616C38.0839 179.464 39.1239 178.792 40.4519 178.792C41.7319 178.792 42.8039 179.464 43.1399 180.616C43.2519 180.952 43.3159 181.352 43.3159 181.816V185.016C43.3159 185.48 43.2519 185.88 43.1399 186.216C42.8039 187.368 41.7319 188.024 40.4519 188.024Z" fill="#21293E"/>
<path d="M1.79144 90.992C1.96744 93.008 3.48744 94.192 5.47144 94.192C7.87144 94.192 9.34344 92.64 9.34344 90.496C9.34344 88.688 7.95144 87.152 6.09544 87.2L9.32744 83.008V82.8H2.28744V83.936H7.26344L4.19144 87.904V88.208C6.07944 87.712 8.07944 88.512 8.07944 90.496C8.06344 92.096 7.00744 93.024 5.45544 93.024C4.11144 93.024 3.13544 92.352 2.95944 90.992H1.79144ZM19.6628 82.64C17.3428 82.64 15.5188 84.096 15.5188 86.496V90.336C15.5188 92.752 17.3428 94.192 19.6628 94.192C21.9508 94.192 23.7748 92.752 23.7748 90.336V86.496C23.7748 84.096 21.9508 82.64 19.6628 82.64ZM19.6628 93.024C18.3348 93.024 17.2948 92.368 16.9588 91.216C16.8468 90.88 16.7828 90.48 16.7828 90.016V86.816C16.7828 86.352 16.8468 85.952 16.9588 85.616C17.2948 84.464 18.3348 83.792 19.6628 83.792C20.9428 83.792 22.0148 84.464 22.3508 85.616C22.4628 85.952 22.5268 86.352 22.5268 86.816V90.016C22.5268 90.48 22.4628 90.88 22.3508 91.216C22.0148 92.368 20.9428 93.024 19.6628 93.024ZM30.1941 82.64C27.8741 82.64 26.0501 84.096 26.0501 86.496V90.336C26.0501 92.752 27.8741 94.192 30.1941 94.192C32.4821 94.192 34.3061 92.752 34.3061 90.336V86.496C34.3061 84.096 32.4821 82.64 30.1941 82.64ZM30.1941 93.024C28.8661 93.024 27.8261 92.368 27.4901 91.216C27.3781 90.88 27.3141 90.48 27.3141 90.016V86.816C27.3141 86.352 27.3781 85.952 27.4901 85.616C27.8261 84.464 28.8661 83.792 30.1941 83.792C31.4741 83.792 32.5461 84.464 32.8821 85.616C32.9941 85.952 33.0581 86.352 33.0581 86.816V90.016C33.0581 90.48 32.9941 90.88 32.8821 91.216C32.5461 92.368 31.4741 93.024 30.1941 93.024ZM40.7253 82.64C38.4053 82.64 36.5813 84.096 36.5813 86.496V90.336C36.5813 92.752 38.4053 94.192 40.7253 94.192C43.0133 94.192 44.8373 92.752 44.8373 90.336V86.496C44.8373 84.096 43.0133 82.64 40.7253 82.64ZM40.7253 93.024C39.3973 93.024 38.3573 92.368 38.0213 91.216C37.9093 90.88 37.8453 90.48 37.8453 90.016V86.816C37.8453 86.352 37.9093 85.952 38.0213 85.616C38.3573 84.464 39.3973 83.792 40.7253 83.792C42.0053 83.792 43.0773 84.464 43.4133 85.616C43.5253 85.952 43.5893 86.352 43.5893 86.816V90.016C43.5893 90.48 43.5253 90.88 43.4133 91.216C43.0773 92.368 42.0053 93.024 40.7253 93.024Z" fill="#21293E"/>
<path d="M79.5 5V359.5H1400.5" stroke="#B38144"/>
<line x1="76" y1="270" x2="1401" y2="270" stroke="#EBEBEB" stroke-width="2"/>
<line x1="76" y1="181" x2="1401" y2="181" stroke="#EBEBEB" stroke-width="2"/>
<line x1="76" y1="85" x2="1401" y2="85" stroke="#EBEBEB" stroke-width="2"/>
<circle cx="80" cy="270" r="3" fill="#B38144"/>
<circle cx="80" cy="181" r="3" fill="#B38144"/>
<circle cx="80" cy="86" r="3" fill="#B38144"/>
<mask id="mask0" mask-type="alpha" maskUnits="userSpaceOnUse" x="91" y="0" width="1299" height="352">
<rect x="91" width="1299" height="352" fill="#C4C4C4"/>
</mask>
<g mask="url(#mask0)">
<path d="M127.768 319.967L89 324.347V355H1392V11L1241.96 48.9519L1201.69 41.1669L1181.55 65.495L1153.35 23.6506L1059.7 179.351L1035.54 167.673L979.148 100.528L936.856 115.124L911.682 199.786L891.543 205.139L866.369 271.311H845.223L816.022 337.97L788.834 349.648L754.597 337.97L717.34 286.395L704.25 305.371L663.971 271.311L632.756 300.505L607.582 305.371L578.38 271.311L564.283 291.747L554.213 271.311L514.439 291.747L501.348 281.042L477.685 291.747L453.014 330.672L439.924 313.642H406.191L391.087 300.505H370.947L364.906 271.311L336.207 305.371L313.048 291.747L303.481 271.311L279.315 286.395L268.238 271.311L253.134 319.967L219.401 330.672L202.786 319.967L194.227 305.371L149.921 291.747L127.768 319.967Z" fill="#B38144" fill-opacity="0.08" stroke="#B38144" stroke-width="4"/>
</g>
</svg>
