<svg width="606" height="361" viewBox="0 0 606 361" fill="none" xmlns="http://www.w3.org/2000/svg">
<path d="M24.5113 272H29.8553V270.8H23.2953V276.208C24.0473 275.968 25.0553 275.856 26.0793 275.856C27.6633 275.856 29.1993 276.416 29.1993 278.48C29.1993 280.384 27.7753 280.992 26.6393 280.992C25.3593 280.992 24.3993 280.32 24.2553 279.088H22.9913C23.1673 281.12 24.7193 282.176 26.6553 282.176C28.9913 282.176 30.5113 280.704 30.5113 278.448C30.5913 275.696 28.4633 274.688 26.2233 274.688C25.6313 274.688 25.0713 274.752 24.5113 274.896V272ZM33.9845 281.52C34.0005 281.472 33.9845 281.376 33.9685 281.264C33.8565 280.928 33.5685 280.72 33.2005 280.72C32.7525 280.72 32.4165 281.008 32.4165 281.456C32.4165 281.824 32.6565 282.064 32.9765 282.176L32.6245 283.424H33.4085L33.8885 281.904C33.9365 281.76 33.9685 281.632 33.9845 281.52ZM40.2175 270.64C37.8975 270.64 36.0735 272.096 36.0735 274.496V278.336C36.0735 280.752 37.8975 282.192 40.2175 282.192C42.5055 282.192 44.3295 280.752 44.3295 278.336V274.496C44.3295 272.096 42.5055 270.64 40.2175 270.64ZM40.2175 281.024C38.8895 281.024 37.8495 280.368 37.5135 279.216C37.4015 278.88 37.3375 278.48 37.3375 278.016V274.816C37.3375 274.352 37.4015 273.952 37.5135 273.616C37.8495 272.464 38.8895 271.792 40.2175 271.792C41.4975 271.792 42.5695 272.464 42.9055 273.616C43.0175 273.952 43.0815 274.352 43.0815 274.816V278.016C43.0815 278.48 43.0175 278.88 42.9055 279.216C42.5695 280.368 41.4975 281.024 40.2175 281.024ZM50.7488 270.64C48.4288 270.64 46.6048 272.096 46.6048 274.496V278.336C46.6048 280.752 48.4288 282.192 50.7488 282.192C53.0368 282.192 54.8608 280.752 54.8608 278.336V274.496C54.8608 272.096 53.0368 270.64 50.7488 270.64ZM50.7488 281.024C49.4208 281.024 48.3808 280.368 48.0448 279.216C47.9328 278.88 47.8688 278.48 47.8688 278.016V274.816C47.8688 274.352 47.9328 273.952 48.0448 273.616C48.3808 272.464 49.4208 271.792 50.7488 271.792C52.0288 271.792 53.1008 272.464 53.4368 273.616C53.5487 273.952 53.6128 274.352 53.6128 274.816V278.016C53.6128 278.48 53.5487 278.88 53.4368 279.216C53.1008 280.368 52.0288 281.024 50.7488 281.024Z" fill="#21293E"/>
<path d="M65.3985 275.714C67.4321 275.714 69.0865 273.983 69.0865 271.856C69.0865 269.73 67.4321 268 65.3985 268H61.8363V276.986H60.9136V277.941H61.8363V282H62.7909V277.941H66.0349V276.986H62.7909V275.714H65.3985ZM62.7909 268.955H65.3985C66.9058 268.955 68.132 270.256 68.132 271.856C68.132 273.457 66.9058 274.759 65.3985 274.759H62.7909V268.955Z" fill="#21293E"/>
<path d="M16.9913 229.856V238.944H14.7833V240H20.4793V238.944H18.2552V228.8H15.0393V229.856H16.9913ZM26.2175 228.64C23.8975 228.64 22.0735 230.096 22.0735 232.496V236.336C22.0735 238.752 23.8975 240.192 26.2175 240.192C28.5055 240.192 30.3295 238.752 30.3295 236.336V232.496C30.3295 230.096 28.5055 228.64 26.2175 228.64ZM26.2175 239.024C24.8895 239.024 23.8495 238.368 23.5135 237.216C23.4015 236.88 23.3375 236.48 23.3375 236.016V232.816C23.3375 232.352 23.4015 231.952 23.5135 231.616C23.8495 230.464 24.8895 229.792 26.2175 229.792C27.4975 229.792 28.5695 230.464 28.9055 231.616C29.0175 231.952 29.0815 232.352 29.0815 232.816V236.016C29.0815 236.48 29.0175 236.88 28.9055 237.216C28.5695 238.368 27.4975 239.024 26.2175 239.024ZM33.9845 239.52C34.0005 239.472 33.9845 239.376 33.9685 239.264C33.8565 238.928 33.5685 238.72 33.2005 238.72C32.7525 238.72 32.4165 239.008 32.4165 239.456C32.4165 239.824 32.6565 240.064 32.9765 240.176L32.6245 241.424H33.4085L33.8885 239.904C33.9365 239.76 33.9685 239.632 33.9845 239.52ZM40.2175 228.64C37.8975 228.64 36.0735 230.096 36.0735 232.496V236.336C36.0735 238.752 37.8975 240.192 40.2175 240.192C42.5055 240.192 44.3295 238.752 44.3295 236.336V232.496C44.3295 230.096 42.5055 228.64 40.2175 228.64ZM40.2175 239.024C38.8895 239.024 37.8495 238.368 37.5135 237.216C37.4015 236.88 37.3375 236.48 37.3375 236.016V232.816C37.3375 232.352 37.4015 231.952 37.5135 231.616C37.8495 230.464 38.8895 229.792 40.2175 229.792C41.4975 229.792 42.5695 230.464 42.9055 231.616C43.0175 231.952 43.0815 232.352 43.0815 232.816V236.016C43.0815 236.48 43.0175 236.88 42.9055 237.216C42.5695 238.368 41.4975 239.024 40.2175 239.024ZM50.7488 228.64C48.4288 228.64 46.6048 230.096 46.6048 232.496V236.336C46.6048 238.752 48.4288 240.192 50.7488 240.192C53.0368 240.192 54.8608 238.752 54.8608 236.336V232.496C54.8608 230.096 53.0368 228.64 50.7488 228.64ZM50.7488 239.024C49.4208 239.024 48.3808 238.368 48.0448 237.216C47.9328 236.88 47.8688 236.48 47.8688 236.016V232.816C47.8688 232.352 47.9328 231.952 48.0448 231.616C48.3808 230.464 49.4208 229.792 50.7488 229.792C52.0288 229.792 53.1008 230.464 53.4368 231.616C53.5487 231.952 53.6128 232.352 53.6128 232.816V236.016C53.6128 236.48 53.5487 236.88 53.4368 237.216C53.1008 238.368 52.0288 239.024 50.7488 239.024Z" fill="#21293E"/>
<path d="M65.3985 233.714C67.4321 233.714 69.0865 231.983 69.0865 229.856C69.0865 227.73 67.4321 226 65.3985 226H61.8363V234.986H60.9136V235.941H61.8363V240H62.7909V235.941H66.0349V234.986H62.7909V233.714H65.3985ZM62.7909 226.955H65.3985C66.9058 226.955 68.132 228.256 68.132 229.856C68.132 231.457 66.9058 232.759 65.3985 232.759H62.7909V226.955Z" fill="#21293E"/>
<path d="M18.085 188.856V197.944H15.877V199H21.573V197.944H19.349V187.8H16.133V188.856H18.085ZM24.5113 189H29.8553V187.8H23.2953V193.208C24.0473 192.968 25.0553 192.856 26.0793 192.856C27.6633 192.856 29.1993 193.416 29.1993 195.48C29.1993 197.384 27.7753 197.992 26.6393 197.992C25.3593 197.992 24.3993 197.32 24.2553 196.088H22.9913C23.1673 198.12 24.7193 199.176 26.6553 199.176C28.9913 199.176 30.5113 197.704 30.5113 195.448C30.5913 192.696 28.4633 191.688 26.2233 191.688C25.6313 191.688 25.0713 191.752 24.5113 191.896V189ZM33.9845 198.52C34.0005 198.472 33.9845 198.376 33.9685 198.264C33.8565 197.928 33.5685 197.72 33.2005 197.72C32.7525 197.72 32.4165 198.008 32.4165 198.456C32.4165 198.824 32.6565 199.064 32.9765 199.176L32.6245 200.424H33.4085L33.8885 198.904C33.9365 198.76 33.9685 198.632 33.9845 198.52ZM40.2175 187.64C37.8975 187.64 36.0735 189.096 36.0735 191.496V195.336C36.0735 197.752 37.8975 199.192 40.2175 199.192C42.5055 199.192 44.3295 197.752 44.3295 195.336V191.496C44.3295 189.096 42.5055 187.64 40.2175 187.64ZM40.2175 198.024C38.8895 198.024 37.8495 197.368 37.5135 196.216C37.4015 195.88 37.3375 195.48 37.3375 195.016V191.816C37.3375 191.352 37.4015 190.952 37.5135 190.616C37.8495 189.464 38.8895 188.792 40.2175 188.792C41.4975 188.792 42.5695 189.464 42.9055 190.616C43.0175 190.952 43.0815 191.352 43.0815 191.816V195.016C43.0815 195.48 43.0175 195.88 42.9055 196.216C42.5695 197.368 41.4975 198.024 40.2175 198.024ZM50.7488 187.64C48.4288 187.64 46.6048 189.096 46.6048 191.496V195.336C46.6048 197.752 48.4288 199.192 50.7488 199.192C53.0368 199.192 54.8608 197.752 54.8608 195.336V191.496C54.8608 189.096 53.0368 187.64 50.7488 187.64ZM50.7488 198.024C49.4208 198.024 48.3808 197.368 48.0448 196.216C47.9328 195.88 47.8688 195.48 47.8688 195.016V191.816C47.8688 191.352 47.9328 190.952 48.0448 190.616C48.3808 189.464 49.4208 188.792 50.7488 188.792C52.0288 188.792 53.1008 189.464 53.4368 190.616C53.5487 190.952 53.6128 191.352 53.6128 191.816V195.016C53.6128 195.48 53.5487 195.88 53.4368 196.216C53.1008 197.368 52.0288 198.024 50.7488 198.024Z" fill="#21293E"/>
<path d="M65.3985 192.714C67.4321 192.714 69.0865 190.983 69.0865 188.856C69.0865 186.73 67.4321 185 65.3985 185H61.8363V193.986H60.9136V194.941H61.8363V199H62.7909V194.941H66.0349V193.986H62.7909V192.714H65.3985ZM62.7909 185.955H65.3985C66.9058 185.955 68.132 187.256 68.132 188.856C68.132 190.457 66.9058 191.759 65.3985 191.759H62.7909V185.955Z" fill="#21293E"/>
<path d="M16.5216 146.792C19.0656 146.792 18.9856 149.272 17.6256 150.936L13.0016 156.712V157H20.0576V155.816H15.1776L18.8256 151.32C19.6416 150.296 19.8976 149.176 19.7856 148.216C19.6576 146.792 18.5376 145.64 16.5536 145.64C14.3936 145.64 13.3216 146.728 13.2096 148.728H14.3296C14.4416 147.384 15.1776 146.792 16.5216 146.792ZM26.2175 145.64C23.8975 145.64 22.0735 147.096 22.0735 149.496V153.336C22.0735 155.752 23.8975 157.192 26.2175 157.192C28.5055 157.192 30.3295 155.752 30.3295 153.336V149.496C30.3295 147.096 28.5055 145.64 26.2175 145.64ZM26.2175 156.024C24.8895 156.024 23.8495 155.368 23.5135 154.216C23.4015 153.88 23.3375 153.48 23.3375 153.016V149.816C23.3375 149.352 23.4015 148.952 23.5135 148.616C23.8495 147.464 24.8895 146.792 26.2175 146.792C27.4975 146.792 28.5695 147.464 28.9055 148.616C29.0175 148.952 29.0815 149.352 29.0815 149.816V153.016C29.0815 153.48 29.0175 153.88 28.9055 154.216C28.5695 155.368 27.4975 156.024 26.2175 156.024ZM33.9845 156.52C34.0005 156.472 33.9845 156.376 33.9685 156.264C33.8565 155.928 33.5685 155.72 33.2005 155.72C32.7525 155.72 32.4165 156.008 32.4165 156.456C32.4165 156.824 32.6565 157.064 32.9765 157.176L32.6245 158.424H33.4085L33.8885 156.904C33.9365 156.76 33.9685 156.632 33.9845 156.52ZM40.2175 145.64C37.8975 145.64 36.0735 147.096 36.0735 149.496V153.336C36.0735 155.752 37.8975 157.192 40.2175 157.192C42.5055 157.192 44.3295 155.752 44.3295 153.336V149.496C44.3295 147.096 42.5055 145.64 40.2175 145.64ZM40.2175 156.024C38.8895 156.024 37.8495 155.368 37.5135 154.216C37.4015 153.88 37.3375 153.48 37.3375 153.016V149.816C37.3375 149.352 37.4015 148.952 37.5135 148.616C37.8495 147.464 38.8895 146.792 40.2175 146.792C41.4975 146.792 42.5695 147.464 42.9055 148.616C43.0175 148.952 43.0815 149.352 43.0815 149.816V153.016C43.0815 153.48 43.0175 153.88 42.9055 154.216C42.5695 155.368 41.4975 156.024 40.2175 156.024ZM50.7488 145.64C48.4288 145.64 46.6048 147.096 46.6048 149.496V153.336C46.6048 155.752 48.4288 157.192 50.7488 157.192C53.0368 157.192 54.8608 155.752 54.8608 153.336V149.496C54.8608 147.096 53.0368 145.64 50.7488 145.64ZM50.7488 156.024C49.4208 156.024 48.3808 155.368 48.0448 154.216C47.9328 153.88 47.8688 153.48 47.8688 153.016V149.816C47.8688 149.352 47.9328 148.952 48.0448 148.616C48.3808 147.464 49.4208 146.792 50.7488 146.792C52.0288 146.792 53.1008 147.464 53.4368 148.616C53.5487 148.952 53.6128 149.352 53.6128 149.816V153.016C53.6128 153.48 53.5487 153.88 53.4368 154.216C53.1008 155.368 52.0288 156.024 50.7488 156.024Z" fill="#21293E"/>
<path d="M65.3985 150.714C67.4321 150.714 69.0865 148.983 69.0865 146.856C69.0865 144.73 67.4321 143 65.3985 143H61.8363V151.986H60.9136V152.941H61.8363V157H62.7909V152.941H66.0349V151.986H62.7909V150.714H65.3985ZM62.7909 143.955H65.3985C66.9058 143.955 68.132 145.256 68.132 146.856C68.132 148.457 66.9058 149.759 65.3985 149.759H62.7909V143.955Z" fill="#21293E"/>
<path d="M17.6154 103.792C20.1594 103.792 20.0794 106.272 18.7194 107.936L14.0954 113.712V114H21.1514V112.816H16.2714L19.9194 108.32C20.7354 107.296 20.9914 106.176 20.8794 105.216C20.7514 103.792 19.6314 102.64 17.6474 102.64C15.4874 102.64 14.4154 103.728 14.3034 105.728H15.4234C15.5354 104.384 16.2714 103.792 17.6154 103.792ZM24.5113 104H29.8553V102.8H23.2953V108.208C24.0473 107.968 25.0553 107.856 26.0793 107.856C27.6633 107.856 29.1993 108.416 29.1993 110.48C29.1993 112.384 27.7753 112.992 26.6393 112.992C25.3593 112.992 24.3993 112.32 24.2553 111.088H22.9913C23.1673 113.12 24.7193 114.176 26.6553 114.176C28.9913 114.176 30.5113 112.704 30.5113 110.448C30.5913 107.696 28.4633 106.688 26.2233 106.688C25.6313 106.688 25.0713 106.752 24.5113 106.896V104ZM33.9845 113.52C34.0005 113.472 33.9845 113.376 33.9685 113.264C33.8565 112.928 33.5685 112.72 33.2005 112.72C32.7525 112.72 32.4165 113.008 32.4165 113.456C32.4165 113.824 32.6565 114.064 32.9765 114.176L32.6245 115.424H33.4085L33.8885 113.904C33.9365 113.76 33.9685 113.632 33.9845 113.52ZM40.2175 102.64C37.8975 102.64 36.0735 104.096 36.0735 106.496V110.336C36.0735 112.752 37.8975 114.192 40.2175 114.192C42.5055 114.192 44.3295 112.752 44.3295 110.336V106.496C44.3295 104.096 42.5055 102.64 40.2175 102.64ZM40.2175 113.024C38.8895 113.024 37.8495 112.368 37.5135 111.216C37.4015 110.88 37.3375 110.48 37.3375 110.016V106.816C37.3375 106.352 37.4015 105.952 37.5135 105.616C37.8495 104.464 38.8895 103.792 40.2175 103.792C41.4975 103.792 42.5695 104.464 42.9055 105.616C43.0175 105.952 43.0815 106.352 43.0815 106.816V110.016C43.0815 110.48 43.0175 110.88 42.9055 111.216C42.5695 112.368 41.4975 113.024 40.2175 113.024ZM50.7488 102.64C48.4288 102.64 46.6048 104.096 46.6048 106.496V110.336C46.6048 112.752 48.4288 114.192 50.7488 114.192C53.0368 114.192 54.8608 112.752 54.8608 110.336V106.496C54.8608 104.096 53.0368 102.64 50.7488 102.64ZM50.7488 113.024C49.4208 113.024 48.3808 112.368 48.0448 111.216C47.9328 110.88 47.8688 110.48 47.8688 110.016V106.816C47.8688 106.352 47.9328 105.952 48.0448 105.616C48.3808 104.464 49.4208 103.792 50.7488 103.792C52.0288 103.792 53.1008 104.464 53.4368 105.616C53.5487 105.952 53.6128 106.352 53.6128 106.816V110.016C53.6128 110.48 53.5487 110.88 53.4368 111.216C53.1008 112.368 52.0288 113.024 50.7488 113.024Z" fill="#21293E"/>
<path d="M65.3985 107.714C67.4321 107.714 69.0865 105.983 69.0865 103.856C69.0865 101.73 67.4321 100 65.3985 100H61.8363V108.986H60.9136V109.941H61.8363V114H62.7909V109.941H66.0349V108.986H62.7909V107.714H65.3985ZM62.7909 100.955H65.3985C66.9058 100.955 68.132 102.256 68.132 103.856C68.132 105.457 66.9058 106.759 65.3985 106.759H62.7909V100.955Z" fill="#21293E"/>
<path d="M12.4868 67.992C12.6628 70.008 14.1828 71.192 16.1668 71.192C18.5668 71.192 20.0388 69.64 20.0388 67.496C20.0388 65.688 18.6468 64.152 16.7908 64.2L20.0228 60.008V59.8H12.9828V60.936H17.9588L14.8868 64.904V65.208C16.7748 64.712 18.7748 65.512 18.7748 67.496C18.7588 69.096 17.7028 70.024 16.1508 70.024C14.8068 70.024 13.8307 69.352 13.6548 67.992H12.4868ZM26.2175 59.64C23.8975 59.64 22.0735 61.096 22.0735 63.496V67.336C22.0735 69.752 23.8975 71.192 26.2175 71.192C28.5055 71.192 30.3295 69.752 30.3295 67.336V63.496C30.3295 61.096 28.5055 59.64 26.2175 59.64ZM26.2175 70.024C24.8895 70.024 23.8495 69.368 23.5135 68.216C23.4015 67.88 23.3375 67.48 23.3375 67.016V63.816C23.3375 63.352 23.4015 62.952 23.5135 62.616C23.8495 61.464 24.8895 60.792 26.2175 60.792C27.4975 60.792 28.5695 61.464 28.9055 62.616C29.0175 62.952 29.0815 63.352 29.0815 63.816V67.016C29.0815 67.48 29.0175 67.88 28.9055 68.216C28.5695 69.368 27.4975 70.024 26.2175 70.024ZM33.9845 70.52C34.0005 70.472 33.9845 70.376 33.9685 70.264C33.8565 69.928 33.5685 69.72 33.2005 69.72C32.7525 69.72 32.4165 70.008 32.4165 70.456C32.4165 70.824 32.6565 71.064 32.9765 71.176L32.6245 72.424H33.4085L33.8885 70.904C33.9365 70.76 33.9685 70.632 33.9845 70.52ZM40.2175 59.64C37.8975 59.64 36.0735 61.096 36.0735 63.496V67.336C36.0735 69.752 37.8975 71.192 40.2175 71.192C42.5055 71.192 44.3295 69.752 44.3295 67.336V63.496C44.3295 61.096 42.5055 59.64 40.2175 59.64ZM40.2175 70.024C38.8895 70.024 37.8495 69.368 37.5135 68.216C37.4015 67.88 37.3375 67.48 37.3375 67.016V63.816C37.3375 63.352 37.4015 62.952 37.5135 62.616C37.8495 61.464 38.8895 60.792 40.2175 60.792C41.4975 60.792 42.5695 61.464 42.9055 62.616C43.0175 62.952 43.0815 63.352 43.0815 63.816V67.016C43.0815 67.48 43.0175 67.88 42.9055 68.216C42.5695 69.368 41.4975 70.024 40.2175 70.024ZM50.7488 59.64C48.4288 59.64 46.6048 61.096 46.6048 63.496V67.336C46.6048 69.752 48.4288 71.192 50.7488 71.192C53.0368 71.192 54.8608 69.752 54.8608 67.336V63.496C54.8608 61.096 53.0368 59.64 50.7488 59.64ZM50.7488 70.024C49.4208 70.024 48.3808 69.368 48.0448 68.216C47.9328 67.88 47.8688 67.48 47.8688 67.016V63.816C47.8688 63.352 47.9328 62.952 48.0448 62.616C48.3808 61.464 49.4208 60.792 50.7488 60.792C52.0288 60.792 53.1008 61.464 53.4368 62.616C53.5487 62.952 53.6128 63.352 53.6128 63.816V67.016C53.6128 67.48 53.5487 67.88 53.4368 68.216C53.1008 69.368 52.0288 70.024 50.7488 70.024Z" fill="#21293E"/>
<path d="M65.3985 64.7136C67.4321 64.7136 69.0865 62.9833 69.0865 60.8564C69.0865 58.7299 67.4321 57 65.3985 57H61.8363V65.9864H60.9136V66.9409H61.8363V71H62.7909V66.9409H66.0349V65.9864H62.7909V64.7136H65.3985ZM62.7909 57.9545H65.3985C66.9058 57.9545 68.132 59.2563 68.132 60.8564C68.132 62.457 66.9058 63.7591 65.3985 63.7591H62.7909V57.9545Z" fill="#21293E"/>
<path d="M13.5805 20.992C13.7565 23.008 15.2765 24.192 17.2605 24.192C19.6605 24.192 21.1325 22.64 21.1325 20.496C21.1325 18.688 19.7405 17.152 17.8845 17.2L21.1165 13.008V12.8H14.0765V13.936H19.0525L15.9805 17.904V18.208C17.8685 17.712 19.8685 18.512 19.8685 20.496C19.8525 22.096 18.7965 23.024 17.2445 23.024C15.9005 23.024 14.9245 22.352 14.7485 20.992H13.5805ZM24.5113 14H29.8553V12.8H23.2953V18.208C24.0473 17.968 25.0553 17.856 26.0793 17.856C27.6633 17.856 29.1993 18.416 29.1993 20.48C29.1993 22.384 27.7753 22.992 26.6393 22.992C25.3593 22.992 24.3993 22.32 24.2553 21.088H22.9913C23.1673 23.12 24.7193 24.176 26.6553 24.176C28.9913 24.176 30.5113 22.704 30.5113 20.448C30.5913 17.696 28.4633 16.688 26.2233 16.688C25.6313 16.688 25.0713 16.752 24.5113 16.896V14ZM33.9845 23.52C34.0005 23.472 33.9845 23.376 33.9685 23.264C33.8565 22.928 33.5685 22.72 33.2005 22.72C32.7525 22.72 32.4165 23.008 32.4165 23.456C32.4165 23.824 32.6565 24.064 32.9765 24.176L32.6245 25.424H33.4085L33.8885 23.904C33.9365 23.76 33.9685 23.632 33.9845 23.52ZM40.2175 12.64C37.8975 12.64 36.0735 14.096 36.0735 16.496V20.336C36.0735 22.752 37.8975 24.192 40.2175 24.192C42.5055 24.192 44.3295 22.752 44.3295 20.336V16.496C44.3295 14.096 42.5055 12.64 40.2175 12.64ZM40.2175 23.024C38.8895 23.024 37.8495 22.368 37.5135 21.216C37.4015 20.88 37.3375 20.48 37.3375 20.016V16.816C37.3375 16.352 37.4015 15.952 37.5135 15.616C37.8495 14.464 38.8895 13.792 40.2175 13.792C41.4975 13.792 42.5695 14.464 42.9055 15.616C43.0175 15.952 43.0815 16.352 43.0815 16.816V20.016C43.0815 20.48 43.0175 20.88 42.9055 21.216C42.5695 22.368 41.4975 23.024 40.2175 23.024ZM50.7488 12.64C48.4288 12.64 46.6048 14.096 46.6048 16.496V20.336C46.6048 22.752 48.4288 24.192 50.7488 24.192C53.0368 24.192 54.8608 22.752 54.8608 20.336V16.496C54.8608 14.096 53.0368 12.64 50.7488 12.64ZM50.7488 23.024C49.4208 23.024 48.3808 22.368 48.0448 21.216C47.9328 20.88 47.8688 20.48 47.8688 20.016V16.816C47.8688 16.352 47.9328 15.952 48.0448 15.616C48.3808 14.464 49.4208 13.792 50.7488 13.792C52.0288 13.792 53.1008 14.464 53.4368 15.616C53.5487 15.952 53.6128 16.352 53.6128 16.816V20.016C53.6128 20.48 53.5487 20.88 53.4368 21.216C53.1008 22.368 52.0288 23.024 50.7488 23.024Z" fill="#21293E"/>
<path d="M65.3985 17.7136C67.4321 17.7136 69.0865 15.9833 69.0865 13.8564C69.0865 11.7299 67.4321 10 65.3985 10H61.8363V18.9864H60.9136V19.9409H61.8363V24H62.7909V19.9409H66.0349V18.9864H62.7909V17.7136H65.3985ZM62.7909 10.9545H65.3985C66.9058 10.9545 68.132 12.2563 68.132 13.8564C68.132 15.457 66.9058 16.7591 65.3985 16.7591H62.7909V10.9545Z" fill="#21293E"/>
<path d="M26.2175 305.64C23.8975 305.64 22.0735 307.096 22.0735 309.496V313.336C22.0735 315.752 23.8975 317.192 26.2175 317.192C28.5055 317.192 30.3295 315.752 30.3295 313.336V309.496C30.3295 307.096 28.5055 305.64 26.2175 305.64ZM26.2175 316.024C24.8895 316.024 23.8495 315.368 23.5135 314.216C23.4015 313.88 23.3375 313.48 23.3375 313.016V309.816C23.3375 309.352 23.4015 308.952 23.5135 308.616C23.8495 307.464 24.8895 306.792 26.2175 306.792C27.4975 306.792 28.5695 307.464 28.9055 308.616C29.0175 308.952 29.0815 309.352 29.0815 309.816V313.016C29.0815 313.48 29.0175 313.88 28.9055 314.216C28.5695 315.368 27.4975 316.024 26.2175 316.024ZM33.9845 316.52C34.0005 316.472 33.9845 316.376 33.9685 316.264C33.8565 315.928 33.5685 315.72 33.2005 315.72C32.7525 315.72 32.4165 316.008 32.4165 316.456C32.4165 316.824 32.6565 317.064 32.9765 317.176L32.6245 318.424H33.4085L33.8885 316.904C33.9365 316.76 33.9685 316.632 33.9845 316.52ZM40.2175 305.64C37.8975 305.64 36.0735 307.096 36.0735 309.496V313.336C36.0735 315.752 37.8975 317.192 40.2175 317.192C42.5055 317.192 44.3295 315.752 44.3295 313.336V309.496C44.3295 307.096 42.5055 305.64 40.2175 305.64ZM40.2175 316.024C38.8895 316.024 37.8495 315.368 37.5135 314.216C37.4015 313.88 37.3375 313.48 37.3375 313.016V309.816C37.3375 309.352 37.4015 308.952 37.5135 308.616C37.8495 307.464 38.8895 306.792 40.2175 306.792C41.4975 306.792 42.5695 307.464 42.9055 308.616C43.0175 308.952 43.0815 309.352 43.0815 309.816V313.016C43.0815 313.48 43.0175 313.88 42.9055 314.216C42.5695 315.368 41.4975 316.024 40.2175 316.024ZM50.7488 305.64C48.4288 305.64 46.6048 307.096 46.6048 309.496V313.336C46.6048 315.752 48.4288 317.192 50.7488 317.192C53.0368 317.192 54.8608 315.752 54.8608 313.336V309.496C54.8608 307.096 53.0368 305.64 50.7488 305.64ZM50.7488 316.024C49.4208 316.024 48.3808 315.368 48.0448 314.216C47.9328 313.88 47.8688 313.48 47.8688 313.016V309.816C47.8688 309.352 47.9328 308.952 48.0448 308.616C48.3808 307.464 49.4208 306.792 50.7488 306.792C52.0288 306.792 53.1008 307.464 53.4368 308.616C53.5487 308.952 53.6128 309.352 53.6128 309.816V313.016C53.6128 313.48 53.5487 313.88 53.4368 314.216C53.1008 315.368 52.0288 316.024 50.7488 316.024Z" fill="#21293E"/>
<path d="M65.3985 310.714C67.4321 310.714 69.0865 308.983 69.0865 306.856C69.0865 304.73 67.4321 303 65.3985 303H61.8363V311.986H60.9136V312.941H61.8363V317H62.7909V312.941H66.0349V311.986H62.7909V310.714H65.3985ZM62.7909 303.955H65.3985C66.9058 303.955 68.132 305.256 68.132 306.856C68.132 308.457 66.9058 309.759 65.3985 309.759H62.7909V303.955Z" fill="#21293E"/>
<path d="M99 0V317H590" stroke="black"/>
<line x1="96" y1="274.5" x2="589" y2="274.5" stroke="#EBEBEB"/>
<circle cx="160" cy="317" r="4" fill="#C4C4C4"/>
<circle cx="305" cy="317" r="4" fill="#C4C4C4"/>
<line x1="96" y1="232.5" x2="589" y2="232.5" stroke="#EBEBEB"/>
<line x1="97" y1="191.5" x2="590" y2="191.5" stroke="#EBEBEB"/>
<line x1="97" y1="149.5" x2="590" y2="149.5" stroke="#EBEBEB"/>
<line x1="97" y1="106.5" x2="590" y2="106.5" stroke="#EBEBEB"/>
<circle cx="99" cy="275" r="2" fill="#9A9A9A"/>
<circle cx="99" cy="233" r="2" fill="#9A9A9A"/>
<circle cx="99" cy="192" r="2" fill="#9A9A9A"/>
<circle cx="99" cy="150" r="2" fill="#9A9A9A"/>
<circle cx="99" cy="107" r="2" fill="#9A9A9A"/>
<line x1="97" y1="63.5" x2="590" y2="63.5" stroke="#EBEBEB"/>
<circle cx="99" cy="64" r="2" fill="#9A9A9A"/>
<line x1="97" y1="16.5" x2="590" y2="16.5" stroke="#EBEBEB"/>
<circle cx="99" cy="17" r="2" fill="#9A9A9A"/>
<path d="M137.725 350.384C137.725 352.592 135.949 353.184 134.141 353.232V347.536C135.965 347.584 137.725 348.176 137.725 350.384ZM128.877 350.384C128.877 348.176 130.637 347.584 132.445 347.536V353.232C130.685 353.184 128.877 352.592 128.877 350.384ZM132.429 356.016H134.157V354.832C137.037 354.752 139.597 353.6 139.597 350.384C139.597 347.168 137.085 346 134.173 345.92V344.768H132.429V345.92C129.565 346 127.005 347.264 127.005 350.384C127.005 353.504 129.565 354.752 132.429 354.832V356.016ZM145.031 348.112C142.935 348.112 141.079 349.408 141.031 351.984C140.951 354.592 142.823 356.224 145.367 356.176C146.343 356.176 147.383 355.92 148.279 355.52L148.055 354.224C147.143 354.624 146.215 354.752 145.255 354.704C143.847 354.704 142.743 353.872 142.743 352.464H148.439C148.951 349.904 147.735 348.112 145.031 348.112ZM145.015 349.456C146.119 349.456 147.079 350.064 147.031 351.232H142.775C143.015 350.016 143.863 349.456 145.015 349.456ZM156.628 350.304C156.628 348.368 154.708 348.272 153.284 348.272H150.324C150.324 350.864 150.324 353.44 150.324 356.016H153.716C155.236 356.016 157.044 355.808 157.044 353.808C157.044 352.88 156.516 352.112 155.572 351.856C156.34 351.584 156.628 350.992 156.628 350.304ZM152.02 354.672V352.576H153.46C154.26 352.576 155.348 352.64 155.348 353.632C155.348 354.672 154.292 354.672 153.54 354.672H152.02ZM152.02 351.392V349.552H153.38C154.068 349.552 154.916 349.632 154.916 350.48C154.916 351.312 154.052 351.392 153.38 351.392H152.02ZM160.583 349.536C160.583 348.176 159.607 347.968 158.327 348.224L158.343 349.424C159.239 349.424 159.159 349.856 159.159 350.752V359.968H160.903V355.472C161.543 355.856 162.215 356.048 162.855 356.08C164.919 356.176 166.711 354.576 166.711 352.096C166.711 349.984 165.495 348.08 163.223 348.08C162.119 348.08 161.031 348.464 160.583 349.536ZM160.871 351.776C160.871 350.624 161.671 349.632 162.871 349.632C164.263 349.632 164.951 350.816 164.951 352.096C164.951 353.664 164.007 354.512 162.839 354.56C162.215 354.592 161.511 354.384 160.871 353.936V351.776ZM173.503 354.704C173.551 356.224 174.495 356.224 175.711 356.016L175.679 355.024C174.847 355.104 174.879 354.64 174.879 353.92V350.88C174.879 348.752 173.215 348.096 171.343 348.096C170.319 348.096 169.279 348.304 168.495 348.704L168.751 349.952C169.711 349.472 173.183 348.8 173.183 350.832V351.6C172.495 351.216 171.647 351.024 170.895 351.024C169.199 351.024 167.855 351.904 167.903 353.744C167.903 355.248 169.263 356.144 170.671 356.144C171.759 356.144 172.991 355.728 173.503 354.704ZM173.183 353.36C173.007 354.336 171.935 354.768 171.023 354.768C170.319 354.768 169.615 354.416 169.615 353.648C169.615 352.704 170.335 352.208 171.183 352.192C171.871 352.176 172.607 352.384 173.183 352.72V353.36ZM182.829 349.824V356H184.541V348.288C182.573 348.288 180.621 348.288 178.669 348.288L178.093 353.2C177.965 354.336 177.837 354.912 176.493 354.72L176.461 356C178.925 356.352 179.581 355.664 179.805 353.264L180.173 349.824H182.829ZM190.024 356C191.768 356 193.432 355.28 193.432 353.344C193.432 351.376 191.8 350.688 190.04 350.688H188.488V348.288H186.808C186.808 350.864 186.808 353.424 186.808 356H190.024ZM190.008 352.016C190.952 352.016 191.736 352.432 191.736 353.344C191.736 354.256 190.952 354.672 190.008 354.672H188.488V352.016H190.008Z" fill="#21293E"/>
<path d="M292.695 350.56L288.135 344.768H287.447V356H289.319V348.992L292.567 353.136H292.823L296.055 348.992V356H297.927V344.768H297.239L292.695 350.56ZM305.355 354.704C305.403 356.224 306.347 356.224 307.563 356.016L307.531 355.024C306.699 355.104 306.731 354.64 306.731 353.92V350.88C306.731 348.752 305.067 348.096 303.195 348.096C302.171 348.096 301.131 348.304 300.347 348.704L300.603 349.952C301.563 349.472 305.035 348.8 305.035 350.832V351.6C304.347 351.216 303.499 351.024 302.747 351.024C301.051 351.024 299.707 351.904 299.755 353.744C299.755 355.248 301.115 356.144 302.523 356.144C303.611 356.144 304.843 355.728 305.355 354.704ZM305.035 353.36C304.859 354.336 303.787 354.768 302.875 354.768C302.171 354.768 301.467 354.416 301.467 353.648C301.467 352.704 302.187 352.208 303.035 352.192C303.723 352.176 304.459 352.384 305.035 352.72V353.36ZM310.872 349.536C310.872 348.176 309.896 347.968 308.616 348.224L308.632 349.424C309.528 349.424 309.448 349.856 309.448 350.752V359.968H311.192V355.472C311.832 355.856 312.504 356.048 313.144 356.08C315.208 356.176 317 354.576 317 352.096C317 349.984 315.784 348.08 313.512 348.08C312.408 348.08 311.32 348.464 310.872 349.536ZM311.16 351.776C311.16 350.624 311.96 349.632 313.16 349.632C314.552 349.632 315.24 350.816 315.24 352.096C315.24 353.664 314.296 354.512 313.128 354.56C312.504 354.592 311.8 354.384 311.16 353.936V351.776ZM322.083 355.984V349.808H324.579V348.288H317.907V349.808H320.387V355.984H322.083Z" fill="#21293E"/>
<circle cx="451" cy="317" r="4" fill="#C4C4C4"/>
<path d="M431.309 353.68L432.413 356H434.349V355.76L429.197 344.72H428.333L423.149 355.76V356H425.101L426.189 353.68H431.309ZM428.765 347.632L430.717 352.112H426.797L428.765 347.632ZM435.519 348.288V356H437.279V349.824H440.863V356H442.591V348.288H435.519ZM446.607 349.536C446.607 348.176 445.631 347.968 444.351 348.224L444.367 349.424C445.263 349.424 445.183 349.856 445.183 350.752V359.968H446.927V355.472C447.567 355.856 448.239 356.048 448.879 356.08C450.943 356.176 452.735 354.576 452.735 352.096C452.735 349.984 451.519 348.08 449.247 348.08C448.143 348.08 447.055 348.464 446.607 349.536ZM446.895 351.776C446.895 350.624 447.695 349.632 448.895 349.632C450.287 349.632 450.975 350.816 450.975 352.096C450.975 353.664 450.031 354.512 448.863 354.56C448.239 354.592 447.535 354.384 446.895 353.936V351.776ZM458.039 348.112C455.943 348.112 454.087 349.408 454.039 351.984C453.959 354.592 455.831 356.224 458.375 356.176C459.351 356.176 460.391 355.92 461.287 355.52L461.063 354.224C460.151 354.624 459.223 354.752 458.263 354.704C456.855 354.704 455.751 353.872 455.751 352.464H461.447C461.959 349.904 460.743 348.112 458.039 348.112ZM458.023 349.456C459.127 349.456 460.087 350.064 460.039 351.232H455.783C456.023 350.016 456.871 349.456 458.023 349.456ZM468.821 349.824V356H470.533V348.288C468.565 348.288 466.613 348.288 464.661 348.288L464.085 353.2C463.957 354.336 463.829 354.912 462.485 354.72L462.453 356C464.917 356.352 465.573 355.664 465.797 353.264L466.165 349.824H468.821ZM476.016 356C477.76 356 479.424 355.28 479.424 353.344C479.424 351.376 477.792 350.688 476.032 350.688H474.48V348.288H472.8C472.8 350.864 472.8 353.424 472.8 356H476.016ZM476 352.016C476.944 352.016 477.728 352.432 477.728 353.344C477.728 354.256 476.944 354.672 476 354.672H474.48V352.016H476Z" fill="#21293E"/>
<circle cx="590" cy="317" r="4" fill="#C4C4C4"/>
<path d="M580.999 350.56L576.439 344.768H575.751V356H577.623V348.992L580.871 353.136H581.127L584.359 348.992V356H586.231V344.768H585.543L580.999 350.56ZM593.66 354.704C593.708 356.224 594.652 356.224 595.868 356.016L595.836 355.024C595.004 355.104 595.036 354.64 595.036 353.92V350.88C595.036 348.752 593.372 348.096 591.5 348.096C590.476 348.096 589.436 348.304 588.652 348.704L588.908 349.952C589.868 349.472 593.34 348.8 593.34 350.832V351.6C592.652 351.216 591.804 351.024 591.052 351.024C589.356 351.024 588.012 351.904 588.06 353.744C588.06 355.248 589.42 356.144 590.828 356.144C591.916 356.144 593.148 355.728 593.66 354.704ZM593.34 353.36C593.164 354.336 592.092 354.768 591.18 354.768C590.476 354.768 589.772 354.416 589.772 353.648C589.772 352.704 590.492 352.208 591.34 352.192C592.028 352.176 592.764 352.384 593.34 352.72V353.36ZM598.793 345.104C598.905 346.512 599.913 347.36 601.241 347.36C602.649 347.36 603.641 346.48 603.753 345.104C603.417 345.056 602.985 345.008 602.633 344.976C602.505 345.712 601.945 345.984 601.225 345.984C600.489 345.968 599.977 345.648 599.881 344.976L598.793 345.104ZM597.913 356.016H597.433V348.288H599.129V352.928L603.961 348.272C604.153 348.272 604.329 348.272 604.505 348.272C604.505 350.848 604.505 353.424 604.505 356C603.945 356 603.385 356 602.825 356V351.344L597.913 356.016Z" fill="#21293E"/>
<path d="M155 28.5L309.5 106.5L429 151.5L574.5 211" stroke="#B38144" stroke-width="4"/>
<path d="M309.5 113C311.985 113 314 110.985 314 108.5C314 106.015 311.985 104 309.5 104C307.015 104 305 106.015 305 108.5C305 110.985 307.015 113 309.5 113Z" fill="white" stroke="#B38144" stroke-width="3"/>
<path d="M156.5 33C158.985 33 161 30.9853 161 28.5C161 26.0147 158.985 24 156.5 24C154.015 24 152 26.0147 152 28.5C152 30.9853 154.015 33 156.5 33Z" fill="white" stroke="#B38144" stroke-width="3"/>
<path d="M432.5 157C434.985 157 437 154.985 437 152.5C437 150.015 434.985 148 432.5 148C430.015 148 428 150.015 428 152.5C428 154.985 430.015 157 432.5 157Z" fill="white" stroke="#B38144" stroke-width="3"/>
<path d="M573.5 215C575.985 215 578 212.985 578 210.5C578 208.015 575.985 206 573.5 206C571.015 206 569 208.015 569 210.5C569 212.985 571.015 215 573.5 215Z" fill="white" stroke="#B38144" stroke-width="3"/>
</svg>
