<svg width="416" height="159" viewBox="0 0 416 159" fill="none" xmlns="http://www.w3.org/2000/svg">
<rect width="416" height="34" fill="#19B4EE"/>
<path d="M273.576 50.744C273.708 52.256 274.848 53.144 276.336 53.144C278.136 53.144 279.24 51.98 279.24 50.372C279.24 49.016 278.196 47.864 276.804 47.9L279.228 44.756V44.6H273.948V45.452H277.68L275.376 48.428V48.656C276.792 48.284 278.292 48.884 278.292 50.372C278.28 51.572 277.488 52.268 276.324 52.268C275.316 52.268 274.584 51.764 274.452 50.744H273.576ZM285.518 51.236H286.382V50.42H285.518V44.72H284.534L280.274 50.804V51.236H284.606V53.12H285.518V51.236ZM284.702 45.848L284.666 48.344V50.456H281.474L284.69 45.848H284.702Z" fill="#21293E"/>
<path d="M276.66 68.564L273.984 72.656C273.636 73.172 273.468 73.748 273.468 74.36C273.468 76.16 274.836 77.108 276.516 77.108C278.196 77.108 279.588 76.16 279.588 74.36C279.588 72.632 278.292 71.636 276.66 71.672C276.288 71.672 275.916 71.756 275.592 71.948L277.764 68.564H276.66ZM276.516 76.244C275.364 76.244 274.452 75.56 274.452 74.36C274.452 73.148 275.352 72.464 276.504 72.464C277.68 72.464 278.592 73.148 278.592 74.36C278.592 75.56 277.68 76.244 276.516 76.244ZM282.263 69.392V76.208H280.607V77H284.879V76.208H283.211V68.6H280.799V69.392H282.263Z" fill="#21293E"/>
<path d="M275.22 93.392V100.208H273.564V101H277.836V100.208H276.168V92.6H273.756V93.392H275.22ZM281.372 93.344C283.28 93.344 283.22 95.204 282.2 96.452L278.732 100.784V101H284.024V100.112H280.364L283.1 96.74C283.712 95.972 283.904 95.132 283.82 94.412C283.724 93.344 282.884 92.48 281.396 92.48C279.776 92.48 278.972 93.296 278.888 94.796H279.728C279.812 93.788 280.364 93.344 281.372 93.344ZM286.904 93.392V100.208H285.248V101H289.52V100.208H287.852V92.6H285.44V93.392H286.904ZM293.055 93.344C294.963 93.344 294.903 95.204 293.883 96.452L290.415 100.784V101H295.707V100.112H292.047L294.783 96.74C295.395 95.972 295.587 95.132 295.503 94.412C295.407 93.344 294.567 92.48 293.079 92.48C291.459 92.48 290.655 93.296 290.571 94.796H291.411C291.495 93.788 292.047 93.344 293.055 93.344Z" fill="#21293E"/>
<path d="M277.66 116.564L274.984 120.656C274.636 121.172 274.468 121.748 274.468 122.36C274.468 124.16 275.836 125.108 277.516 125.108C279.196 125.108 280.588 124.16 280.588 122.36C280.588 120.632 279.292 119.636 277.66 119.672C277.288 119.672 276.916 119.756 276.592 119.948L278.764 116.564H277.66ZM277.516 124.244C276.364 124.244 275.452 123.56 275.452 122.36C275.452 121.148 276.352 120.464 277.504 120.464C278.68 120.464 279.592 121.148 279.592 122.36C279.592 123.56 278.68 124.244 277.516 124.244ZM283.263 117.392V124.208H281.607V125H285.879V124.208H284.211V116.6H281.799V117.392H283.263ZM289.415 117.344C291.323 117.344 291.263 119.204 290.243 120.452L286.775 124.784V125H292.067V124.112H288.407L291.143 120.74C291.755 119.972 291.947 119.132 291.863 118.412C291.767 117.344 290.927 116.48 289.439 116.48C287.819 116.48 287.015 117.296 286.931 118.796H287.771C287.855 117.788 288.407 117.344 289.415 117.344Z" fill="#21293E"/>
<path d="M276.22 141.392V148.208H274.564V149H278.836V148.208H277.168V140.6H274.756V141.392H276.22ZM279.756 146.744C279.888 148.256 281.028 149.144 282.516 149.144C284.316 149.144 285.42 147.98 285.42 146.372C285.42 145.016 284.376 143.864 282.984 143.9L285.408 140.756V140.6H280.128V141.452H283.86L281.556 144.428V144.656C282.972 144.284 284.472 144.884 284.472 146.372C284.46 147.572 283.668 148.268 282.504 148.268C281.496 148.268 280.764 147.764 280.632 146.744H279.756ZM292.142 140.6H286.538V141.488H290.786L287.258 149H288.278L292.142 140.744V140.6Z" fill="#21293E"/>
<path d="M26.032 46.844C26.032 45.248 24.904 44.564 23.392 44.564H20.116V52.964H23.752C25.324 52.964 26.416 52.124 26.416 50.6C26.416 49.604 25.864 48.872 24.904 48.596C25.66 48.296 26.032 47.624 26.032 46.844ZM23.332 45.452C24.316 45.452 25.048 45.872 25.036 46.88C25.036 47.888 24.256 48.248 23.188 48.248H21.124V45.452H23.332ZM25.408 50.6C25.396 51.62 24.616 52.076 23.548 52.076H21.124V49.112H23.188C24.316 49.112 25.456 49.412 25.408 50.6ZM32.1528 48.872L32.0568 51.068V53H32.9688V47.204H32.6568L28.7208 51.272L28.7928 49.268V47.216H27.8808V53H28.1568L32.1528 48.872ZM34.5908 48.308C35.0708 48.032 35.8748 47.876 36.4268 47.876C37.0988 47.876 37.8308 48.02 37.8308 48.764C37.8308 49.556 37.0508 49.604 36.3788 49.616C36.1268 49.616 35.8868 49.604 35.6588 49.604V50.348C35.8988 50.348 36.1628 50.348 36.4268 50.348C37.2188 50.348 38.1908 50.444 38.1908 51.308C38.1908 52.064 37.3988 52.316 36.5948 52.328C35.8148 52.328 34.8308 52.04 34.3868 51.656L34.3388 52.484C34.9028 52.868 35.8268 53.132 36.7268 53.132C37.9388 53.132 39.1628 52.628 39.1628 51.356C39.1628 50.576 38.6588 50.072 37.8908 49.904C38.4548 49.784 38.8148 49.232 38.8148 48.656C38.8148 47.468 37.6628 47.108 36.5828 47.108C35.8628 47.096 35.0588 47.276 34.5428 47.564L34.5908 48.308ZM44.8793 48.872L44.7833 51.068V53H45.6953V47.204H45.3833L41.4473 51.272L41.5193 49.268V47.216H40.6073V53H40.8833L44.8793 48.872ZM49.8254 52.988V48.044H51.8654V47.216H46.8734V48.044H48.9134V52.988H49.8254ZM53.9889 49.664V47.204H53.0409V53H53.9889V50.432H54.7449C54.9849 50.432 55.2369 50.42 55.4529 50.372L57.2049 53H58.2129V52.892L56.2809 50.084C57.5409 49.604 57.9489 48.5 57.9249 47.204H57.0369C57.0369 48.776 56.3169 49.664 54.7569 49.664H53.9889ZM63.3391 51.956C63.3391 53.012 63.7951 53.192 64.7551 53.036L64.7431 52.424C64.0351 52.52 64.0711 52.148 64.0711 51.512V49.1C64.1071 47.588 62.8471 47.084 61.5391 47.084C60.7711 47.084 60.0031 47.252 59.4391 47.54L59.5951 48.26C60.0871 47.972 60.7351 47.84 61.3951 47.84C62.1871 47.84 63.2191 48.104 63.2191 49.076V49.784C62.6431 49.46 61.8871 49.304 61.2271 49.304C60.0271 49.304 58.9471 49.988 58.9831 51.308C59.0191 52.472 59.9911 53.096 61.0591 53.096C61.9351 53.096 62.9191 52.76 63.3391 51.956ZM63.2071 51.044C63.0151 51.908 61.9831 52.292 61.2271 52.292C60.5791 52.292 59.9431 52.004 59.9071 51.272C59.8711 50.444 60.6151 50.024 61.3831 50.024C61.9711 50.024 62.6791 50.192 63.2071 50.492V51.044ZM73.3559 48.872L73.2599 51.068V53H74.1719V47.204H73.8599L69.9239 51.272L69.9959 49.268V47.216H69.0839V53H69.3599L73.3559 48.872ZM75.7939 48.308C76.2739 48.032 77.0779 47.876 77.6299 47.876C78.3019 47.876 79.0339 48.02 79.0339 48.764C79.0339 49.556 78.2539 49.604 77.5819 49.616C77.3299 49.616 77.0899 49.604 76.8619 49.604V50.348C77.1019 50.348 77.3659 50.348 77.6299 50.348C78.4219 50.348 79.3939 50.444 79.3939 51.308C79.3939 52.064 78.6019 52.316 77.7979 52.328C77.0179 52.328 76.0339 52.04 75.5899 51.656L75.5419 52.484C76.1059 52.868 77.0299 53.132 77.9299 53.132C79.1419 53.132 80.3659 52.628 80.3659 51.356C80.3659 50.576 79.8619 50.072 79.0939 49.904C79.6579 49.784 80.0179 49.232 80.0179 48.656C80.0179 47.468 78.8659 47.108 77.7859 47.108C77.0659 47.096 76.2619 47.276 75.7459 47.564L75.7939 48.308ZM82.7464 53V48.08H85.7464V47.216H81.8104V53H82.7464ZM92.5149 50.096C92.5149 46.076 86.4189 46.076 86.4189 50.096C86.4189 54.116 92.5149 54.092 92.5149 50.096ZM87.3669 50.096C87.3669 47.156 91.5789 47.156 91.5789 50.096C91.5789 53.048 87.3669 53.048 87.3669 50.096ZM96.1262 52.988V48.044H98.1662V47.216H93.1742V48.044H95.2142V52.988H96.1262ZM104.925 50.096C104.925 46.076 98.8291 46.076 98.8291 50.096C98.8291 54.116 104.925 54.092 104.925 50.096ZM99.7771 50.096C99.7771 47.156 103.989 47.156 103.989 50.096C103.989 53.048 99.7771 53.048 99.7771 50.096ZM110.921 48.716C110.921 47.324 109.529 47.204 108.485 47.204H106.373C106.373 49.16 106.373 51.092 106.373 53.012H108.749C109.889 53.012 111.257 52.856 111.257 51.392C111.257 50.66 110.801 50.096 110.057 49.916C110.657 49.748 110.921 49.232 110.921 48.716ZM107.285 52.232V50.336H108.569C109.301 50.336 110.333 50.408 110.333 51.32C110.333 52.256 109.373 52.232 108.665 52.232H107.285ZM107.285 49.616V47.936H108.533C109.169 47.936 109.997 47.996 109.997 48.788C109.997 49.58 109.169 49.616 108.533 49.616H107.285ZM116.89 48.056V53H117.814V47.216C116.434 47.216 115.078 47.216 113.698 47.216L113.254 51.044C113.146 51.956 113.026 52.46 111.958 52.292L111.934 53C113.602 53.24 114.01 52.688 114.166 51.092L114.502 48.056H116.89ZM122.231 47.084C120.647 47.084 119.327 48.128 119.267 49.952C119.207 51.92 120.563 53.132 122.483 53.132C123.191 53.132 123.923 52.964 124.607 52.64L124.463 51.932C123.791 52.208 123.167 52.352 122.507 52.352C121.199 52.352 120.143 51.536 120.203 50.204H124.799C125.123 48.296 124.199 47.096 122.231 47.084ZM122.231 47.828C123.263 47.828 124.067 48.392 124.007 49.484H120.239C120.395 48.44 121.175 47.828 122.231 47.828ZM130.483 47.216V49.604H127.207V47.216H126.283V53H127.207V50.42H130.483V53H131.395V47.216H130.483ZM137.493 48.872L137.397 51.068V53H138.309V47.204H137.997L134.061 51.272L134.133 49.268V47.216H133.221V53H133.497L137.493 48.872ZM142.727 47.084C141.143 47.084 139.823 48.128 139.763 49.952C139.703 51.92 141.059 53.132 142.979 53.132C143.687 53.132 144.419 52.964 145.103 52.64L144.959 51.932C144.287 52.208 143.663 52.352 143.003 52.352C141.695 52.352 140.639 51.536 140.699 50.204H145.295C145.619 48.296 144.695 47.096 142.727 47.084ZM142.727 47.828C143.759 47.828 144.563 48.392 144.503 49.484H140.735C140.891 48.44 141.671 47.828 142.727 47.828Z" fill="#21293E"/>
<path d="M26.032 70.844C26.032 69.248 24.904 68.564 23.392 68.564H20.116V76.964H23.752C25.324 76.964 26.416 76.124 26.416 74.6C26.416 73.604 25.864 72.872 24.904 72.596C25.66 72.296 26.032 71.624 26.032 70.844ZM23.332 69.452C24.316 69.452 25.048 69.872 25.036 70.88C25.036 71.888 24.256 72.248 23.188 72.248H21.124V69.452H23.332ZM25.408 74.6C25.396 75.62 24.616 76.076 23.548 76.076H21.124V73.112H23.188C24.316 73.112 25.456 73.412 25.408 74.6ZM32.1528 72.872L32.0568 75.068V77H32.9688V71.204H32.6568L28.7208 75.272L28.7928 73.268V71.216H27.8808V77H28.1568L32.1528 72.872ZM34.5908 72.308C35.0708 72.032 35.8748 71.876 36.4268 71.876C37.0988 71.876 37.8308 72.02 37.8308 72.764C37.8308 73.556 37.0508 73.604 36.3788 73.616C36.1268 73.616 35.8868 73.604 35.6588 73.604V74.348C35.8988 74.348 36.1628 74.348 36.4268 74.348C37.2188 74.348 38.1908 74.444 38.1908 75.308C38.1908 76.064 37.3988 76.316 36.5948 76.328C35.8148 76.328 34.8308 76.04 34.3868 75.656L34.3388 76.484C34.9028 76.868 35.8268 77.132 36.7268 77.132C37.9388 77.132 39.1628 76.628 39.1628 75.356C39.1628 74.576 38.6588 74.072 37.8908 73.904C38.4548 73.784 38.8148 73.232 38.8148 72.656C38.8148 71.468 37.6628 71.108 36.5828 71.108C35.8628 71.096 35.0588 71.276 34.5428 71.564L34.5908 72.308ZM44.8793 72.872L44.7833 75.068V77H45.6953V71.204H45.3833L41.4473 75.272L41.5193 73.268V71.216H40.6073V77H40.8833L44.8793 72.872ZM49.8254 76.988V72.044H51.8654V71.216H46.8734V72.044H48.9134V76.988H49.8254ZM53.9889 73.664V71.204H53.0409V77H53.9889V74.432H54.7449C54.9849 74.432 55.2369 74.42 55.4529 74.372L57.2049 77H58.2129V76.892L56.2809 74.084C57.5409 73.604 57.9489 72.5 57.9249 71.204H57.0369C57.0369 72.776 56.3169 73.664 54.7569 73.664H53.9889ZM63.3391 75.956C63.3391 77.012 63.7951 77.192 64.7551 77.036L64.7431 76.424C64.0351 76.52 64.0711 76.148 64.0711 75.512V73.1C64.1071 71.588 62.8471 71.084 61.5391 71.084C60.7711 71.084 60.0031 71.252 59.4391 71.54L59.5951 72.26C60.0871 71.972 60.7351 71.84 61.3951 71.84C62.1871 71.84 63.2191 72.104 63.2191 73.076V73.784C62.6431 73.46 61.8871 73.304 61.2271 73.304C60.0271 73.304 58.9471 73.988 58.9831 75.308C59.0191 76.472 59.9911 77.096 61.0591 77.096C61.9351 77.096 62.9191 76.76 63.3391 75.956ZM63.2071 75.044C63.0151 75.908 61.9831 76.292 61.2271 76.292C60.5791 76.292 59.9431 76.004 59.9071 75.272C59.8711 74.444 60.6151 74.024 61.3831 74.024C61.9711 74.024 62.6791 74.192 63.2071 74.492V75.044ZM69.0839 71.216V77H70.0319V72.056H73.2479V77H74.1839V71.216H69.0839ZM78.6017 71.084C77.0177 71.084 75.6977 72.128 75.6377 73.952C75.5777 75.92 76.9337 77.132 78.8537 77.132C79.5617 77.132 80.2937 76.964 80.9777 76.64L80.8337 75.932C80.1617 76.208 79.5377 76.352 78.8777 76.352C77.5697 76.352 76.5137 75.536 76.5737 74.204H81.1697C81.4937 72.296 80.5697 71.096 78.6017 71.084ZM78.6017 71.828C79.6337 71.828 80.4377 72.392 80.3777 73.484H76.6097C76.7657 72.44 77.5457 71.828 78.6017 71.828ZM83.1822 72.692V71.216H82.2462V72.692C82.2462 75.116 84.4902 75.848 86.3022 74.84V77H87.2502V71.216H86.3262V73.892C84.8742 74.948 83.1822 74.432 83.1822 72.692ZM92.9641 75.956C92.9641 77.012 93.4201 77.192 94.3801 77.036L94.3681 76.424C93.6601 76.52 93.6961 76.148 93.6961 75.512V73.1C93.7321 71.588 92.4721 71.084 91.1641 71.084C90.3961 71.084 89.6281 71.252 89.0641 71.54L89.2201 72.26C89.7121 71.972 90.3601 71.84 91.0201 71.84C91.8121 71.84 92.8441 72.104 92.8441 73.076V73.784C92.2681 73.46 91.5121 73.304 90.8521 73.304C89.6521 73.304 88.5721 73.988 88.6081 75.308C88.6441 76.472 89.6161 77.096 90.6841 77.096C91.5601 77.096 92.5441 76.76 92.9641 75.956ZM92.8321 75.044C92.6401 75.908 91.6081 76.292 90.8521 76.292C90.2041 76.292 89.5681 76.004 89.5321 75.272C89.4961 74.444 90.2401 74.024 91.0081 74.024C91.5961 74.024 92.3041 74.192 92.8321 74.492V75.044ZM97.7551 76.988V72.044H99.7951V71.216H94.8031V72.044H96.8431V76.988H97.7551ZM103.227 77C104.487 77 105.747 76.508 105.747 75.044C105.747 73.58 104.499 73.112 103.227 73.112H101.883V71.216H100.971C100.971 73.148 100.971 75.068 100.971 77H103.227ZM103.215 73.856C104.043 73.856 104.835 74.168 104.835 75.044C104.835 75.932 104.043 76.232 103.215 76.232H101.883V73.856H103.215Z" fill="#21293E"/>
<path d="M21.808 93.5V101H22.78V93.5H25.372V92.6H19.216V93.5H21.808ZM29.6918 96.872L29.5958 99.068V101H30.5078V95.204H30.1958L26.2598 99.272L26.3318 97.268V95.216H25.4198V101H25.6958L29.6918 96.872ZM32.3339 95.216V101H33.2819V96.056H36.4979V101H37.4339V95.216H32.3339ZM44.9837 98.096C44.9837 94.076 38.8877 94.076 38.8877 98.096C38.8877 102.116 44.9837 102.092 44.9837 98.096ZM39.8357 98.096C39.8357 95.156 44.0477 95.156 44.0477 98.096C44.0477 101.048 39.8357 101.048 39.8357 98.096ZM47.3675 101V96.08H50.3675V95.216H46.4315V101H47.3675ZM52.5609 96.176C52.5969 95.264 51.9729 95.048 51.0609 95.204L51.0729 95.9C51.8409 95.804 51.7569 96.404 51.7569 97.148V103.976H52.6929V100.472C54.7569 101.864 57.2889 100.652 57.2889 98.072C57.2889 96.416 56.3649 95.06 54.6729 95.06C53.8449 95.06 53.1009 95.3 52.5609 96.176ZM52.6689 97.832C52.7049 96.836 53.3889 95.912 54.4929 95.912C55.7889 95.912 56.3289 96.92 56.3289 98.072C56.3289 100.196 54.2409 100.844 52.6689 99.62V97.832ZM62.6359 99.956C62.6359 101.012 63.0919 101.192 64.0519 101.036L64.0399 100.424C63.3319 100.52 63.3679 100.148 63.3679 99.512V97.1C63.4039 95.588 62.1439 95.084 60.8359 95.084C60.0679 95.084 59.2999 95.252 58.7359 95.54L58.8919 96.26C59.3839 95.972 60.0319 95.84 60.6919 95.84C61.4839 95.84 62.5159 96.104 62.5159 97.076V97.784C61.9399 97.46 61.1839 97.304 60.5239 97.304C59.3239 97.304 58.2439 97.988 58.2799 99.308C58.3159 100.472 59.2879 101.096 60.3559 101.096C61.2319 101.096 62.2159 100.76 62.6359 99.956ZM62.5039 99.044C62.3119 99.908 61.2799 100.292 60.5239 100.292C59.8759 100.292 59.2399 100.004 59.2039 99.272C59.1679 98.444 59.9119 98.024 60.6799 98.024C61.2679 98.024 61.9759 98.192 62.5039 98.492V99.044ZM69.9673 103.94V100.46C72.0553 101.804 74.0473 100.748 74.0473 98.096C74.0473 95.432 72.0553 94.376 69.9673 95.696V92.264H69.0433V95.696C66.9433 94.376 64.9393 95.432 64.9393 98.096C64.9393 100.748 66.9433 101.804 69.0433 100.46V103.94H69.9673ZM73.1113 98.096C73.1113 100.088 71.4913 100.796 69.9553 99.596V96.572C71.4913 95.372 73.1113 96.008 73.1113 98.096ZM65.8873 98.096C65.8873 96.08 67.5193 95.372 69.0673 96.572V99.596C67.5193 100.796 65.8873 100.124 65.8873 98.096ZM79.8129 96.872L79.7169 99.068V101H80.6289V95.204H80.3169L76.3809 99.272L76.4529 97.268V95.216H75.5409V101H75.8169L79.8129 96.872ZM81.939 100.904V101H82.935L84.531 98.996H85.887V101C86.211 101 86.511 101 86.835 101V95.216C86.175 95.216 84.831 95.216 84.183 95.216C82.995 95.216 82.179 96.032 82.179 97.1C82.179 97.964 82.803 98.636 83.595 98.828L81.939 100.904ZM84.423 98.216C83.691 98.216 83.127 97.808 83.127 97.112C83.127 96.416 83.679 95.984 84.423 95.984H85.887V98.216H84.423Z" fill="#21293E"/>
<path d="M21.808 117.5V125H22.78V117.5H25.372V116.6H19.216V117.5H21.808ZM29.6918 120.872L29.5958 123.068V125H30.5078V119.204H30.1958L26.2598 123.272L26.3318 121.268V119.216H25.4198V125H25.6958L29.6918 120.872ZM32.3339 119.216V125H33.2819V120.056H36.4979V125H37.4339V119.216H32.3339ZM44.9837 122.096C44.9837 118.076 38.8877 118.076 38.8877 122.096C38.8877 126.116 44.9837 126.092 44.9837 122.096ZM39.8357 122.096C39.8357 119.156 44.0477 119.156 44.0477 122.096C44.0477 125.048 39.8357 125.048 39.8357 122.096ZM47.3675 125V120.08H50.3675V119.216H46.4315V125H47.3675ZM52.5609 120.176C52.5969 119.264 51.9729 119.048 51.0609 119.204L51.0729 119.9C51.8409 119.804 51.7569 120.404 51.7569 121.148V127.976H52.6929V124.472C54.7569 125.864 57.2889 124.652 57.2889 122.072C57.2889 120.416 56.3649 119.06 54.6729 119.06C53.8449 119.06 53.1009 119.3 52.5609 120.176ZM52.6689 121.832C52.7049 120.836 53.3889 119.912 54.4929 119.912C55.7889 119.912 56.3289 120.92 56.3289 122.072C56.3289 124.196 54.2409 124.844 52.6689 123.62V121.832ZM62.6359 123.956C62.6359 125.012 63.0919 125.192 64.0519 125.036L64.0399 124.424C63.3319 124.52 63.3679 124.148 63.3679 123.512V121.1C63.4039 119.588 62.1439 119.084 60.8359 119.084C60.0679 119.084 59.2999 119.252 58.7359 119.54L58.8919 120.26C59.3839 119.972 60.0319 119.84 60.6919 119.84C61.4839 119.84 62.5159 120.104 62.5159 121.076V121.784C61.9399 121.46 61.1839 121.304 60.5239 121.304C59.3239 121.304 58.2439 121.988 58.2799 123.308C58.3159 124.472 59.2879 125.096 60.3559 125.096C61.2319 125.096 62.2159 124.76 62.6359 123.956ZM62.5039 123.044C62.3119 123.908 61.2799 124.292 60.5239 124.292C59.8759 124.292 59.2399 124.004 59.2039 123.272C59.1679 122.444 59.9119 122.024 60.6799 122.024C61.2679 122.024 61.9759 122.192 62.5039 122.492V123.044ZM69.9673 127.94V124.46C72.0553 125.804 74.0473 124.748 74.0473 122.096C74.0473 119.432 72.0553 118.376 69.9673 119.696V116.264H69.0433V119.696C66.9433 118.376 64.9393 119.432 64.9393 122.096C64.9393 124.748 66.9433 125.804 69.0433 124.46V127.94H69.9673ZM73.1113 122.096C73.1113 124.088 71.4913 124.796 69.9553 123.596V120.572C71.4913 119.372 73.1113 120.008 73.1113 122.096ZM65.8873 122.096C65.8873 120.08 67.5193 119.372 69.0673 120.572V123.596C67.5193 124.796 65.8873 124.124 65.8873 122.096ZM79.8129 120.872L79.7169 123.068V125H80.6289V119.204H80.3169L76.3809 123.272L76.4529 121.268V119.216H75.5409V125H75.8169L79.8129 120.872ZM81.939 124.904V125H82.935L84.531 122.996H85.887V125C86.211 125 86.511 125 86.835 125V119.216C86.175 119.216 84.831 119.216 84.183 119.216C82.995 119.216 82.179 120.032 82.179 121.1C82.179 121.964 82.803 122.636 83.595 122.828L81.939 124.904ZM84.423 122.216C83.691 122.216 83.127 121.808 83.127 121.112C83.127 120.416 83.679 119.984 84.423 119.984H85.887V122.216H84.423ZM99.9677 120.8C99.9677 118.136 98.0597 116.456 95.7077 116.456C93.3557 116.456 91.4477 118.112 91.4477 120.8C91.4477 123.476 93.3317 125.132 95.6957 125.132C98.2277 125.132 99.9677 123.344 99.9677 120.8ZM92.4557 120.8C92.4557 118.736 93.8837 117.368 95.7077 117.368C97.5677 117.368 98.9597 118.76 98.9597 120.8C98.9597 122.84 97.5437 124.208 95.6957 124.208C93.8597 124.208 92.4557 122.84 92.4557 120.8ZM102.495 120.176C102.531 119.264 101.907 119.048 100.995 119.204L101.007 119.9C101.775 119.804 101.691 120.404 101.691 121.148V127.976H102.627V124.472C104.691 125.864 107.223 124.652 107.223 122.072C107.223 120.416 106.299 119.06 104.607 119.06C103.779 119.06 103.035 119.3 102.495 120.176ZM102.603 121.832C102.639 120.836 103.323 119.912 104.427 119.912C105.723 119.912 106.263 120.92 106.263 122.072C106.263 124.196 104.175 124.844 102.603 123.62V121.832ZM111.274 119.084C109.69 119.084 108.37 120.128 108.31 121.952C108.25 123.92 109.606 125.132 111.526 125.132C112.234 125.132 112.966 124.964 113.65 124.64L113.506 123.932C112.834 124.208 112.21 124.352 111.55 124.352C110.242 124.352 109.186 123.536 109.246 122.204H113.842C114.166 120.296 113.242 119.096 111.274 119.084ZM111.274 119.828C112.306 119.828 113.11 120.392 113.05 121.484H109.282C109.438 120.44 110.218 119.828 111.274 119.828ZM119.574 120.056V125H120.498V119.216C119.118 119.216 117.762 119.216 116.382 119.216L115.938 123.044C115.83 123.956 115.71 124.46 114.642 124.292L114.618 125C116.286 125.24 116.694 124.688 116.85 123.092L117.186 120.056H119.574Z" fill="#21293E"/>
<path d="M21.808 141.5V149H22.78V141.5H25.372V140.6H19.216V141.5H21.808ZM29.6918 144.872L29.5958 147.068V149H30.5078V143.204H30.1958L26.2598 147.272L26.3318 145.268V143.216H25.4198V149H25.6958L29.6918 144.872ZM32.3339 143.216V149H33.2819V144.056H36.4979V149H37.4339V143.216H32.3339ZM44.9837 146.096C44.9837 142.076 38.8877 142.076 38.8877 146.096C38.8877 150.116 44.9837 150.092 44.9837 146.096ZM39.8357 146.096C39.8357 143.156 44.0477 143.156 44.0477 146.096C44.0477 149.048 39.8357 149.048 39.8357 146.096ZM47.3675 149V144.08H50.3675V143.216H46.4315V149H47.3675ZM52.5609 144.176C52.5969 143.264 51.9729 143.048 51.0609 143.204L51.0729 143.9C51.8409 143.804 51.7569 144.404 51.7569 145.148V151.976H52.6929V148.472C54.7569 149.864 57.2889 148.652 57.2889 146.072C57.2889 144.416 56.3649 143.06 54.6729 143.06C53.8449 143.06 53.1009 143.3 52.5609 144.176ZM52.6689 145.832C52.7049 144.836 53.3889 143.912 54.4929 143.912C55.7889 143.912 56.3289 144.92 56.3289 146.072C56.3289 148.196 54.2409 148.844 52.6689 147.62V145.832ZM62.6359 147.956C62.6359 149.012 63.0919 149.192 64.0519 149.036L64.0399 148.424C63.3319 148.52 63.3679 148.148 63.3679 147.512V145.1C63.4039 143.588 62.1439 143.084 60.8359 143.084C60.0679 143.084 59.2999 143.252 58.7359 143.54L58.8919 144.26C59.3839 143.972 60.0319 143.84 60.6919 143.84C61.4839 143.84 62.5159 144.104 62.5159 145.076V145.784C61.9399 145.46 61.1839 145.304 60.5239 145.304C59.3239 145.304 58.2439 145.988 58.2799 147.308C58.3159 148.472 59.2879 149.096 60.3559 149.096C61.2319 149.096 62.2159 148.76 62.6359 147.956ZM62.5039 147.044C62.3119 147.908 61.2799 148.292 60.5239 148.292C59.8759 148.292 59.2399 148.004 59.2039 147.272C59.1679 146.444 59.9119 146.024 60.6799 146.024C61.2679 146.024 61.9759 146.192 62.5039 146.492V147.044ZM69.9673 151.94V148.46C72.0553 149.804 74.0473 148.748 74.0473 146.096C74.0473 143.432 72.0553 142.376 69.9673 143.696V140.264H69.0433V143.696C66.9433 142.376 64.9393 143.432 64.9393 146.096C64.9393 148.748 66.9433 149.804 69.0433 148.46V151.94H69.9673ZM73.1113 146.096C73.1113 148.088 71.4913 148.796 69.9553 147.596V144.572C71.4913 143.372 73.1113 144.008 73.1113 146.096ZM65.8873 146.096C65.8873 144.08 67.5193 143.372 69.0673 144.572V147.596C67.5193 148.796 65.8873 148.124 65.8873 146.096ZM79.8129 144.872L79.7169 147.068V149H80.6289V143.204H80.3169L76.3809 147.272L76.4529 145.268V143.216H75.5409V149H75.8169L79.8129 144.872ZM81.939 148.904V149H82.935L84.531 146.996H85.887V149C86.211 149 86.511 149 86.835 149V143.216C86.175 143.216 84.831 143.216 84.183 143.216C82.995 143.216 82.179 144.032 82.179 145.1C82.179 145.964 82.803 146.636 83.595 146.828L81.939 148.904ZM84.423 146.216C83.691 146.216 83.127 145.808 83.127 145.112C83.127 144.416 83.679 143.984 84.423 143.984H85.887V146.216H84.423ZM97.4837 146.096C97.4837 142.076 91.3877 142.076 91.3877 146.096C91.3877 150.116 97.4837 150.092 97.4837 146.096ZM92.3357 146.096C92.3357 143.156 96.5477 143.156 96.5477 146.096C96.5477 149.048 92.3357 149.048 92.3357 146.096ZM103.624 151.94V148.46C105.712 149.804 107.704 148.748 107.704 146.096C107.704 143.432 105.712 142.376 103.624 143.696V140.264H102.7V143.696C100.6 142.376 98.5955 143.432 98.5955 146.096C98.5955 148.748 100.6 149.804 102.7 148.46V151.94H103.624ZM106.768 146.096C106.768 148.088 105.148 148.796 103.612 147.596V144.572C105.148 143.372 106.768 144.008 106.768 146.096ZM99.5435 146.096C99.5435 144.08 101.176 143.372 102.724 144.572V147.596C101.176 148.796 99.5435 148.124 99.5435 146.096ZM113.469 144.872L113.373 147.068V149H114.285V143.204H113.973L110.037 147.272L110.109 145.268V143.216H109.197V149H109.473L113.469 144.872ZM120.755 149V150.404H121.547L121.595 148.244H120.827V143.216H119.927V148.16H117.023V143.216H116.111V149H120.755ZM127.204 144.872L127.108 147.068V149H128.02V143.204H127.708L123.772 147.272L123.844 145.268V143.216H122.932V149H123.208L127.204 144.872ZM133.734 147.956C133.734 149.012 134.19 149.192 135.15 149.036L135.138 148.424C134.43 148.52 134.466 148.148 134.466 147.512V145.1C134.502 143.588 133.242 143.084 131.934 143.084C131.166 143.084 130.398 143.252 129.834 143.54L129.99 144.26C130.482 143.972 131.13 143.84 131.79 143.84C132.582 143.84 133.614 144.104 133.614 145.076V145.784C133.038 145.46 132.282 145.304 131.622 145.304C130.422 145.304 129.342 145.988 129.378 147.308C129.414 148.472 130.386 149.096 131.454 149.096C132.33 149.096 133.314 148.76 133.734 147.956ZM133.602 147.044C133.41 147.908 132.378 148.292 131.622 148.292C130.974 148.292 130.338 148.004 130.302 147.272C130.266 146.444 131.01 146.024 131.778 146.024C132.366 146.024 133.074 146.192 133.602 146.492V147.044ZM140.621 144.056V149H141.545V143.216C140.165 143.216 138.809 143.216 137.429 143.216L136.985 147.044C136.877 147.956 136.757 148.46 135.689 148.292L135.665 149C137.333 149.24 137.741 148.688 137.897 147.092L138.233 144.056H140.621ZM145.625 149C146.885 149 148.145 148.508 148.145 147.044C148.145 145.58 146.897 145.112 145.625 145.112H144.281V143.216H143.369C143.369 145.148 143.369 147.068 143.369 149H145.625ZM145.613 145.856C146.441 145.856 147.233 146.168 147.233 147.044C147.233 147.932 146.441 148.232 145.613 148.232H144.281V145.856H145.613ZM153.628 143.216V145.604H150.352V143.216H149.428V149H150.352V146.42H153.628V149H154.54V143.216H153.628ZM158.621 149C159.881 149 161.141 148.508 161.141 147.044C161.141 145.58 159.893 145.112 158.621 145.112H157.277V143.216H156.365V149H158.621ZM158.609 145.844C159.413 145.844 160.229 146.168 160.229 147.044C160.229 147.932 159.437 148.268 158.609 148.268H157.277V145.844H158.609ZM162.293 149H163.181V143.216H162.293V149ZM165.962 140.828C166.07 141.788 166.814 142.376 167.726 142.376C168.686 142.376 169.382 141.764 169.49 140.828C169.298 140.804 169.046 140.768 168.854 140.756C168.746 141.344 168.278 141.644 167.714 141.644C167.102 141.632 166.694 141.32 166.61 140.756L165.962 140.828ZM165.278 149H165.002V143.216H165.914V145.268L165.842 147.272L169.778 143.204H170.09V149H169.178V147.068L169.274 144.872L165.278 149Z" fill="#21293E"/>
<path d="M21.816 11.8H20.488V23H21.816V18.04C22.44 18.04 23.688 18.008 24.28 17.832L27.832 23H29.352V22.808L25.448 17.288C26.232 16.6 26.616 15.432 26.952 14.28C27.288 13.112 27.784 12.568 29.048 12.712V11.816C26.952 11.432 26.2 12.408 25.768 13.896C25.48 14.952 25.064 16.184 24.36 16.6C23.864 16.904 22.888 16.92 21.816 16.92V11.8ZM36.5363 16.408V23H37.7683V15.288C35.9283 15.288 34.1203 15.288 32.2803 15.288L31.6883 20.392C31.5443 21.608 31.3843 22.28 29.9603 22.056L29.9283 23C32.1523 23.32 32.6963 22.584 32.9043 20.456L33.3523 16.408H36.5363ZM51.1124 19.144C51.1124 16.488 49.1284 15.128 47.0964 15.128C45.2244 15.112 43.3684 16.232 43.0644 18.472H41.4164V15.288H40.2004V23H41.4164V19.576H43.0164C43.2084 21.976 45.1444 23.176 47.0644 23.16C49.0964 23.144 51.1124 21.816 51.1124 19.144ZM44.2324 19.144C44.2324 17.192 45.6564 16.232 47.0804 16.248C48.4724 16.264 49.8484 17.24 49.8484 19.144C49.8484 21.064 48.4724 22.04 47.0804 22.04C45.6564 22.056 44.2324 21.08 44.2324 19.144ZM53.7481 17.256V15.288H52.5001V17.256C52.5001 20.488 55.4921 21.464 57.9081 20.12V23H59.1721V15.288H57.9401V18.856C56.0041 20.264 53.7481 19.576 53.7481 17.256ZM65.0626 15.112C62.9506 15.112 61.1906 16.504 61.1106 18.936C61.0306 21.56 62.8386 23.176 65.3986 23.176C66.3426 23.176 67.3186 22.952 68.2306 22.52L68.0386 21.576C67.1426 21.944 66.3106 22.136 65.4306 22.136C63.6866 22.136 62.2786 21.048 62.3586 19.272H68.4866C68.9186 16.728 67.6866 15.128 65.0626 15.112ZM65.0626 16.104C66.4386 16.104 67.5106 16.856 67.4306 18.312H62.4066C62.6146 16.92 63.6546 16.104 65.0626 16.104ZM76.53 17.288C76.53 15.432 74.674 15.272 73.282 15.272H70.466C70.466 17.88 70.466 20.456 70.466 23.016H73.634C75.154 23.016 76.978 22.808 76.978 20.856C76.978 19.88 76.37 19.128 75.378 18.888C76.178 18.664 76.53 17.976 76.53 17.288ZM71.682 21.976V19.448H73.394C74.37 19.448 75.746 19.544 75.746 20.76C75.746 22.008 74.466 21.976 73.522 21.976H71.682ZM71.682 18.488V16.248H73.346C74.194 16.248 75.298 16.328 75.298 17.384C75.298 18.44 74.194 18.488 73.346 18.488H71.682ZM81.9115 23C83.5915 23 85.2715 22.344 85.2715 20.392C85.2715 18.44 83.6075 17.816 81.9115 17.816H80.1195V15.288H78.9035V23H81.9115ZM81.8955 18.792C82.9675 18.792 84.0555 19.224 84.0555 20.392C84.0555 21.576 82.9995 22.024 81.8955 22.024H80.1195V18.792H81.8955ZM86.8075 23H87.9915V15.288H86.8075V23ZM93.8751 15.112C91.7631 15.112 90.0031 16.504 89.9231 18.936C89.8431 21.56 91.6511 23.176 94.2111 23.176C95.1551 23.176 96.1311 22.952 97.0431 22.52L96.8511 21.576C95.9551 21.944 95.1231 22.136 94.2431 22.136C92.4991 22.136 91.0911 21.048 91.1711 19.272H97.2991C97.7311 16.728 96.4991 15.128 93.8751 15.112ZM93.8751 16.104C95.2511 16.104 96.3231 16.856 96.2431 18.312H91.2191C91.4271 16.92 92.4671 16.104 93.8751 16.104ZM110.571 17.64C110.091 15.96 108.571 15.112 107.003 15.096C104.987 15.08 102.907 16.424 102.907 19.112C102.907 21.768 104.955 23.128 106.971 23.128C108.587 23.128 110.187 22.232 110.651 20.408H109.435C109.019 21.496 108.011 22.024 106.987 22.024C105.595 22.024 104.171 21.016 104.171 19.112C104.171 17.192 105.643 16.216 107.051 16.216C108.027 16.216 108.955 16.68 109.371 17.64H110.571ZM118.005 16.408V23H119.237V15.288C117.397 15.288 115.589 15.288 113.749 15.288L113.157 20.392C113.013 21.608 112.853 22.28 111.429 22.056L111.397 23C113.621 23.32 114.165 22.584 114.373 20.456L114.821 16.408H118.005ZM129.301 19.128C129.301 13.768 121.173 13.768 121.173 19.128C121.173 24.488 129.301 24.456 129.301 19.128ZM122.437 19.128C122.437 15.208 128.053 15.208 128.053 19.128C128.053 23.064 122.437 23.064 122.437 19.128ZM137.296 17.288C137.296 15.432 135.44 15.272 134.048 15.272H131.232C131.232 17.88 131.232 20.456 131.232 23.016H134.4C135.92 23.016 137.744 22.808 137.744 20.856C137.744 19.88 137.136 19.128 136.144 18.888C136.944 18.664 137.296 17.976 137.296 17.288ZM132.448 21.976V19.448H134.16C135.136 19.448 136.512 19.544 136.512 20.76C136.512 22.008 135.232 21.976 134.288 21.976H132.448ZM132.448 18.488V16.248H134.112C134.96 16.248 136.064 16.328 136.064 17.384C136.064 18.44 134.96 18.488 134.112 18.488H132.448ZM144.853 21.608C144.853 23.016 145.461 23.256 146.741 23.048L146.725 22.232C145.781 22.36 145.829 21.864 145.829 21.016V17.8C145.877 15.784 144.197 15.112 142.453 15.112C141.429 15.112 140.405 15.336 139.653 15.72L139.861 16.68C140.517 16.296 141.381 16.12 142.261 16.12C143.317 16.12 144.693 16.472 144.693 17.768V18.712C143.925 18.28 142.917 18.072 142.037 18.072C140.437 18.072 138.997 18.984 139.045 20.744C139.093 22.296 140.389 23.128 141.813 23.128C142.981 23.128 144.293 22.68 144.853 21.608ZM144.677 20.392C144.421 21.544 143.045 22.056 142.037 22.056C141.173 22.056 140.325 21.672 140.277 20.696C140.229 19.592 141.221 19.032 142.245 19.032C143.029 19.032 143.973 19.256 144.677 19.656V20.392Z" fill="white"/>
<path d="M281.656 22V10.816H280.328V16.56C276.856 17.088 275.032 16.192 275.032 12.464V10.816H273.688V12.464C273.688 17.104 276.136 18.416 280.328 17.808V22H281.656ZM289.431 20.608C289.431 22.016 290.039 22.256 291.319 22.048L291.303 21.232C290.359 21.36 290.407 20.864 290.407 20.016V16.8C290.455 14.784 288.775 14.112 287.031 14.112C286.007 14.112 284.983 14.336 284.231 14.72L284.439 15.68C285.095 15.296 285.959 15.12 286.839 15.12C287.895 15.12 289.271 15.472 289.271 16.768V17.712C288.503 17.28 287.495 17.072 286.615 17.072C285.015 17.072 283.575 17.984 283.623 19.744C283.671 21.296 284.967 22.128 286.391 22.128C287.559 22.128 288.871 21.68 289.431 20.608ZM289.255 19.392C288.999 20.544 287.623 21.056 286.615 21.056C285.751 21.056 284.903 20.672 284.855 19.696C284.807 18.592 285.799 18.032 286.823 18.032C287.607 18.032 288.551 18.256 289.255 18.656V19.392ZM300.102 16.64C299.622 14.96 298.102 14.112 296.534 14.096C294.518 14.08 292.438 15.424 292.438 18.112C292.438 20.768 294.486 22.128 296.502 22.128C298.118 22.128 299.718 21.232 300.182 19.408H298.966C298.55 20.496 297.542 21.024 296.518 21.024C295.126 21.024 293.702 20.016 293.702 18.112C293.702 16.192 295.174 15.216 296.582 15.216C297.558 15.216 298.486 15.68 298.902 16.64H300.102ZM305.085 21.984V15.392H307.805V14.288H301.149V15.392H303.869V21.984H305.085ZM316.817 18.128C316.817 12.768 308.689 12.768 308.689 18.128C308.689 23.488 316.817 23.456 316.817 18.128ZM309.953 18.128C309.953 14.208 315.569 14.208 315.569 18.128C315.569 22.064 309.953 22.064 309.953 18.128ZM321.632 21.984V15.392H324.352V14.288H317.696V15.392H320.416V21.984H321.632ZM331.519 14.288V17.472H327.151V14.288H325.919V22H327.151V18.56H331.519V22H332.735V14.288H331.519ZM342.801 18.128C342.801 12.768 334.673 12.768 334.673 18.128C334.673 23.488 342.801 23.456 342.801 18.128ZM335.937 18.128C335.937 14.208 341.553 14.208 341.553 18.128C341.553 22.064 335.937 22.064 335.937 18.128ZM351.884 16.64C351.404 14.96 349.884 14.112 348.316 14.096C346.3 14.08 344.22 15.424 344.22 18.112C344.22 20.768 346.268 22.128 348.284 22.128C349.9 22.128 351.5 21.232 351.964 19.408H350.748C350.332 20.496 349.324 21.024 348.3 21.024C346.908 21.024 345.484 20.016 345.484 18.112C345.484 16.192 346.956 15.216 348.364 15.216C349.34 15.216 350.268 15.68 350.684 16.64H351.884ZM356.866 21.984V15.392H359.586V14.288H352.93V15.392H355.65V21.984H356.866ZM364.161 22C365.842 22 367.522 21.344 367.522 19.392C367.522 17.44 365.858 16.816 364.161 16.816H362.37V14.288H361.154C361.154 16.864 361.154 19.424 361.154 22H364.161ZM364.146 17.808C365.25 17.808 366.306 18.224 366.306 19.392C366.306 20.576 365.25 20.976 364.146 20.976H362.37V17.808H364.146Z" fill="white"/>
<line x1="416" y1="60.5" y2="60.5" stroke="url(#paint0_linear)"/>
<line x1="416" y1="85.5" y2="85.5" stroke="url(#paint1_linear)"/>
<line x1="416" y1="109.5" y2="109.5" stroke="url(#paint2_linear)"/>
<line x1="416" y1="134.5" y2="134.5" stroke="url(#paint3_linear)"/>
<line x1="416" y1="158.5" y2="158.5" stroke="url(#paint4_linear)"/>
<line x1="253.5" y1="2.18557e-08" x2="253.5" y2="134" stroke="url(#paint5_linear)"/>
<defs>
<linearGradient id="paint0_linear" x1="416" y1="60" x2="-27.4331" y2="60.0022" gradientUnits="userSpaceOnUse">
<stop stop-color="#9A9A9A"/>
<stop offset="1" stop-color="white" stop-opacity="0"/>
</linearGradient>
<linearGradient id="paint1_linear" x1="422.551" y1="84.9996" x2="2.45616" y2="84.3311" gradientUnits="userSpaceOnUse">
<stop stop-color="#9A9A9A"/>
<stop offset="1" stop-color="white" stop-opacity="0"/>
</linearGradient>
<linearGradient id="paint2_linear" x1="472.147" y1="109" x2="91.8773" y2="109.002" gradientUnits="userSpaceOnUse">
<stop stop-color="#9A9A9A"/>
<stop offset="1" stop-color="white" stop-opacity="0"/>
</linearGradient>
<linearGradient id="paint3_linear" x1="556.85" y1="134" x2="91.8773" y2="134.002" gradientUnits="userSpaceOnUse">
<stop stop-color="#9A9A9A"/>
<stop offset="1" stop-color="white" stop-opacity="0"/>
</linearGradient>
<linearGradient id="paint4_linear" x1="556.85" y1="158" x2="91.8773" y2="158.002" gradientUnits="userSpaceOnUse">
<stop stop-color="#9A9A9A"/>
<stop offset="1" stop-color="white" stop-opacity="0"/>
</linearGradient>
<linearGradient id="paint5_linear" x1="253" y1="-18.0859" x2="264" y2="195.5" gradientUnits="userSpaceOnUse">
<stop stop-color="#9A9A9A"/>
<stop offset="1" stop-color="white" stop-opacity="0"/>
</linearGradient>
</defs>
</svg>
