<svg width="24" height="24" viewBox="0 0 24 24" fill="none" xmlns="http://www.w3.org/2000/svg">
<g clip-path="url(#clip0)">
<path d="M12 24C18.6274 24 24 18.6274 24 12C24 5.37258 18.6274 0 12 0C5.37258 0 0 5.37258 0 12C0 18.6274 5.37258 24 12 24Z" fill="#FFD93B"/>
<path d="M12 19.7132C8.49073 19.7132 5.43298 17.3365 4.56448 13.9345C4.49623 13.6667 4.65748 13.3945 4.92523 13.3262C5.19148 13.2565 5.46448 13.4192 5.53273 13.687C6.28873 16.6465 8.94748 18.7135 11.9992 18.7135C15.051 18.7135 17.7105 16.6465 18.4657 13.687C18.5332 13.4192 18.8055 13.2565 19.074 13.3262C19.3417 13.3945 19.503 13.6667 19.4347 13.9345C18.567 17.3365 15.5092 19.7132 12 19.7132Z" fill="#3E4347"/>
<path d="M24 11.9997C24 18.6297 18.6263 23.9997 12 23.9997C8.2275 23.9997 4.86 22.2597 2.65875 19.5334C4.7175 21.1984 7.33875 22.1922 10.1925 22.1922C16.8188 22.1922 22.1925 16.8222 22.1925 10.1922C22.1925 7.33845 21.1988 4.7172 19.5338 2.65845C22.2563 4.8597 24 8.22719 24 11.9997Z" fill="#F4C534"/>
<path d="M8.12477 12.5124C9.14042 12.5124 9.96377 11.5339 9.96377 10.3269C9.96377 9.11984 9.14042 8.14136 8.12477 8.14136C7.10912 8.14136 6.28577 9.11984 6.28577 10.3269C6.28577 11.5339 7.10912 12.5124 8.12477 12.5124Z" fill="#3E4347"/>
<path d="M8.9543 9.85663C8.81105 9.96913 8.57555 9.91363 8.4248 9.73063C8.27405 9.54763 8.26655 9.30238 8.4098 9.18988C8.5523 9.07213 8.78855 9.12763 8.93855 9.31063C9.09005 9.49888 9.09155 9.73963 8.9543 9.85663Z" fill="#5A5F63"/>
<path d="M15.8774 12.5124C16.8931 12.5124 17.7164 11.5339 17.7164 10.3269C17.7164 9.11984 16.8931 8.14136 15.8774 8.14136C14.8618 8.14136 14.0385 9.11984 14.0385 10.3269C14.0385 11.5339 14.8618 12.5124 15.8774 12.5124Z" fill="#3E4347"/>
<path d="M16.7055 9.85663C16.5622 9.96913 16.3267 9.91363 16.176 9.73063C16.0252 9.54763 16.0177 9.30238 16.161 9.18988C16.3035 9.07213 16.539 9.12763 16.6897 9.31063C16.8412 9.49888 16.8427 9.73963 16.7055 9.85663Z" fill="#5A5F63"/>
</g>
<defs>
<clipPath id="clip0">
<rect width="24" height="24" fill="white"/>
</clipPath>
</defs>
</svg>
