<svg width="32" height="60" viewBox="0 0 32 60" fill="none" xmlns="http://www.w3.org/2000/svg">
<path d="M19.2151 23.7072C24.7448 23.7072 29.9368 20.2627 31.885 14.7603C32.1349 14.0542 31.7652 13.2792 31.0591 13.0293C27.6958 11.8384 24.0717 12.0226 20.847 13.545C21.6644 12.4733 22.5607 11.4428 23.5395 10.4642C24.0691 9.9346 24.0691 9.0757 23.5395 8.5463C23.0097 8.0167 22.151 8.0167 21.6214 8.5463C20.9225 9.2452 20.2638 9.9692 19.6404 10.7131C19.4919 6.6845 17.5459 2.7644 14.0151 0.251803C13.4047 -0.182497 12.5579 -0.0396973 12.1238 0.570403C10.0443 3.4927 9.22718 7.0497 9.82306 10.5864C10.3746 13.8595 12.0767 16.7504 14.643 18.8119C14.1972 19.8445 13.8078 20.8956 13.4718 21.9604C13.2058 21.3655 12.8952 20.7855 12.5401 20.2251C10.6192 17.1962 7.63397 15.0965 4.13419 14.3128C3.78359 14.2342 3.41527 14.2983 3.11159 14.4909C2.80774 14.6836 2.59315 14.989 2.5144 15.34C0.952852 22.3133 5.14908 29.2564 11.9393 31.1859C11.9051 32.6236 11.9658 34.0626 12.1173 35.4939C11.8028 35.2143 11.4746 34.9469 11.1312 34.6944C8.24133 32.5703 4.69807 31.6988 1.1517 32.2399C0.411117 32.3529 -0.0973124 33.0448 0.0157267 33.7852C0.556969 37.3307 2.44664 40.4532 5.3366 42.5773C7.66678 44.2901 10.422 45.1885 13.2606 45.1885C13.7149 45.1885 14.1715 45.1632 14.6286 45.117C15.1831 46.4057 15.8228 47.6663 16.5483 48.8899C12.3524 47.5446 7.57868 48.2801 3.9232 51.2736C3.3439 51.7482 3.25859 52.6027 3.73322 53.1823C6.00549 55.9571 9.22242 57.681 12.7914 58.0364C13.245 58.0817 13.6969 58.1038 14.1466 58.1038C16.9164 58.1038 19.5888 57.2524 21.8581 55.6475C23.3848 57.1441 25.0515 58.4953 26.8196 59.6628C27.0496 59.8147 27.3091 59.8874 27.5657 59.8874C28.0061 59.8874 28.4379 59.6731 28.6987 59.2784C29.1114 58.6533 28.9392 57.812 28.3143 57.3992C26.6069 56.2719 25.0004 54.9594 23.5395 53.4986C20.2722 50.2313 17.9067 46.3991 16.439 42.3141C22.8791 39.832 26.4619 32.7649 24.4907 26.0232C24.2805 25.3045 23.5276 24.8922 22.8084 25.102C19.3659 26.1085 16.5215 28.3956 14.799 31.5415C14.7442 31.6415 14.6947 31.7433 14.6427 31.8443C14.6555 28.959 15.0742 26.0752 15.9004 23.2872C17.0032 23.5702 18.1156 23.7072 19.2151 23.7072ZM11.879 28.316C7.38738 26.6475 4.53319 22.1464 4.93941 17.372C7.1262 18.181 8.97928 19.6745 10.2491 21.6772C11.5189 23.6799 12.08 25.9932 11.879 28.316ZM6.9431 40.3918C5.03243 38.9873 3.66956 37.0359 3.01282 34.7989C3.07041 34.7981 3.12783 34.7975 3.18542 34.7975C7.90631 34.7975 12.1146 37.9335 13.4544 42.4739C11.1229 42.5127 8.85377 41.7964 6.9431 40.3918ZM13.0603 55.3373C10.7006 55.1023 8.53385 54.1176 6.82875 52.5274C10.9116 50.0198 16.2151 50.5476 19.7237 53.8113C17.7385 55.0339 15.4197 55.5719 13.0603 55.3373ZM17.1781 32.844C18.317 30.764 20.0705 29.1547 22.2007 28.2069C22.9124 32.9452 20.3529 37.6203 15.9775 39.5735C15.6282 37.2684 16.0395 34.9239 17.1781 32.844ZM21.964 16.0156C24.1045 14.9945 26.4683 14.7149 28.7503 15.1923C26.5559 19.4519 21.7461 21.7471 17.0541 20.7719C18.1192 18.6977 19.8238 17.0369 21.964 16.0156ZM12.4976 10.1356C12.1035 7.797 12.4836 5.4475 13.5695 3.3842C17.0626 6.6639 17.9482 11.9196 15.7225 16.1629C14.0206 14.5694 12.8915 12.474 12.4976 10.1356Z" fill="#B5B9D6"/>
</svg>
