<svg width="33" height="60" viewBox="0 0 33 60" fill="none" xmlns="http://www.w3.org/2000/svg">
<path d="M19.6654 45.1885C22.5039 45.1885 25.2596 44.2899 27.5895 42.5773C30.4793 40.453 32.3693 37.3307 32.9103 33.785C33.0234 33.0446 32.5146 32.3529 31.7744 32.2397C27.6626 31.6118 23.6945 32.9296 20.8079 35.5027C20.9599 34.0683 21.0211 32.6262 20.9868 31.1856C24.1645 30.2849 26.8658 28.2756 28.6486 25.4639C30.5693 22.435 31.1954 18.8394 30.4118 15.3396C30.2484 14.6085 29.5231 14.1492 28.7922 14.3124C25.2924 15.096 22.307 17.1958 20.3865 20.2247C20.0311 20.7852 19.7207 21.3653 19.4546 21.9602C19.1187 20.8954 18.7291 19.8443 18.2833 18.8115C23.7735 14.3957 24.94 6.38393 20.8027 0.570033C20.5942 0.276933 20.2778 0.0787323 19.9231 0.0191323C19.5681 -0.0412677 19.2046 0.042733 18.9114 0.251433C15.9891 2.33093 14.0517 5.42403 13.4556 8.96093C13.3577 9.54283 13.3016 10.125 13.2793 10.7052C12.6578 9.96393 12.0012 9.24253 11.3046 8.54613C10.775 8.01653 9.91633 8.01633 9.38663 8.54613C8.85703 9.07573 8.85703 9.93463 9.38663 10.464C10.3654 11.4428 11.2616 12.4731 12.0788 13.5448C8.85453 12.0226 5.23023 11.838 1.86713 13.0291C1.16103 13.279 0.791328 14.054 1.04123 14.7601C2.98943 20.263 8.18073 23.707 13.7111 23.707C14.81 23.707 15.9226 23.5701 17.0256 23.2871C17.8532 26.0793 18.2717 28.9678 18.2835 31.8576C16.6575 28.6948 13.7925 26.1764 10.118 25.102C9.39893 24.8916 8.64603 25.3043 8.43573 26.0232C7.42903 29.4657 7.82303 33.0941 9.54553 36.24C11.0861 39.0537 13.5259 41.1773 16.4867 42.3152C15.0188 46.3999 12.6534 50.2316 9.38663 53.4987C7.92623 54.9594 6.31943 56.2716 4.61173 57.3993C3.98683 57.8121 3.81453 58.6534 4.22733 59.2785C4.48803 59.6734 4.92013 59.8875 5.36033 59.8875C5.61693 59.8875 5.87643 59.8148 6.10653 59.6629C7.87543 58.4949 9.54213 57.1437 11.0687 55.647C13.3976 57.2912 16.1016 58.0969 18.7924 58.0969C22.6823 58.0969 26.5421 56.4197 29.1933 53.1824C29.4212 52.9042 29.5292 52.5467 29.4936 52.1887C29.458 51.8309 29.2816 51.5018 29.0033 51.2737C26.2284 49.0015 22.7345 47.9462 19.1658 48.3011C18.2093 48.3964 17.2796 48.5929 16.3851 48.8784C17.1077 47.6586 17.7452 46.4019 18.2979 45.1171C18.7545 45.1634 19.211 45.1885 19.6654 45.1885ZM27.988 17.373C28.1886 19.6958 27.6279 22.0089 26.358 24.0116C25.088 26.0143 23.2349 27.5078 21.0483 28.3168C20.6421 23.5426 23.4963 19.0413 27.988 17.373ZM29.9123 34.7987C28.5558 39.394 24.261 42.5459 19.4723 42.4729C20.8288 37.8777 25.1208 34.7198 29.9123 34.7987ZM4.17593 15.1923C6.45793 14.7147 8.82143 14.9946 10.9617 16.0155C13.1021 17.0365 14.8069 18.6976 15.8718 20.7717C11.1786 21.7459 6.37013 19.4518 4.17593 15.1923ZM17.2027 16.1627C16.1166 14.0995 15.7366 11.7499 16.1307 9.41143C16.5248 7.07303 17.6537 4.97763 19.3557 3.38403C21.5813 7.62723 20.6957 12.8831 17.2027 16.1627ZM19.4341 50.9999C21.7948 50.765 24.1123 51.3031 26.0975 52.526C22.589 55.7892 17.2852 56.3173 13.2025 53.81C14.9076 52.2195 17.0744 51.235 19.4341 50.9999ZM16.9475 39.5741C14.8172 38.6265 13.0639 37.0172 11.9249 34.9372C10.786 32.8572 10.375 30.5128 10.7242 28.2075C15.0995 30.1607 17.6592 34.8358 16.9475 39.5741Z" fill="#B5B9D6"/>
</svg>
