<svg width="10" height="14" viewBox="0 0 10 14" fill="none" xmlns="http://www.w3.org/2000/svg">
<path d="M1.8363 -0.15H1.6863V0V8.83635H0.913574H0.763574V8.98635V9.94089V10.0909H0.913574H1.6863V14V14.15H1.8363H2.79085H2.94085V14V10.0909H6.03487H6.18487V9.94089V8.98635V8.83635H6.03487H2.94085V7.86362H5.39848C7.52118 7.86362 9.23652 6.05971 9.23652 3.8564C9.23652 1.65349 7.52115 -0.15 5.39848 -0.15H1.8363ZM2.94085 1.10455H5.39851C6.8146 1.10455 7.98201 2.33056 7.98201 3.8564C7.98201 5.38272 6.81456 6.60907 5.39851 6.60907H2.94085V1.10455Z" fill="white" stroke="white" stroke-width="0.3"/>
</svg>
