<svg width="1920" height="340" fill="none" xmlns="http://www.w3.org/2000/svg"><path d="M41.66 305.68L-16 309.97V340h1938V3l-223.15 37.18-59.91-7.627-29.96 23.833-41.93-40.993-139.28 152.532-35.95-11.44-83.87-65.78-62.9 14.301-37.44 82.939-29.96 5.243-37.44 64.826h-31.45l-43.43 65.303-40.44 11.44-50.922-11.44-55.415-50.526-19.47 18.589-59.907-33.366-46.428 28.6-37.442 4.766-43.433-33.366-20.967 20.02-14.977-20.02-59.158 20.02-19.47-10.487-35.196 10.487-36.693 38.133-19.47-16.683H455.77l-22.466-12.87h-29.953l-8.986-28.6-42.684 33.366-34.447-13.346-14.228-20.02-35.944 14.777-16.475-14.777-22.465 47.666-50.172 10.487-24.712-10.487-12.73-14.3-65.898-13.346-32.95 27.646z" fill="#fff" fill-opacity=".03" stroke="#fff" stroke-opacity=".06" stroke-width="4"/></svg>