<svg width="1920" height="302" fill="none" xmlns="http://www.w3.org/2000/svg"><path d="M76.493 280.52L2 289.542V302h1918V3l-66.97 18.473-40.63-5.585-100.08 76.039-97.82-54.56-59.44 47.686-42.89-18.472-53.42 71.742-72.24 5.155-62.45 54.989-69.23 16.754-37.62 44.249-43.64 9.881-26.34 27.064h-56.43l-50.42-13.317-66.965-23.628-60.196 23.628-75.997-48.545-36.87 18.902-69.226 6.015-51.919-12.888-46.652-12.029-67.721 32.22-67.721-7.303-45.147-24.917-68.473 38.234-39.88-26.205-41.385 26.205-57.938 10.311-44.395-16.325-45.147 6.014-38.375-13.317-39.88 21.05z" fill="#fff" fill-opacity=".07" stroke="#fff" stroke-opacity=".12" stroke-width="4"/></svg>