<svg width="599" height="301" fill="none" xmlns="http://www.w3.org/2000/svg"><path d="M13.811 255.64c-2.32 0-4.144 1.456-4.144 3.856v3.84c0 2.416 1.824 3.856 4.144 3.856 2.288 0 4.112-1.44 4.112-3.856v-3.84c0-2.4-1.824-3.856-4.112-3.856zm0 10.384c-1.328 0-2.368-.656-2.704-1.808a3.796 3.796 0 0 1-.176-1.2v-3.2c0-.464.064-.864.176-1.2.336-1.152 1.376-1.824 2.704-1.824 1.28 0 2.352.672 2.688 1.824a3.8 3.8 0 0 1 .176 1.2v3.2a3.8 3.8 0 0 1-.176 1.2c-.336 1.152-1.408 1.808-2.688 1.808zm7.767.496c.016-.048 0-.144-.016-.256a.778.778 0 0 0-.768-.544c-.448 0-.784.288-.784.736 0 .368.24.608.56.72l-.352 1.248h.784l.48-1.52c.048-.144.08-.272.096-.384zm6.233-10.88c-2.32 0-4.144 1.456-4.144 3.856v3.84c0 2.416 1.824 3.856 4.144 3.856 2.288 0 4.112-1.44 4.112-3.856v-3.84c0-2.4-1.824-3.856-4.112-3.856zm0 10.384c-1.328 0-2.368-.656-2.704-1.808a3.796 3.796 0 0 1-.176-1.2v-3.2c0-.464.064-.864.176-1.2.336-1.152 1.376-1.824 2.704-1.824 1.28 0 2.352.672 2.688 1.824a3.8 3.8 0 0 1 .176 1.2v3.2a3.8 3.8 0 0 1-.176 1.2c-.336 1.152-1.408 1.808-2.688 1.808zm10.532-10.384c-2.32 0-4.145 1.456-4.145 3.856v3.84c0 2.416 1.825 3.856 4.145 3.856 2.287 0 4.111-1.44 4.111-3.856v-3.84c0-2.4-1.824-3.856-4.111-3.856zm0 10.384c-1.329 0-2.369-.656-2.705-1.808a3.796 3.796 0 0 1-.175-1.2v-3.2c0-.464.063-.864.175-1.2.337-1.152 1.377-1.824 2.705-1.824 1.28 0 2.351.672 2.688 1.824.111.336.175.736.175 1.2v3.2c0 .464-.064.864-.175 1.2-.337 1.152-1.408 1.808-2.688 1.808zm8.579.992h1.264l5.472-11.184H52.41l-5.488 11.184zm9.504-2.448c0-3.536-5.296-3.552-5.296 0 0 3.536 5.296 3.536 5.296 0zm-4.272 0c0-2.32 3.232-2.32 3.232 0s-3.232 2.32-3.232 0zm-2.672-6.288c0-3.568-5.296-3.552-5.296 0s5.296 3.552 5.296 0zm-4.256 0c0-2.32 3.232-2.32 3.232 0s-3.232 2.32-3.232 0zm-32.97-43.488c2.544 0 2.464 2.48 1.104 4.144l-4.624 5.776V225h7.056v-1.184h-4.88l3.648-4.496c.816-1.024 1.072-2.144.96-3.104-.128-1.424-1.248-2.576-3.232-2.576-2.16 0-3.232 1.088-3.344 3.088h1.12c.112-1.344.848-1.936 2.192-1.936zm7.088 9.728c.016-.048 0-.144-.016-.256a.778.778 0 0 0-.768-.544c-.448 0-.784.288-.784.736 0 .368.24.608.56.72l-.352 1.248h.784l.48-1.52c.048-.144.08-.272.096-.384zm6.233-10.88c-2.32 0-4.144 1.456-4.144 3.856v3.84c0 2.416 1.824 3.856 4.144 3.856 2.288 0 4.112-1.44 4.112-3.856v-3.84c0-2.4-1.824-3.856-4.112-3.856zm0 10.384c-1.328 0-2.368-.656-2.704-1.808a3.796 3.796 0 0 1-.176-1.2v-3.2c0-.464.064-.864.176-1.2.336-1.152 1.376-1.824 2.704-1.824 1.28 0 2.352.672 2.688 1.824.112.336.176.736.176 1.2v3.2c0 .464-.064.864-.176 1.2-.336 1.152-1.408 1.808-2.688 1.808zm10.531-10.384c-2.32 0-4.144 1.456-4.144 3.856v3.84c0 2.416 1.824 3.856 4.144 3.856 2.288 0 4.112-1.44 4.112-3.856v-3.84c0-2.4-1.824-3.856-4.112-3.856zm0 10.384c-1.328 0-2.368-.656-2.704-1.808a3.796 3.796 0 0 1-.176-1.2v-3.2c0-.464.064-.864.176-1.2.336-1.152 1.376-1.824 2.704-1.824 1.28 0 2.352.672 2.688 1.824.112.336.176.736.176 1.2v3.2c0 .464-.064.864-.176 1.2-.336 1.152-1.408 1.808-2.688 1.808zm8.58.992h1.263l5.472-11.184h-1.248l-5.488 11.184zm9.503-2.448c0-3.536-5.296-3.552-5.296 0 0 3.536 5.296 3.536 5.296 0zm-4.272 0c0-2.32 3.232-2.32 3.232 0s-3.232 2.32-3.232 0zm-2.672-6.288c0-3.568-5.296-3.552-5.296 0s5.296 3.552 5.296 0zm-4.256 0c0-2.32 3.232-2.32 3.232 0s-3.232 2.32-3.232 0zm-26.519-35.632h1.152v-1.088h-1.152v-7.6H15.16l-5.68 8.112v.576h5.776v2.512h1.216v-2.512zm-1.088-7.184l-.048 3.328v2.816H11.08l4.288-6.144h.016zm5.694 9.056c.016-.048 0-.144-.016-.256a.778.778 0 0 0-.768-.544c-.448 0-.784.288-.784.736 0 .368.24.608.56.72l-.352 1.248h.784l.48-1.52c.048-.144.08-.272.096-.384zm6.233-10.88c-2.32 0-4.144 1.456-4.144 3.856v3.84c0 2.416 1.824 3.856 4.144 3.856 2.288 0 4.112-1.44 4.112-3.856v-3.84c0-2.4-1.824-3.856-4.112-3.856zm0 10.384c-1.328 0-2.368-.656-2.704-1.808a3.796 3.796 0 0 1-.176-1.2v-3.2c0-.464.064-.864.176-1.2.336-1.152 1.376-1.824 2.704-1.824 1.28 0 2.352.672 2.688 1.824a3.8 3.8 0 0 1 .176 1.2v3.2a3.8 3.8 0 0 1-.176 1.2c-.336 1.152-1.408 1.808-2.688 1.808zm10.532-10.384c-2.32 0-4.145 1.456-4.145 3.856v3.84c0 2.416 1.825 3.856 4.145 3.856 2.287 0 4.111-1.44 4.111-3.856v-3.84c0-2.4-1.824-3.856-4.111-3.856zm0 10.384c-1.329 0-2.369-.656-2.705-1.808a3.796 3.796 0 0 1-.175-1.2v-3.2c0-.464.063-.864.175-1.2.337-1.152 1.377-1.824 2.705-1.824 1.28 0 2.351.672 2.688 1.824.111.336.175.736.175 1.2v3.2c0 .464-.064.864-.175 1.2-.337 1.152-1.408 1.808-2.688 1.808zm8.579.992h1.264l5.472-11.184H51.91l-5.488 11.184zm9.504-2.448c0-3.536-5.296-3.552-5.296 0 0 3.536 5.296 3.536 5.296 0zm-4.272 0c0-2.32 3.232-2.32 3.232 0s-3.232 2.32-3.232 0zm-2.672-6.288c0-3.568-5.296-3.552-5.296 0s5.296 3.552 5.296 0zm-4.256 0c0-2.32 3.232-2.32 3.232 0s-3.232 2.32-3.232 0zM13.88 129.752l-3.568 5.456a3.994 3.994 0 0 0-.688 2.272c0 2.4 1.824 3.664 4.064 3.664s4.096-1.264 4.096-3.664c0-2.304-1.728-3.632-3.904-3.584-.496 0-.992.112-1.424.368l2.896-4.512H13.88zm-.192 10.24c-1.536 0-2.752-.912-2.752-2.512 0-1.616 1.2-2.528 2.736-2.528 1.568 0 2.784.912 2.784 2.528 0 1.6-1.216 2.512-2.768 2.512zm7.375.528c.016-.048 0-.144-.016-.256a.778.778 0 0 0-.768-.544c-.448 0-.784.288-.784.736 0 .368.24.608.56.72l-.352 1.248h.784l.48-1.52c.048-.144.08-.272.096-.384zm6.233-10.88c-2.32 0-4.144 1.456-4.144 3.856v3.84c0 2.416 1.824 3.856 4.144 3.856 2.288 0 4.112-1.44 4.112-3.856v-3.84c0-2.4-1.824-3.856-4.112-3.856zm0 10.384c-1.328 0-2.368-.656-2.704-1.808a3.796 3.796 0 0 1-.176-1.2v-3.2c0-.464.064-.864.176-1.2.336-1.152 1.376-1.824 2.704-1.824 1.28 0 2.352.672 2.688 1.824.112.336.176.736.176 1.2v3.2c0 .464-.064.864-.176 1.2-.336 1.152-1.408 1.808-2.688 1.808zm10.53-10.384c-2.32 0-4.143 1.456-4.143 3.856v3.84c0 2.416 1.824 3.856 4.144 3.856 2.288 0 4.112-1.44 4.112-3.856v-3.84c0-2.4-1.824-3.856-4.112-3.856zm0 10.384c-1.327 0-2.367-.656-2.703-1.808a3.796 3.796 0 0 1-.176-1.2v-3.2c0-.464.064-.864.176-1.2.336-1.152 1.376-1.824 2.704-1.824 1.28 0 2.352.672 2.688 1.824.112.336.176.736.176 1.2v3.2c0 .464-.064.864-.176 1.2-.336 1.152-1.408 1.808-2.688 1.808zm8.58.992h1.264l5.472-11.184h-1.248l-5.488 11.184zm9.504-2.448c0-3.536-5.296-3.552-5.296 0 0 3.536 5.296 3.536 5.296 0zm-4.272 0c0-2.32 3.232-2.32 3.232 0s-3.232 2.32-3.232 0zm-2.672-6.288c0-3.568-5.296-3.552-5.296 0s5.296 3.552 5.296 0zm-4.256 0c0-2.32 3.232-2.32 3.232 0s-3.232 2.32-3.232 0zM13.768 92.744c.896-.432 1.568-1.184 1.568-2.272 0-1.696-1.456-2.832-3.392-2.832s-3.36 1.152-3.36 2.848c.016 1.088.672 1.84 1.52 2.24-1.264.464-2.24 1.456-2.24 3.008 0 2.192 1.76 3.424 4.08 3.424 2.336 0 4.08-1.392 4.08-3.424-.016-1.584-.976-2.496-2.256-2.992zm-1.824-.432c-1.136 0-2.176-.64-2.176-1.792 0-1.152 1.072-1.808 2.176-1.808 1.152 0 2.192.656 2.192 1.792 0 1.152-1.056 1.808-2.192 1.808zm0 5.728c-1.44 0-2.768-.864-2.768-2.336 0-1.488 1.296-2.368 2.768-2.368 1.456 0 2.784.864 2.784 2.352S13.4 98.04 11.944 98.04zm7.619.48c.016-.048 0-.144-.016-.256a.778.778 0 0 0-.768-.544c-.448 0-.784.288-.784.736 0 .368.24.608.56.72l-.352 1.248h.784l.48-1.52c.048-.144.08-.272.096-.384zm6.233-10.88c-2.32 0-4.144 1.456-4.144 3.856v3.84c0 2.416 1.824 3.856 4.144 3.856 2.288 0 4.112-1.44 4.112-3.856v-3.84c0-2.4-1.824-3.856-4.112-3.856zm0 10.384c-1.328 0-2.368-.656-2.704-1.808a3.796 3.796 0 0 1-.176-1.2v-3.2c0-.464.064-.864.176-1.2.336-1.152 1.376-1.824 2.704-1.824 1.28 0 2.352.672 2.688 1.824.112.336.176.736.176 1.2v3.2c0 .464-.064.864-.176 1.2-.336 1.152-1.408 1.808-2.688 1.808zm10.53-10.384c-2.32 0-4.143 1.456-4.143 3.856v3.84c0 2.416 1.824 3.856 4.144 3.856 2.288 0 4.112-1.44 4.112-3.856v-3.84c0-2.4-1.824-3.856-4.112-3.856zm0 10.384c-1.327 0-2.367-.656-2.703-1.808a3.796 3.796 0 0 1-.176-1.2v-3.2c0-.464.064-.864.176-1.2.336-1.152 1.376-1.824 2.704-1.824 1.28 0 2.352.672 2.688 1.824.112.336.176.736.176 1.2v3.2c0 .464-.064.864-.176 1.2-.336 1.152-1.408 1.808-2.688 1.808zm8.58.992h1.264l5.472-11.184h-1.248l-5.488 11.184zm9.504-2.448c0-3.536-5.296-3.552-5.296 0 0 3.536 5.296 3.536 5.296 0zm-4.272 0c0-2.32 3.232-2.32 3.232 0s-3.232 2.32-3.232 0zm-2.672-6.288c0-3.568-5.296-3.552-5.296 0s5.296 3.552 5.296 0zm-4.256 0c0-2.32 3.232-2.32 3.232 0s-3.232 2.32-3.232 0zM2.96 45.856v9.088H.752V56h5.696v-1.056H4.224V44.8H1.008v1.056H2.96zm9.226-1.216c-2.32 0-4.144 1.456-4.144 3.856v3.84c0 2.416 1.824 3.856 4.144 3.856 2.288 0 4.112-1.44 4.112-3.856v-3.84c0-2.4-1.824-3.856-4.112-3.856zm0 10.384c-1.328 0-2.368-.656-2.704-1.808a3.796 3.796 0 0 1-.176-1.2v-3.2c0-.464.064-.864.176-1.2.336-1.152 1.376-1.824 2.704-1.824 1.28 0 2.352.672 2.688 1.824a3.8 3.8 0 0 1 .176 1.2v3.2a3.8 3.8 0 0 1-.176 1.2c-.336 1.152-1.408 1.808-2.688 1.808zm7.767.496c.016-.048 0-.144-.016-.256a.778.778 0 0 0-.768-.544c-.448 0-.784.288-.784.736 0 .368.24.608.56.72l-.352 1.248h.784l.48-1.52c.048-.144.08-.272.096-.384zm6.233-10.88c-2.32 0-4.144 1.456-4.144 3.856v3.84c0 2.416 1.824 3.856 4.144 3.856 2.288 0 4.112-1.44 4.112-3.856v-3.84c0-2.4-1.824-3.856-4.112-3.856zm0 10.384c-1.328 0-2.368-.656-2.704-1.808a3.796 3.796 0 0 1-.176-1.2v-3.2c0-.464.064-.864.176-1.2.336-1.152 1.376-1.824 2.704-1.824 1.28 0 2.352.672 2.688 1.824a3.8 3.8 0 0 1 .176 1.2v3.2a3.8 3.8 0 0 1-.176 1.2c-.336 1.152-1.408 1.808-2.688 1.808zM36.718 44.64c-2.32 0-4.145 1.456-4.145 3.856v3.84c0 2.416 1.825 3.856 4.145 3.856 2.287 0 4.111-1.44 4.111-3.856v-3.84c0-2.4-1.824-3.856-4.111-3.856zm0 10.384c-1.329 0-2.369-.656-2.705-1.808a3.796 3.796 0 0 1-.175-1.2v-3.2c0-.464.063-.864.175-1.2.337-1.152 1.377-1.824 2.705-1.824 1.28 0 2.351.672 2.688 1.824.111.336.175.736.175 1.2v3.2c0 .464-.064.864-.175 1.2-.337 1.152-1.408 1.808-2.688 1.808zm8.579.992h1.264l5.472-11.184h-1.248l-5.488 11.184zm9.504-2.448c0-3.536-5.296-3.552-5.296 0 0 3.536 5.296 3.536 5.296 0zm-4.272 0c0-2.32 3.232-2.32 3.232 0s-3.232 2.32-3.232 0zm-2.672-6.288c0-3.568-5.296-3.552-5.296 0s5.296 3.552 5.296 0zm-4.256 0c0-2.32 3.232-2.32 3.232 0s-3.232 2.32-3.232 0zM4.96 6.856v9.088H2.752V17h5.696v-1.056H6.224V5.8H3.008v1.056H4.96zm8.202-.064c2.544 0 2.464 2.48 1.104 4.144l-4.624 5.776V17h7.056v-1.184h-4.88l3.648-4.496c.816-1.024 1.072-2.144.96-3.104-.128-1.424-1.248-2.576-3.232-2.576-2.16 0-3.232 1.088-3.344 3.088h1.12c.112-1.344.848-1.936 2.192-1.936zm7.088 9.728c.016-.048 0-.144-.016-.256a.778.778 0 0 0-.768-.544c-.448 0-.784.288-.784.736 0 .368.24.608.56.72l-.352 1.248h.784l.48-1.52c.048-.144.08-.272.096-.384zm6.233-10.88c-2.32 0-4.144 1.456-4.144 3.856v3.84c0 2.416 1.824 3.856 4.144 3.856 2.288 0 4.112-1.44 4.112-3.856v-3.84c0-2.4-1.824-3.856-4.112-3.856zm0 10.384c-1.328 0-2.368-.656-2.704-1.808a3.796 3.796 0 0 1-.176-1.2v-3.2c0-.464.064-.864.176-1.2.336-1.152 1.376-1.824 2.704-1.824 1.28 0 2.352.672 2.688 1.824.112.336.176.736.176 1.2v3.2c0 .464-.064.864-.176 1.2-.336 1.152-1.408 1.808-2.688 1.808zM37.014 5.64c-2.32 0-4.144 1.456-4.144 3.856v3.84c0 2.416 1.824 3.856 4.144 3.856 2.288 0 4.112-1.44 4.112-3.856v-3.84c0-2.4-1.824-3.856-4.112-3.856zm0 10.384c-1.328 0-2.368-.656-2.704-1.808a3.796 3.796 0 0 1-.176-1.2v-3.2c0-.464.064-.864.176-1.2.336-1.152 1.376-1.824 2.704-1.824 1.28 0 2.352.672 2.688 1.824.112.336.176.736.176 1.2v3.2c0 .464-.064.864-.176 1.2-.336 1.152-1.408 1.808-2.688 1.808zm8.58.992h1.264L52.33 5.832h-1.248l-5.488 11.184zm9.504-2.448c0-3.536-5.296-3.552-5.296 0 0 3.536 5.296 3.536 5.296 0zm-4.272 0c0-2.32 3.232-2.32 3.232 0s-3.232 2.32-3.232 0zM48.154 8.28c0-3.568-5.296-3.552-5.296 0s5.296 3.552 5.296 0zm-4.256 0c0-2.32 3.232-2.32 3.232 0s-3.232 2.32-3.232 0zM90.6 291.384c0 2.208-1.776 2.8-3.584 2.848v-5.696c1.824.048 3.584.64 3.584 2.848zm-8.848 0c0-2.208 1.76-2.8 3.568-2.848v5.696c-1.76-.048-3.568-.64-3.568-2.848zm3.552 5.632h1.728v-1.184c2.88-.08 5.44-1.232 5.44-4.448S89.96 287 87.048 286.92v-1.152h-1.744v1.152c-2.864.08-5.424 1.344-5.424 4.464s2.56 4.368 5.424 4.448v1.184zm12.602-7.904c-2.096 0-3.952 1.296-4 3.872-.08 2.608 1.792 4.24 4.336 4.192.976 0 2.016-.256 2.912-.656l-.224-1.296c-.912.4-1.84.528-2.8.48-1.408 0-2.512-.832-2.512-2.24h5.696c.512-2.56-.704-4.352-3.408-4.352zm-.016 1.344c1.104 0 2.064.608 2.016 1.776H95.65c.24-1.216 1.088-1.776 2.24-1.776zm11.613.848c0-1.936-1.92-2.032-3.344-2.032h-2.96v7.744h3.392c1.52 0 3.328-.208 3.328-2.208 0-.928-.528-1.696-1.472-1.952.768-.272 1.056-.864 1.056-1.552zm-4.608 4.368v-2.096h1.44c.8 0 1.888.064 1.888 1.056 0 1.04-1.056 1.04-1.808 1.04h-1.52zm0-3.28v-1.84h1.36c.688 0 1.536.08 1.536.928 0 .832-.864.912-1.536.912h-1.36zm8.563-1.856c0-1.36-.976-1.568-2.256-1.312l.016 1.2c.896 0 .816.432.816 1.328v9.216h1.744v-4.496c.64.384 1.312.576 1.952.608 2.064.096 3.856-1.504 3.856-3.984 0-2.112-1.216-4.016-3.488-4.016-1.104 0-2.192.384-2.64 1.456zm.288 2.24c0-1.152.8-2.144 2-2.144 1.392 0 2.08 1.184 2.08 2.464 0 1.568-.944 2.416-2.112 2.464-.624.032-1.328-.176-1.968-.624v-2.16zm12.632 2.928c.048 1.52.992 1.52 2.208 1.312l-.032-.992c-.832.08-.8-.384-.8-1.104v-3.04c0-2.128-1.664-2.784-3.536-2.784-1.024 0-2.064.208-2.848.608l.256 1.248c.96-.48 4.432-1.152 4.432.88v.768c-.688-.384-1.536-.576-2.288-.576-1.696 0-3.04.88-2.992 2.72 0 1.504 1.36 2.4 2.768 2.4 1.088 0 2.32-.416 2.832-1.44zm-.32-1.344c-.176.976-1.248 1.408-2.16 1.408-.704 0-1.408-.352-1.408-1.12 0-.944.72-1.44 1.568-1.456a3.935 3.935 0 0 1 2 .528v.64zm9.646-3.536V297h1.712v-7.712h-5.872l-.576 4.912c-.128 1.136-.256 1.712-1.6 1.52l-.032 1.28c2.464.352 3.12-.336 3.344-2.736l.368-3.44h2.656zm7.195 6.176c1.744 0 3.408-.72 3.408-2.656 0-1.968-1.632-2.656-3.392-2.656h-1.552v-2.4h-1.68V297h3.216zm-.016-3.984c.944 0 1.728.416 1.728 1.328 0 .912-.784 1.328-1.728 1.328h-1.52v-2.656h1.52zm94.757-1.456l-4.56-5.792h-.688V297h1.872v-7.008l3.248 4.144h.256l3.232-4.144V297h1.872v-11.232h-.688l-4.544 5.792zm12.66 4.144c.048 1.52.992 1.52 2.208 1.312l-.032-.992c-.832.08-.8-.384-.8-1.104v-3.04c0-2.128-1.664-2.784-3.536-2.784-1.024 0-2.064.208-2.848.608l.256 1.248c.96-.48 4.432-1.152 4.432.88v.768c-.688-.384-1.536-.576-2.288-.576-1.696 0-3.04.88-2.992 2.72 0 1.504 1.36 2.4 2.768 2.4 1.088 0 2.32-.416 2.832-1.44zm-.32-1.344c-.176.976-1.248 1.408-2.16 1.408-.704 0-1.408-.352-1.408-1.12 0-.944.72-1.44 1.568-1.456a3.935 3.935 0 0 1 2 .528v.64zm5.838-3.824c0-1.36-.976-1.568-2.256-1.312l.016 1.2c.896 0 .816.432.816 1.328v9.216h1.744v-4.496c.64.384 1.312.576 1.952.608 2.064.096 3.856-1.504 3.856-3.984 0-2.112-1.216-4.016-3.488-4.016-1.104 0-2.192.384-2.64 1.456zm.288 2.24c0-1.152.8-2.144 2-2.144 1.392 0 2.08 1.184 2.08 2.464 0 1.568-.944 2.416-2.112 2.464-.624.032-1.328-.176-1.968-.624v-2.16zm10.922 4.208v-6.176h2.496v-1.52h-6.672v1.52h2.48v6.176h1.696zm131.148-2.304l1.104 2.32h1.936v-.24l-5.152-11.04h-.864l-5.184 11.04v.24h1.952l1.088-2.32h5.12zm-2.544-6.048l1.952 4.48h-3.92l1.968-4.48zm6.754.656V297h1.76v-6.176h3.584V297h1.728v-7.712h-7.072zm11.088 1.248c0-1.36-.976-1.568-2.256-1.312l.016 1.2c.896 0 .816.432.816 1.328v9.216h1.744v-4.496c.64.384 1.312.576 1.952.608 2.064.096 3.856-1.504 3.856-3.984 0-2.112-1.216-4.016-3.488-4.016-1.104 0-2.192.384-2.64 1.456zm.288 2.24c0-1.152.8-2.144 2-2.144 1.392 0 2.08 1.184 2.08 2.464 0 1.568-.944 2.416-2.112 2.464-.624.032-1.328-.176-1.968-.624v-2.16zm11.144-3.664c-2.096 0-3.952 1.296-4 3.872-.08 2.608 1.792 4.24 4.336 4.192.976 0 2.016-.256 2.912-.656l-.224-1.296c-.912.4-1.84.528-2.8.48-1.408 0-2.512-.832-2.512-2.24h5.696c.512-2.56-.704-4.352-3.408-4.352zm-.016 1.344c1.104 0 2.064.608 2.016 1.776h-4.256c.24-1.216 1.088-1.776 2.24-1.776zm10.798.368V297h1.712v-7.712h-5.872l-.576 4.912c-.128 1.136-.256 1.712-1.6 1.52l-.032 1.28c2.464.352 3.12-.336 3.344-2.736l.368-3.44h2.656zm7.195 6.176c1.744 0 3.408-.72 3.408-2.656 0-1.968-1.632-2.656-3.392-2.656h-1.552v-2.4h-1.68V297h3.216zm-.016-3.984c.944 0 1.728.416 1.728 1.328 0 .912-.784 1.328-1.728 1.328h-1.52v-2.656h1.52zm128.773-1.456l-4.56-5.792h-.688V297h1.872v-7.008l3.248 4.144h.256l3.232-4.144V297h1.872v-11.232h-.688l-4.544 5.792zm12.66 4.144c.048 1.52.992 1.52 2.208 1.312l-.032-.992c-.832.08-.8-.384-.8-1.104v-3.04c0-2.128-1.664-2.784-3.536-2.784-1.024 0-2.064.208-2.848.608l.256 1.248c.96-.48 4.432-1.152 4.432.88v.768c-.688-.384-1.536-.576-2.288-.576-1.696 0-3.04.88-2.992 2.72 0 1.504 1.36 2.4 2.768 2.4 1.088 0 2.32-.416 2.832-1.44zm-.32-1.344c-.176.976-1.248 1.408-2.16 1.408-.704 0-1.408-.352-1.408-1.12 0-.944.72-1.44 1.568-1.456a3.935 3.935 0 0 1 2 .528v.64zm5.454-8.256c.112 1.408 1.12 2.256 2.448 2.256 1.408 0 2.4-.88 2.512-2.256a23.915 23.915 0 0 0-1.12-.128c-.128.736-.688 1.008-1.408 1.008-.736-.016-1.248-.336-1.344-1.008l-1.088.128zm-.88 10.912h-.48v-7.728h1.696v4.64l4.832-4.656h.544V297h-1.68v-4.656l-4.912 4.672z" fill="#21293E"/><path d="M79 0v262h503" stroke="#9A9A9A"/><path stroke="#000" stroke-opacity=".08" d="M76 51.5h506M79 9.5h506m-509 85h506m-506 42h506m-506 41h506m-506 42h506"/><circle cx="79" cy="52" r="2" fill="#9A9A9A"/><circle cx="79" cy="10" r="2" fill="#9A9A9A"/><circle cx="252" cy="262" r="4" fill="#9A9A9A"/><circle cx="420" cy="262" r="4" fill="#9A9A9A"/><circle cx="579" cy="262" r="4" fill="#9A9A9A"/><circle cx="79" cy="95" r="2" fill="#9A9A9A"/><circle cx="79" cy="137" r="2" fill="#9A9A9A"/><circle cx="79" cy="178" r="2" fill="#9A9A9A"/><circle cx="79" cy="220" r="2" fill="#9A9A9A"/><path d="M114.5 178L252 72.5 414.5 67c64.046-6.444 100.954-4.556 165-11" stroke="#4263A8" stroke-width="4"/><circle cx="413" cy="67" r="4.5" fill="#fff" stroke="#4263A8" stroke-width="3"/><circle cx="252" cy="73" r="4.5" fill="#fff" stroke="#4263A8" stroke-width="3"/><circle cx="116" cy="178" r="4.5" fill="#fff" stroke="#4263A8" stroke-width="3"/><circle cx="579" cy="56" r="4.5" fill="#fff" stroke="#4263A8" stroke-width="3"/></svg>