<svg width="1401" height="414" fill="none" xmlns="http://www.w3.org/2000/svg"><path fill="#fff" d="M80 5h1321v355H80z"/><path d="M81.22 405.848c.128 2.112 1.696 3.344 3.744 3.344 2.464 0 3.888-1.68 3.888-3.76 0-1.648-1.072-3.216-2.928-3.296l2.832-4.032v-.288h-7.088v1.504h4.512l-2.528 3.76v.32c1.536-.384 3.44.176 3.44 2.048 0 1.328-.864 2.128-2.16 2.128-1.152 0-1.952-.592-2.064-1.728H81.22zm11.283-6.576v8.288h-2.048V409h5.92v-1.44h-2.08v-9.76h-3.584v1.472h1.792zm6.405 9.92c.592 0 1.072-.4 1.072-.992 0-.624-.48-1.008-1.072-1.008-.592 0-1.072.384-1.072 1.008 0 .592.48.992 1.072.992zm7.184-11.568c-2.32 0-4.176 1.456-4.176 3.856v3.872c0 2.416 1.856 3.856 4.176 3.856 2.288 0 4.144-1.44 4.144-3.856v-3.872c0-2.4-1.856-3.856-4.144-3.856zm0 9.936c-1.152 0-2.064-.56-2.304-1.632a5.345 5.345 0 0 1-.112-1.056v-2.896c0-.384.048-.736.112-1.056.24-1.088 1.152-1.664 2.304-1.664s2.048.576 2.288 1.664c.064.32.112.672.112 1.056v2.896c0 .384-.048.736-.112 1.056-.24 1.072-1.136 1.632-2.288 1.632zm8.02-8.192h5.088V397.8h-6.608v5.6c.816-.192 1.904-.368 2.912-.32 1.44.08 2.672.64 2.64 2.384-.048 1.52-1.088 2.176-2.208 2.176-1.104 0-1.92-.56-2.032-1.728h-1.712c.176 2.08 1.68 3.28 3.696 3.28 2.608 0 3.984-1.76 3.984-3.776 0-2.736-1.904-3.68-4.256-3.728-.512 0-1.008.048-1.504.16v-2.48zm11.537 5.056h8.048v-1.504h-8.048v1.504zm18.349-6.8c-2.32 0-4.176 1.456-4.176 3.856v3.872c0 2.416 1.856 3.856 4.176 3.856 2.288 0 4.144-1.44 4.144-3.856v-3.872c0-2.4-1.856-3.856-4.144-3.856zm0 9.936c-1.152 0-2.064-.56-2.304-1.632a5.345 5.345 0 0 1-.112-1.056v-2.896c0-.384.048-.736.112-1.056.24-1.088 1.152-1.664 2.304-1.664s2.048.576 2.288 1.664c.064.32.112.672.112 1.056v2.896c0 .384-.048.736-.112 1.056-.24 1.072-1.136 1.632-2.288 1.632zm5.972-1.712c.128 2.112 1.696 3.344 3.744 3.344 2.464 0 3.888-1.68 3.888-3.76 0-1.648-1.072-3.216-2.928-3.296l2.832-4.032v-.288h-7.088v1.504h4.512l-2.528 3.76v.32c1.536-.384 3.44.176 3.44 2.048 0 1.328-.864 2.128-2.16 2.128-1.152 0-1.952-.592-2.064-1.728h-1.648zm10.563 3.344c.592 0 1.072-.4 1.072-.992 0-.624-.48-1.008-1.072-1.008-.592 0-1.072.384-1.072 1.008 0 .592.48.992 1.072.992zm7.184-11.568c-2.32 0-4.176 1.456-4.176 3.856v3.872c0 2.416 1.856 3.856 4.176 3.856 2.288 0 4.144-1.44 4.144-3.856v-3.872c0-2.4-1.856-3.856-4.144-3.856zm0 9.936c-1.152 0-2.064-.56-2.304-1.632a5.345 5.345 0 0 1-.112-1.056v-2.896c0-.384.048-.736.112-1.056.24-1.088 1.152-1.664 2.304-1.664s2.048.576 2.288 1.664c.064.32.112.672.112 1.056v2.896c0 .384-.048.736-.112 1.056-.24 1.072-1.136 1.632-2.288 1.632zm10.052-9.824l-3.392 5.376c-.432.656-.72 1.504-.72 2.32 0 2.496 1.84 3.728 4.144 3.728 2.32 0 4.16-1.232 4.16-3.728 0-2.32-1.648-3.648-3.856-3.6-.352 0-.688.08-1.008.256l2.736-4.352h-2.064zm.032 9.84c-1.344 0-2.32-.752-2.32-2.144 0-1.392.96-2.16 2.32-2.16 1.344 0 2.32.768 2.32 2.16 0 1.392-.96 2.144-2.32 2.144zm1126.699-8.48c2.15 0 2.08 2.304.88 3.76l-4.4 5.744v.4h7.06v-1.536h-4.32c1.66-2.144 2.38-3.152 2.98-3.824 2.09-2.752 1.16-5.968-2.13-5.968-2.19.016-3.33 1.136-3.38 3.264h1.51c.06-1.152.72-1.84 1.8-1.84zm12.02 7.552h1.09v-1.52h-1.09V397.8h-1.9l-5.3 8.016v.832h5.51V409h1.69v-2.352zm-1.49-6.672l-.09 2.736v2.48h-3.43l3.49-5.216h.03zm5.44 9.216c.59 0 1.07-.4 1.07-.992 0-.624-.48-1.008-1.07-1.008-.59 0-1.07.384-1.07 1.008 0 .592.48.992 1.07.992zm7.18-11.568c-2.32 0-4.17 1.456-4.17 3.856v3.872c0 2.416 1.85 3.856 4.17 3.856 2.29 0 4.15-1.44 4.15-3.856v-3.872c0-2.4-1.86-3.856-4.15-3.856zm0 9.936c-1.15 0-2.06-.56-2.3-1.632a5.67 5.67 0 0 1-.11-1.056v-2.896c0-.384.05-.736.11-1.056.24-1.088 1.15-1.664 2.3-1.664 1.16 0 2.05.576 2.29 1.664.07.32.11.672.11 1.056v2.896c0 .384-.04.736-.11 1.056-.24 1.072-1.13 1.632-2.29 1.632zm8.02-8.192h5.09V397.8h-6.61v5.6c.82-.192 1.91-.368 2.92-.32 1.44.08 2.67.64 2.64 2.384-.05 1.52-1.09 2.176-2.21 2.176-1.11 0-1.92-.56-2.03-1.728h-1.72c.18 2.08 1.68 3.28 3.7 3.28 2.61 0 3.98-1.76 3.98-3.776 0-2.736-1.9-3.68-4.25-3.728-.51 0-1.01.048-1.51.16v-2.48zm11.54 5.056h8.05v-1.504h-8.05v1.504zm13.82 1.424c.13 2.112 1.7 3.344 3.75 3.344 2.46 0 3.88-1.68 3.88-3.76 0-1.648-1.07-3.216-2.92-3.296l2.83-4.032v-.288h-7.09v1.504h4.51l-2.53 3.76v.32c1.54-.384 3.44.176 3.44 2.048 0 1.328-.86 2.128-2.16 2.128-1.15 0-1.95-.592-2.06-1.728h-1.65zm11.29-6.576v8.288h-2.05V409h5.92v-1.44h-2.08v-9.76h-3.59v1.472h1.8zm6.4 9.92c.59 0 1.07-.4 1.07-.992 0-.624-.48-1.008-1.07-1.008-.59 0-1.07.384-1.07 1.008 0 .592.48.992 1.07.992zm7.18-11.568c-2.32 0-4.17 1.456-4.17 3.856v3.872c0 2.416 1.85 3.856 4.17 3.856 2.29 0 4.15-1.44 4.15-3.856v-3.872c0-2.4-1.86-3.856-4.15-3.856zm0 9.936c-1.15 0-2.06-.56-2.3-1.632a5.67 5.67 0 0 1-.11-1.056v-2.896c0-.384.05-.736.11-1.056.24-1.088 1.15-1.664 2.3-1.664 1.16 0 2.05.576 2.29 1.664.07.32.11.672.11 1.056v2.896c0 .384-.04.736-.11 1.056-.24 1.072-1.13 1.632-2.29 1.632zm10.06-9.824l-3.4 5.376c-.43.656-.72 1.504-.72 2.32 0 2.496 1.84 3.728 4.15 3.728 2.32 0 4.16-1.232 4.16-3.728 0-2.32-1.65-3.648-3.86-3.6-.35 0-.69.08-1.01.256l2.74-4.352h-2.06zm.03 9.84c-1.35 0-2.32-.752-2.32-2.144 0-1.392.96-2.16 2.32-2.16 1.34 0 2.32.768 2.32 2.16 0 1.392-.96 2.144-2.32 2.144zM6.14 264.856v9.088H3.932V275h5.696v-1.056H7.404V263.8H4.188v1.056H6.14zm13.367-1.216c-2.32 0-4.144 1.456-4.144 3.856v3.84c0 2.416 1.824 3.856 4.144 3.856 2.288 0 4.112-1.44 4.112-3.856v-3.84c0-2.4-1.824-3.856-4.112-3.856zm0 10.384c-1.328 0-2.368-.656-2.704-1.808a3.796 3.796 0 0 1-.176-1.2v-3.2c0-.464.064-.864.176-1.2.336-1.152 1.376-1.824 2.704-1.824 1.28 0 2.352.672 2.688 1.824.112.336.176.736.176 1.2v3.2c0 .464-.064.864-.176 1.2-.336 1.152-1.408 1.808-2.688 1.808zm10.53-10.384c-2.32 0-4.143 1.456-4.143 3.856v3.84c0 2.416 1.824 3.856 4.144 3.856 2.288 0 4.112-1.44 4.112-3.856v-3.84c0-2.4-1.824-3.856-4.112-3.856zm0 10.384c-1.327 0-2.367-.656-2.703-1.808a3.796 3.796 0 0 1-.176-1.2v-3.2c0-.464.064-.864.176-1.2.336-1.152 1.376-1.824 2.704-1.824 1.28 0 2.352.672 2.688 1.824.112.336.176.736.176 1.2v3.2c0 .464-.064.864-.176 1.2-.336 1.152-1.408 1.808-2.688 1.808zM40.57 263.64c-2.32 0-4.144 1.456-4.144 3.856v3.84c0 2.416 1.824 3.856 4.144 3.856 2.288 0 4.112-1.44 4.112-3.856v-3.84c0-2.4-1.824-3.856-4.112-3.856zm0 10.384c-1.328 0-2.368-.656-2.704-1.808a3.796 3.796 0 0 1-.176-1.2v-3.2c0-.464.064-.864.176-1.2.336-1.152 1.376-1.824 2.704-1.824 1.28 0 2.352.672 2.688 1.824.112.336.176.736.176 1.2v3.2c0 .464-.064.864-.176 1.2-.336 1.152-1.408 1.808-2.688 1.808zM5.553 178.792c2.544 0 2.464 2.48 1.104 4.144l-4.624 5.776V189h7.056v-1.184h-4.88l3.648-4.496c.816-1.024 1.072-2.144.96-3.104-.128-1.424-1.248-2.576-3.232-2.576-2.16 0-3.232 1.088-3.344 3.088h1.12c.112-1.344.848-1.936 2.192-1.936zm13.836-1.152c-2.32 0-4.144 1.456-4.144 3.856v3.84c0 2.416 1.824 3.856 4.144 3.856 2.288 0 4.112-1.44 4.112-3.856v-3.84c0-2.4-1.824-3.856-4.112-3.856zm0 10.384c-1.328 0-2.368-.656-2.704-1.808a3.796 3.796 0 0 1-.176-1.2v-3.2c0-.464.064-.864.176-1.2.336-1.152 1.376-1.824 2.704-1.824 1.28 0 2.352.672 2.688 1.824.112.336.176.736.176 1.2v3.2c0 .464-.064.864-.176 1.2-.336 1.152-1.408 1.808-2.688 1.808zm10.532-10.384c-2.32 0-4.144 1.456-4.144 3.856v3.84c0 2.416 1.824 3.856 4.144 3.856 2.288 0 4.112-1.44 4.112-3.856v-3.84c0-2.4-1.824-3.856-4.112-3.856zm0 10.384c-1.328 0-2.368-.656-2.704-1.808a3.796 3.796 0 0 1-.176-1.2v-3.2c0-.464.064-.864.176-1.2.336-1.152 1.376-1.824 2.704-1.824 1.28 0 2.352.672 2.688 1.824.112.336.176.736.176 1.2v3.2c0 .464-.064.864-.176 1.2-.336 1.152-1.408 1.808-2.688 1.808zm10.53-10.384c-2.32 0-4.143 1.456-4.143 3.856v3.84c0 2.416 1.824 3.856 4.144 3.856 2.288 0 4.112-1.44 4.112-3.856v-3.84c0-2.4-1.824-3.856-4.112-3.856zm0 10.384c-1.327 0-2.367-.656-2.703-1.808a3.796 3.796 0 0 1-.176-1.2v-3.2c0-.464.064-.864.176-1.2.336-1.152 1.376-1.824 2.704-1.824 1.28 0 2.352.672 2.688 1.824.112.336.176.736.176 1.2v3.2c0 .464-.064.864-.176 1.2-.336 1.152-1.408 1.808-2.688 1.808zM1.791 90.992c.176 2.016 1.696 3.2 3.68 3.2 2.4 0 3.872-1.552 3.872-3.696 0-1.808-1.392-3.344-3.248-3.296l3.232-4.192V82.8h-7.04v1.136h4.976l-3.072 3.968v.304c1.888-.496 3.888.304 3.888 2.288-.016 1.6-1.072 2.528-2.624 2.528-1.344 0-2.32-.672-2.496-2.032H1.791zm17.872-8.352c-2.32 0-4.144 1.456-4.144 3.856v3.84c0 2.416 1.824 3.856 4.144 3.856 2.288 0 4.112-1.44 4.112-3.856v-3.84c0-2.4-1.824-3.856-4.112-3.856zm0 10.384c-1.328 0-2.368-.656-2.704-1.808a3.796 3.796 0 0 1-.176-1.2v-3.2c0-.464.064-.864.176-1.2.336-1.152 1.376-1.824 2.704-1.824 1.28 0 2.352.672 2.688 1.824.112.336.176.736.176 1.2v3.2c0 .464-.064.864-.176 1.2-.336 1.152-1.408 1.808-2.688 1.808zM30.194 82.64c-2.32 0-4.144 1.456-4.144 3.856v3.84c0 2.416 1.824 3.856 4.144 3.856 2.288 0 4.112-1.44 4.112-3.856v-3.84c0-2.4-1.824-3.856-4.112-3.856zm0 10.384c-1.328 0-2.368-.656-2.704-1.808a3.796 3.796 0 0 1-.176-1.2v-3.2c0-.464.064-.864.176-1.2.336-1.152 1.376-1.824 2.704-1.824 1.28 0 2.352.672 2.688 1.824.112.336.176.736.176 1.2v3.2c0 .464-.064.864-.176 1.2-.336 1.152-1.408 1.808-2.688 1.808zM40.725 82.64c-2.32 0-4.144 1.456-4.144 3.856v3.84c0 2.416 1.824 3.856 4.144 3.856 2.288 0 4.112-1.44 4.112-3.856v-3.84c0-2.4-1.824-3.856-4.112-3.856zm0 10.384c-1.328 0-2.368-.656-2.704-1.808a3.796 3.796 0 0 1-.176-1.2v-3.2c0-.464.064-.864.176-1.2.336-1.152 1.376-1.824 2.704-1.824 1.28 0 2.352.672 2.688 1.824.112.336.176.736.176 1.2v3.2c0 .464-.064.864-.176 1.2-.336 1.152-1.408 1.808-2.688 1.808z" fill="#21293E"/><path d="M79.5 5v354.5h1321" stroke="#B38144"/><path stroke="#EBEBEB" stroke-width="2" d="M76 270h1325M76 181h1325M76 85h1325"/><circle cx="80" cy="270" r="3" fill="#B38144"/><circle cx="80" cy="181" r="3" fill="#B38144"/><circle cx="80" cy="86" r="3" fill="#B38144"/><mask id="a" maskUnits="userSpaceOnUse" x="91" y="0" width="1299" height="352"><path fill="#C4C4C4" d="M91 0h1299v352H91z"/></mask><g mask="url(#a)"><path d="M127.768 319.967L89 324.347V355h1303V11l-150.04 37.952-40.27-7.785-20.14 24.328-28.2-41.844-93.65 155.7-24.16-11.678-56.392-67.145-42.292 14.596-25.174 84.662-20.139 5.353-25.174 66.172h-21.146l-29.201 66.659-27.188 11.678-34.237-11.678-37.257-51.575-13.09 18.976-40.279-34.06-31.215 29.194-25.174 4.866-29.202-34.06-14.097 20.436-10.07-20.436-39.774 20.436-13.091-10.705-23.663 10.705-24.671 38.925-13.09-17.03h-33.733l-15.104-13.137h-20.14l-6.041-29.194-28.699 34.06-23.159-13.624-9.567-20.436-24.166 15.084-11.077-15.084-15.104 48.656-33.733 10.705-16.615-10.705-8.559-14.596-44.306-13.624-22.153 28.22z" fill="#B38144" fill-opacity=".08" stroke="#B38144" stroke-width="4"/></g></svg>