<svg width="603" height="381" fill="none" xmlns="http://www.w3.org/2000/svg"><path d="M14.28 335.64c-2.32 0-4.144 1.456-4.144 3.856v3.84c0 2.416 1.824 3.856 4.144 3.856 2.288 0 4.112-1.44 4.112-3.856v-3.84c0-2.4-1.824-3.856-4.112-3.856zm0 10.384c-1.328 0-2.368-.656-2.704-1.808a3.796 3.796 0 0 1-.176-1.2v-3.2c0-.464.064-.864.176-1.2.336-1.152 1.376-1.824 2.704-1.824 1.28 0 2.352.672 2.688 1.824.112.336.176.736.176 1.2v3.2c0 .464-.064.864-.176 1.2-.336 1.152-1.408 1.808-2.688 1.808zm7.767.496c.016-.048 0-.144-.016-.256a.778.778 0 0 0-.768-.544c-.448 0-.784.288-.784.736 0 .368.24.608.56.72l-.352 1.248h.784l.48-1.52c.048-.144.08-.272.096-.384zm6.233-10.88c-2.32 0-4.144 1.456-4.144 3.856v3.84c0 2.416 1.824 3.856 4.144 3.856 2.288 0 4.112-1.44 4.112-3.856v-3.84c0-2.4-1.824-3.856-4.112-3.856zm0 10.384c-1.328 0-2.368-.656-2.704-1.808a3.796 3.796 0 0 1-.176-1.2v-3.2c0-.464.064-.864.176-1.2.336-1.152 1.376-1.824 2.704-1.824 1.28 0 2.352.672 2.688 1.824.112.336.176.736.176 1.2v3.2c0 .464-.064.864-.176 1.2-.336 1.152-1.408 1.808-2.688 1.808zm10.531-10.384c-2.32 0-4.144 1.456-4.144 3.856v3.84c0 2.416 1.824 3.856 4.144 3.856 2.288 0 4.112-1.44 4.112-3.856v-3.84c0-2.4-1.824-3.856-4.112-3.856zm0 10.384c-1.328 0-2.368-.656-2.704-1.808a3.796 3.796 0 0 1-.176-1.2v-3.2c0-.464.064-.864.176-1.2.336-1.152 1.376-1.824 2.704-1.824 1.28 0 2.352.672 2.688 1.824a3.8 3.8 0 0 1 .176 1.2v3.2a3.8 3.8 0 0 1-.176 1.2c-.336 1.152-1.408 1.808-2.688 1.808zM13.48 295h5.344v-1.2h-6.56v5.408c.752-.24 1.76-.352 2.784-.352 1.584 0 3.12.56 3.12 2.624 0 1.904-1.424 2.512-2.56 2.512-1.28 0-2.24-.672-2.384-1.904H11.96c.176 2.032 1.728 3.088 3.664 3.088 2.336 0 3.856-1.472 3.856-3.728.08-2.752-2.048-3.76-4.288-3.76a6.78 6.78 0 0 0-1.712.208V295zm9.473 9.52c.016-.048 0-.144-.016-.256a.778.778 0 0 0-.768-.544c-.448 0-.784.288-.784.736 0 .368.24.608.56.72l-.352 1.248h.784l.48-1.52c.048-.144.08-.272.096-.384zm6.233-10.88c-2.32 0-4.144 1.456-4.144 3.856v3.84c0 2.416 1.824 3.856 4.144 3.856 2.288 0 4.112-1.44 4.112-3.856v-3.84c0-2.4-1.824-3.856-4.112-3.856zm0 10.384c-1.328 0-2.368-.656-2.704-1.808a3.796 3.796 0 0 1-.176-1.2v-3.2c0-.464.064-.864.176-1.2.336-1.152 1.376-1.824 2.704-1.824 1.28 0 2.352.672 2.688 1.824a3.8 3.8 0 0 1 .176 1.2v3.2a3.8 3.8 0 0 1-.176 1.2c-.336 1.152-1.408 1.808-2.688 1.808zm10.532-10.384c-2.32 0-4.145 1.456-4.145 3.856v3.84c0 2.416 1.825 3.856 4.145 3.856 2.287 0 4.111-1.44 4.111-3.856v-3.84c0-2.4-1.824-3.856-4.111-3.856zm0 10.384c-1.329 0-2.369-.656-2.705-1.808a3.796 3.796 0 0 1-.175-1.2v-3.2c0-.464.063-.864.175-1.2.337-1.152 1.377-1.824 2.705-1.824 1.28 0 2.351.672 2.688 1.824.111.336.175.736.175 1.2v3.2c0 .464-.064.864-.175 1.2-.337 1.152-1.408 1.808-2.688 1.808zM5.96 252.856v9.088H3.752V263h5.696v-1.056H7.224V251.8H4.008v1.056H5.96zm9.226-1.216c-2.32 0-4.144 1.456-4.144 3.856v3.84c0 2.416 1.824 3.856 4.144 3.856 2.288 0 4.112-1.44 4.112-3.856v-3.84c0-2.4-1.824-3.856-4.112-3.856zm0 10.384c-1.328 0-2.368-.656-2.704-1.808a3.796 3.796 0 0 1-.176-1.2v-3.2c0-.464.064-.864.176-1.2.336-1.152 1.376-1.824 2.704-1.824 1.28 0 2.352.672 2.688 1.824a3.8 3.8 0 0 1 .176 1.2v3.2a3.8 3.8 0 0 1-.176 1.2c-.336 1.152-1.408 1.808-2.688 1.808zm7.767.496c.016-.048 0-.144-.016-.256a.778.778 0 0 0-.768-.544c-.448 0-.784.288-.784.736 0 .368.24.608.56.72l-.352 1.248h.784l.48-1.52c.048-.144.08-.272.096-.384zm6.233-10.88c-2.32 0-4.144 1.456-4.144 3.856v3.84c0 2.416 1.824 3.856 4.144 3.856 2.288 0 4.112-1.44 4.112-3.856v-3.84c0-2.4-1.824-3.856-4.112-3.856zm0 10.384c-1.328 0-2.368-.656-2.704-1.808a3.796 3.796 0 0 1-.176-1.2v-3.2c0-.464.064-.864.176-1.2.336-1.152 1.376-1.824 2.704-1.824 1.28 0 2.352.672 2.688 1.824a3.8 3.8 0 0 1 .176 1.2v3.2a3.8 3.8 0 0 1-.176 1.2c-.336 1.152-1.408 1.808-2.688 1.808zm10.532-10.384c-2.32 0-4.145 1.456-4.145 3.856v3.84c0 2.416 1.825 3.856 4.145 3.856 2.287 0 4.111-1.44 4.111-3.856v-3.84c0-2.4-1.824-3.856-4.111-3.856zm0 10.384c-1.329 0-2.369-.656-2.705-1.808a3.796 3.796 0 0 1-.175-1.2v-3.2c0-.464.063-.864.175-1.2.337-1.152 1.377-1.824 2.705-1.824 1.28 0 2.351.672 2.688 1.824.111.336.175.736.175 1.2v3.2c0 .464-.064.864-.175 1.2-.337 1.152-1.408 1.808-2.688 1.808zM5.256 210.792c2.544 0 2.464 2.48 1.104 4.144l-4.624 5.776V221h7.056v-1.184h-4.88l3.648-4.496c.816-1.024 1.072-2.144.96-3.104-.128-1.424-1.248-2.576-3.232-2.576-2.16 0-3.232 1.088-3.344 3.088h1.12c.112-1.344.848-1.936 2.192-1.936zm9.696-1.152c-2.32 0-4.144 1.456-4.144 3.856v3.84c0 2.416 1.824 3.856 4.144 3.856 2.288 0 4.112-1.44 4.112-3.856v-3.84c0-2.4-1.824-3.856-4.112-3.856zm0 10.384c-1.328 0-2.368-.656-2.704-1.808a3.796 3.796 0 0 1-.176-1.2v-3.2c0-.464.064-.864.176-1.2.336-1.152 1.376-1.824 2.704-1.824 1.28 0 2.352.672 2.688 1.824.112.336.176.736.176 1.2v3.2c0 .464-.064.864-.176 1.2-.336 1.152-1.408 1.808-2.688 1.808zm7.767.496c.016-.048 0-.144-.016-.256a.778.778 0 0 0-.768-.544c-.448 0-.784.288-.784.736 0 .368.24.608.56.72l-.352 1.248h.784l.48-1.52c.048-.144.08-.272.096-.384zm6.233-10.88c-2.32 0-4.144 1.456-4.144 3.856v3.84c0 2.416 1.824 3.856 4.144 3.856 2.288 0 4.112-1.44 4.112-3.856v-3.84c0-2.4-1.824-3.856-4.112-3.856zm0 10.384c-1.328 0-2.368-.656-2.704-1.808a3.796 3.796 0 0 1-.176-1.2v-3.2c0-.464.064-.864.176-1.2.336-1.152 1.376-1.824 2.704-1.824 1.28 0 2.352.672 2.688 1.824.112.336.176.736.176 1.2v3.2c0 .464-.064.864-.176 1.2-.336 1.152-1.408 1.808-2.688 1.808zm10.531-10.384c-2.32 0-4.144 1.456-4.144 3.856v3.84c0 2.416 1.824 3.856 4.144 3.856 2.288 0 4.112-1.44 4.112-3.856v-3.84c0-2.4-1.824-3.856-4.112-3.856zm0 10.384c-1.328 0-2.368-.656-2.704-1.808a3.796 3.796 0 0 1-.176-1.2v-3.2c0-.464.064-.864.176-1.2.336-1.152 1.376-1.824 2.704-1.824 1.28 0 2.352.672 2.688 1.824.112.336.176.736.176 1.2v3.2c0 .464-.064.864-.176 1.2-.336 1.152-1.408 1.808-2.688 1.808zM6.256 168.792c2.544 0 2.464 2.48 1.104 4.144l-4.624 5.776V179h7.056v-1.184h-4.88l3.648-4.496c.816-1.024 1.072-2.144.96-3.104-.128-1.424-1.248-2.576-3.232-2.576-2.16 0-3.232 1.088-3.344 3.088h1.12c.112-1.344.848-1.936 2.192-1.936zm6.896.208h5.344v-1.2h-6.56v5.408c.752-.24 1.76-.352 2.784-.352 1.584 0 3.12.56 3.12 2.624 0 1.904-1.424 2.512-2.56 2.512-1.28 0-2.24-.672-2.384-1.904h-1.264c.176 2.032 1.728 3.088 3.664 3.088 2.336 0 3.856-1.472 3.856-3.728.08-2.752-2.048-3.76-4.288-3.76a6.78 6.78 0 0 0-1.712.208V169zm9.473 9.52c.016-.048 0-.144-.016-.256a.778.778 0 0 0-.768-.544c-.448 0-.784.288-.784.736 0 .368.24.608.56.72l-.352 1.248h.784l.48-1.52c.048-.144.08-.272.096-.384zm6.233-10.88c-2.32 0-4.144 1.456-4.144 3.856v3.84c0 2.416 1.824 3.856 4.144 3.856 2.288 0 4.112-1.44 4.112-3.856v-3.84c0-2.4-1.824-3.856-4.112-3.856zm0 10.384c-1.328 0-2.368-.656-2.704-1.808a3.796 3.796 0 0 1-.176-1.2v-3.2c0-.464.064-.864.176-1.2.336-1.152 1.376-1.824 2.704-1.824 1.28 0 2.352.672 2.688 1.824.112.336.176.736.176 1.2v3.2c0 .464-.064.864-.176 1.2-.336 1.152-1.408 1.808-2.688 1.808zM39.39 167.64c-2.32 0-4.144 1.456-4.144 3.856v3.84c0 2.416 1.824 3.856 4.144 3.856 2.288 0 4.112-1.44 4.112-3.856v-3.84c0-2.4-1.824-3.856-4.112-3.856zm0 10.384c-1.328 0-2.368-.656-2.704-1.808a3.796 3.796 0 0 1-.176-1.2v-3.2c0-.464.064-.864.176-1.2.336-1.152 1.376-1.824 2.704-1.824 1.28 0 2.352.672 2.688 1.824.112.336.176.736.176 1.2v3.2c0 .464-.064.864-.176 1.2-.336 1.152-1.408 1.808-2.688 1.808zM.768 132.992c.176 2.016 1.696 3.2 3.68 3.2 2.4 0 3.872-1.552 3.872-3.696 0-1.808-1.392-3.344-3.248-3.296l3.232-4.192v-.208h-7.04v1.136H6.24l-3.072 3.968v.304c1.888-.496 3.888.304 3.888 2.288-.016 1.6-1.072 2.528-2.624 2.528-1.344 0-2.32-.672-2.496-2.032H.768zm13.73-8.352c-2.32 0-4.143 1.456-4.143 3.856v3.84c0 2.416 1.824 3.856 4.144 3.856 2.288 0 4.112-1.44 4.112-3.856v-3.84c0-2.4-1.824-3.856-4.112-3.856zm0 10.384c-1.327 0-2.367-.656-2.703-1.808a3.796 3.796 0 0 1-.176-1.2v-3.2c0-.464.064-.864.176-1.2.336-1.152 1.376-1.824 2.704-1.824 1.28 0 2.352.672 2.688 1.824a3.8 3.8 0 0 1 .176 1.2v3.2a3.8 3.8 0 0 1-.176 1.2c-.336 1.152-1.408 1.808-2.688 1.808zm7.768.496c.016-.048 0-.144-.016-.256a.778.778 0 0 0-.768-.544c-.448 0-.784.288-.784.736 0 .368.24.608.56.72l-.352 1.248h.784l.48-1.52c.048-.144.08-.272.096-.384zm6.233-10.88c-2.32 0-4.144 1.456-4.144 3.856v3.84c0 2.416 1.824 3.856 4.144 3.856 2.288 0 4.112-1.44 4.112-3.856v-3.84c0-2.4-1.824-3.856-4.112-3.856zm0 10.384c-1.328 0-2.368-.656-2.704-1.808a3.796 3.796 0 0 1-.176-1.2v-3.2c0-.464.064-.864.176-1.2.336-1.152 1.376-1.824 2.704-1.824 1.28 0 2.352.672 2.688 1.824a3.8 3.8 0 0 1 .176 1.2v3.2a3.8 3.8 0 0 1-.176 1.2c-.336 1.152-1.408 1.808-2.688 1.808zM39.03 124.64c-2.32 0-4.144 1.456-4.144 3.856v3.84c0 2.416 1.824 3.856 4.144 3.856 2.288 0 4.112-1.44 4.112-3.856v-3.84c0-2.4-1.824-3.856-4.112-3.856zm0 10.384c-1.328 0-2.368-.656-2.704-1.808a3.796 3.796 0 0 1-.176-1.2v-3.2c0-.464.064-.864.176-1.2.336-1.152 1.376-1.824 2.704-1.824 1.28 0 2.352.672 2.688 1.824.112.336.176.736.176 1.2v3.2c0 .464-.064.864-.176 1.2-.336 1.152-1.408 1.808-2.688 1.808zM1.768 96.992c.176 2.016 1.696 3.2 3.68 3.2 2.4 0 3.872-1.552 3.872-3.696 0-1.808-1.392-3.344-3.248-3.296l3.232-4.192V88.8h-7.04v1.136H7.24l-3.072 3.968v.304c1.888-.496 3.888.304 3.888 2.288-.016 1.6-1.072 2.528-2.624 2.528-1.344 0-2.32-.672-2.496-2.032H1.768zM12.698 90h5.345v-1.2h-6.56v5.408c.752-.24 1.76-.352 2.784-.352 1.584 0 3.12.56 3.12 2.624 0 1.904-1.424 2.512-2.56 2.512-1.28 0-2.24-.672-2.384-1.904h-1.264c.176 2.032 1.728 3.088 3.664 3.088 2.336 0 3.856-1.472 3.856-3.728.08-2.752-2.048-3.76-4.288-3.76a6.78 6.78 0 0 0-1.712.208V90zm9.474 9.52c.016-.048 0-.144-.016-.256a.778.778 0 0 0-.768-.544c-.448 0-.784.288-.784.736 0 .368.24.608.56.72l-.352 1.248h.784l.48-1.52c.048-.144.08-.272.096-.384zm6.233-10.88c-2.32 0-4.144 1.456-4.144 3.856v3.84c0 2.416 1.824 3.856 4.144 3.856 2.288 0 4.112-1.44 4.112-3.856v-3.84c0-2.4-1.824-3.856-4.112-3.856zm0 10.384c-1.328 0-2.368-.656-2.704-1.808a3.796 3.796 0 0 1-.176-1.2v-3.2c0-.464.064-.864.176-1.2.336-1.152 1.376-1.824 2.704-1.824 1.28 0 2.352.672 2.688 1.824.112.336.176.736.176 1.2v3.2c0 .464-.064.864-.176 1.2-.336 1.152-1.408 1.808-2.688 1.808zM38.936 88.64c-2.32 0-4.144 1.456-4.144 3.856v3.84c0 2.416 1.824 3.856 4.144 3.856 2.288 0 4.112-1.44 4.112-3.856v-3.84c0-2.4-1.824-3.856-4.112-3.856zm0 10.384c-1.328 0-2.368-.656-2.704-1.808a3.796 3.796 0 0 1-.176-1.2v-3.2c0-.464.064-.864.176-1.2.336-1.152 1.376-1.824 2.704-1.824 1.28 0 2.352.672 2.688 1.824a3.8 3.8 0 0 1 .176 1.2v3.2a3.8 3.8 0 0 1-.176 1.2c-.336 1.152-1.408 1.808-2.688 1.808zM7.472 56.648h1.152V55.56H7.472v-7.6H6.16L.48 56.072v.576h5.776v2.512h1.216v-2.512zm-1.088-7.184l-.048 3.328v2.816H2.08l4.288-6.144h.016zm8.302-1.824c-2.32 0-4.144 1.456-4.144 3.856v3.84c0 2.416 1.824 3.856 4.144 3.856 2.288 0 4.112-1.44 4.112-3.856v-3.84c0-2.4-1.824-3.856-4.112-3.856zm0 10.384c-1.328 0-2.368-.656-2.704-1.808a3.796 3.796 0 0 1-.176-1.2v-3.2c0-.464.064-.864.176-1.2.336-1.152 1.376-1.824 2.704-1.824 1.28 0 2.352.672 2.688 1.824a3.8 3.8 0 0 1 .176 1.2v3.2a3.8 3.8 0 0 1-.176 1.2c-.336 1.152-1.408 1.808-2.688 1.808zm7.767.496c.016-.048 0-.144-.016-.256a.778.778 0 0 0-.768-.544c-.448 0-.784.288-.784.736 0 .368.24.608.56.72l-.352 1.248h.784l.48-1.52c.048-.144.08-.272.096-.384zm6.233-10.88c-2.32 0-4.144 1.456-4.144 3.856v3.84c0 2.416 1.824 3.856 4.144 3.856 2.288 0 4.112-1.44 4.112-3.856v-3.84c0-2.4-1.824-3.856-4.112-3.856zm0 10.384c-1.328 0-2.368-.656-2.704-1.808a3.796 3.796 0 0 1-.176-1.2v-3.2c0-.464.064-.864.176-1.2.336-1.152 1.376-1.824 2.704-1.824 1.28 0 2.352.672 2.688 1.824a3.8 3.8 0 0 1 .176 1.2v3.2a3.8 3.8 0 0 1-.176 1.2c-.336 1.152-1.408 1.808-2.688 1.808zM39.218 47.64c-2.32 0-4.145 1.456-4.145 3.856v3.84c0 2.416 1.825 3.856 4.145 3.856 2.287 0 4.111-1.44 4.111-3.856v-3.84c0-2.4-1.824-3.856-4.111-3.856zm0 10.384c-1.329 0-2.369-.656-2.705-1.808a3.796 3.796 0 0 1-.175-1.2v-3.2c0-.464.063-.864.175-1.2.337-1.152 1.377-1.824 2.705-1.824 1.28 0 2.351.672 2.688 1.824.111.336.175.736.175 1.2v3.2c0 .464-.064.864-.175 1.2-.337 1.152-1.408 1.808-2.688 1.808zM8.472 13.648h1.152V12.56H8.472v-7.6H7.16l-5.68 8.112v.576h5.776v2.512h1.216v-2.512zM7.384 6.464l-.048 3.328v2.816H3.08l4.288-6.144h.016zM12.886 6h5.344V4.8h-6.56v5.408c.752-.24 1.76-.352 2.784-.352 1.584 0 3.12.56 3.12 2.624 0 1.904-1.424 2.512-2.56 2.512-1.28 0-2.24-.672-2.384-1.904h-1.264c.176 2.032 1.728 3.088 3.664 3.088 2.336 0 3.856-1.472 3.856-3.728.08-2.752-2.048-3.76-4.288-3.76a6.78 6.78 0 0 0-1.712.208V6zm9.474 9.52c.015-.048 0-.144-.017-.256a.778.778 0 0 0-.767-.544c-.448 0-.785.288-.785.736 0 .368.24.608.56.72L21 17.424h.784l.48-1.52c.047-.144.08-.272.096-.384zm6.233-10.88c-2.32 0-4.145 1.456-4.145 3.856v3.84c0 2.416 1.825 3.856 4.145 3.856 2.288 0 4.112-1.44 4.112-3.856v-3.84c0-2.4-1.824-3.856-4.112-3.856zm0 10.384c-1.328 0-2.369-.656-2.704-1.808a3.796 3.796 0 0 1-.177-1.2v-3.2c0-.464.064-.864.177-1.2.335-1.152 1.376-1.824 2.704-1.824 1.28 0 2.352.672 2.688 1.824.111.336.175.736.175 1.2v3.2c0 .464-.064.864-.175 1.2-.336 1.152-1.409 1.808-2.688 1.808zM39.123 4.64c-2.32 0-4.143 1.456-4.143 3.856v3.84c0 2.416 1.824 3.856 4.144 3.856 2.288 0 4.112-1.44 4.112-3.856v-3.84c0-2.4-1.824-3.856-4.112-3.856zm0 10.384c-1.327 0-2.367-.656-2.703-1.808a3.796 3.796 0 0 1-.176-1.2v-3.2c0-.464.064-.864.176-1.2.336-1.152 1.376-1.824 2.704-1.824 1.28 0 2.352.672 2.688 1.824a3.8 3.8 0 0 1 .176 1.2v3.2a3.8 3.8 0 0 1-.176 1.2c-.336 1.152-1.408 1.808-2.688 1.808zM94.6 371.384c0 2.208-1.776 2.8-3.584 2.848v-5.696c1.824.048 3.584.64 3.584 2.848zm-8.848 0c0-2.208 1.76-2.8 3.568-2.848v5.696c-1.76-.048-3.568-.64-3.568-2.848zm3.552 5.632h1.728v-1.184c2.88-.08 5.44-1.232 5.44-4.448S93.96 367 91.048 366.92v-1.152h-1.744v1.152c-2.864.08-5.424 1.344-5.424 4.464s2.56 4.368 5.424 4.448v1.184zm12.602-7.904c-2.096 0-3.952 1.296-4 3.872-.08 2.608 1.792 4.24 4.336 4.192.976 0 2.016-.256 2.912-.656l-.224-1.296c-.912.4-1.84.528-2.8.48-1.408 0-2.512-.832-2.512-2.24h5.696c.512-2.56-.704-4.352-3.408-4.352zm-.016 1.344c1.104 0 2.064.608 2.016 1.776H99.65c.24-1.216 1.088-1.776 2.24-1.776zm11.613.848c0-1.936-1.92-2.032-3.344-2.032h-2.96v7.744h3.392c1.52 0 3.328-.208 3.328-2.208 0-.928-.528-1.696-1.472-1.952.768-.272 1.056-.864 1.056-1.552zm-4.608 4.368v-2.096h1.44c.8 0 1.888.064 1.888 1.056 0 1.04-1.056 1.04-1.808 1.04h-1.52zm0-3.28v-1.84h1.36c.688 0 1.536.08 1.536.928 0 .832-.864.912-1.536.912h-1.36zm8.563-1.856c0-1.36-.976-1.568-2.256-1.312l.016 1.2c.896 0 .816.432.816 1.328v9.216h1.744v-4.496c.64.384 1.312.576 1.952.608 2.064.096 3.856-1.504 3.856-3.984 0-2.112-1.216-4.016-3.488-4.016-1.104 0-2.192.384-2.64 1.456zm.288 2.24c0-1.152.8-2.144 2-2.144 1.392 0 2.08 1.184 2.08 2.464 0 1.568-.944 2.416-2.112 2.464-.624.032-1.328-.176-1.968-.624v-2.16zm12.632 2.928c.048 1.52.992 1.52 2.208 1.312l-.032-.992c-.832.08-.8-.384-.8-1.104v-3.04c0-2.128-1.664-2.784-3.536-2.784-1.024 0-2.064.208-2.848.608l.256 1.248c.96-.48 4.432-1.152 4.432.88v.768c-.688-.384-1.536-.576-2.288-.576-1.696 0-3.04.88-2.992 2.72 0 1.504 1.36 2.4 2.768 2.4 1.088 0 2.32-.416 2.832-1.44zm-.32-1.344c-.176.976-1.248 1.408-2.16 1.408-.704 0-1.408-.352-1.408-1.12 0-.944.72-1.44 1.568-1.456a3.935 3.935 0 0 1 2 .528v.64zm9.646-3.536V377h1.712v-7.712h-5.872l-.576 4.912c-.128 1.136-.256 1.712-1.6 1.52l-.032 1.28c2.464.352 3.12-.336 3.344-2.736l.368-3.44h2.656zm7.195 6.176c1.744 0 3.408-.72 3.408-2.656 0-1.968-1.632-2.656-3.392-2.656h-1.552v-2.4h-1.68V377h3.216zm-.016-3.984c.944 0 1.728.416 1.728 1.328 0 .912-.784 1.328-1.728 1.328h-1.52v-2.656h1.52zm94.757-1.456l-4.56-5.792h-.688V377h1.872v-7.008l3.248 4.144h.256l3.232-4.144V377h1.872v-11.232h-.688l-4.544 5.792zm12.66 4.144c.048 1.52.992 1.52 2.208 1.312l-.032-.992c-.832.08-.8-.384-.8-1.104v-3.04c0-2.128-1.664-2.784-3.536-2.784-1.024 0-2.064.208-2.848.608l.256 1.248c.96-.48 4.432-1.152 4.432.88v.768c-.688-.384-1.536-.576-2.288-.576-1.696 0-3.04.88-2.992 2.72 0 1.504 1.36 2.4 2.768 2.4 1.088 0 2.32-.416 2.832-1.44zm-.32-1.344c-.176.976-1.248 1.408-2.16 1.408-.704 0-1.408-.352-1.408-1.12 0-.944.72-1.44 1.568-1.456a3.935 3.935 0 0 1 2 .528v.64zm5.838-3.824c0-1.36-.976-1.568-2.256-1.312l.016 1.2c.896 0 .816.432.816 1.328v9.216h1.744v-4.496c.64.384 1.312.576 1.952.608 2.064.096 3.856-1.504 3.856-3.984 0-2.112-1.216-4.016-3.488-4.016-1.104 0-2.192.384-2.64 1.456zm.288 2.24c0-1.152.8-2.144 2-2.144 1.392 0 2.08 1.184 2.08 2.464 0 1.568-.944 2.416-2.112 2.464-.624.032-1.328-.176-1.968-.624v-2.16zm10.922 4.208v-6.176h2.496v-1.52h-6.672v1.52h2.48v6.176h1.696zm131.148-2.304l1.104 2.32h1.936v-.24l-5.152-11.04h-.864l-5.184 11.04v.24h1.952l1.088-2.32h5.12zm-2.544-6.048l1.952 4.48h-3.92l1.968-4.48zm6.754.656V377h1.76v-6.176h3.584V377h1.728v-7.712h-7.072zm11.088 1.248c0-1.36-.976-1.568-2.256-1.312l.016 1.2c.896 0 .816.432.816 1.328v9.216h1.744v-4.496c.64.384 1.312.576 1.952.608 2.064.096 3.856-1.504 3.856-3.984 0-2.112-1.216-4.016-3.488-4.016-1.104 0-2.192.384-2.64 1.456zm.288 2.24c0-1.152.8-2.144 2-2.144 1.392 0 2.08 1.184 2.08 2.464 0 1.568-.944 2.416-2.112 2.464-.624.032-1.328-.176-1.968-.624v-2.16zm11.144-3.664c-2.096 0-3.952 1.296-4 3.872-.08 2.608 1.792 4.24 4.336 4.192.976 0 2.016-.256 2.912-.656l-.224-1.296c-.912.4-1.84.528-2.8.48-1.408 0-2.512-.832-2.512-2.24h5.696c.512-2.56-.704-4.352-3.408-4.352zm-.016 1.344c1.104 0 2.064.608 2.016 1.776h-4.256c.24-1.216 1.088-1.776 2.24-1.776zm10.798.368V377h1.712v-7.712h-5.872l-.576 4.912c-.128 1.136-.256 1.712-1.6 1.52l-.032 1.28c2.464.352 3.12-.336 3.344-2.736l.368-3.44h2.656zm7.195 6.176c1.744 0 3.408-.72 3.408-2.656 0-1.968-1.632-2.656-3.392-2.656h-1.552v-2.4h-1.68V377h3.216zm-.016-3.984c.944 0 1.728.416 1.728 1.328 0 .912-.784 1.328-1.728 1.328h-1.52v-2.656h1.52zm128.773-1.456l-4.56-5.792h-.688V377h1.872v-7.008l3.248 4.144h.256l3.232-4.144V377h1.872v-11.232h-.688l-4.544 5.792zm12.66 4.144c.048 1.52.992 1.52 2.208 1.312l-.032-.992c-.832.08-.8-.384-.8-1.104v-3.04c0-2.128-1.664-2.784-3.536-2.784-1.024 0-2.064.208-2.848.608l.256 1.248c.96-.48 4.432-1.152 4.432.88v.768c-.688-.384-1.536-.576-2.288-.576-1.696 0-3.04.88-2.992 2.72 0 1.504 1.36 2.4 2.768 2.4 1.088 0 2.32-.416 2.832-1.44zm-.32-1.344c-.176.976-1.248 1.408-2.16 1.408-.704 0-1.408-.352-1.408-1.12 0-.944.72-1.44 1.568-1.456a3.935 3.935 0 0 1 2 .528v.64zm5.454-8.256c.112 1.408 1.12 2.256 2.448 2.256 1.408 0 2.4-.88 2.512-2.256a23.915 23.915 0 0 0-1.12-.128c-.128.736-.688 1.008-1.408 1.008-.736-.016-1.248-.336-1.344-1.008l-1.088.128zm-.88 10.912h-.48v-7.728h1.696v4.64l4.832-4.656h.544V377h-1.68v-4.656l-4.912 4.672z" fill="#21293E"/><path d="M83 0v342h503" stroke="#9A9A9A"/><path stroke="#000" stroke-opacity=".08" d="M80 131.5h506m-506 43h506m-506 42h506M82 8.5h506m-506 43h506m-506 42h506m-508 164h506m-506 42h506"/><circle cx="83" cy="132" r="2" fill="#9A9A9A"/><circle cx="83" cy="93" r="2" fill="#9A9A9A"/><circle cx="83" cy="52" r="2" fill="#9A9A9A"/><circle cx="83" cy="8" r="2" fill="#9A9A9A"/><circle cx="256" cy="342" r="4" fill="#9A9A9A"/><circle cx="424" cy="342" r="4" fill="#9A9A9A"/><circle cx="583" cy="342" r="4" fill="#9A9A9A"/><circle cx="83" cy="175" r="2" fill="#9A9A9A"/><circle cx="83" cy="217" r="2" fill="#9A9A9A"/><circle cx="83" cy="258" r="2" fill="#9A9A9A"/><circle cx="83" cy="300" r="2" fill="#9A9A9A"/><path d="M117 58l145 57 169 118 139 54.5" stroke="#19B4EE" stroke-width="4"/><circle cx="569" cy="288" r="4.5" fill="#fff" stroke="#19B4EE" stroke-width="3"/><circle cx="117" cy="58" r="4.5" fill="#fff" stroke="#19B4EE" stroke-width="3"/><path d="M54.398 340.714c2.034 0 3.688-1.731 3.688-3.858 0-2.126-1.654-3.856-3.688-3.856h-3.562v8.986h-.922v.955h.922V347h.955v-4.059h3.244v-.955H51.79v-1.272h2.608zm-2.607-6.759h2.608c1.507 0 2.733 1.301 2.733 2.901 0 1.601-1.226 2.903-2.733 2.903H51.79v-5.804zm2.607-35.241c2.034 0 3.688-1.731 3.688-3.858 0-2.126-1.654-3.856-3.688-3.856h-3.562v8.986h-.922v.955h.922V305h.955v-4.059h3.244v-.955H51.79v-1.272h2.608zm-2.607-6.759h2.608c1.507 0 2.733 1.301 2.733 2.901 0 1.601-1.226 2.903-2.733 2.903H51.79v-5.804zm2.607-35.241c2.034 0 3.688-1.731 3.688-3.858 0-2.126-1.654-3.856-3.688-3.856h-3.562v8.986h-.922v.955h.922V263h.955v-4.059h3.244v-.955H51.79v-1.272h2.608zm-2.607-6.759h2.608c1.507 0 2.733 1.301 2.733 2.901 0 1.601-1.226 2.903-2.733 2.903H51.79v-5.804zm2.607-35.241c2.034 0 3.688-1.731 3.688-3.858 0-2.126-1.654-3.856-3.688-3.856h-3.562v8.986h-.922v.955h.922V221h.955v-4.059h3.244v-.955H51.79v-1.272h2.608zm-2.607-6.759h2.608c1.507 0 2.733 1.301 2.733 2.901 0 1.601-1.226 2.903-2.733 2.903H51.79v-5.804zm2.607-35.241c2.034 0 3.688-1.731 3.688-3.858 0-2.126-1.654-3.856-3.688-3.856h-3.562v8.986h-.922v.955h.922V179h.955v-4.059h3.244v-.955H51.79v-1.272h2.608zm-2.607-6.759h2.608c1.507 0 2.733 1.301 2.733 2.901 0 1.601-1.226 2.903-2.733 2.903H51.79v-5.804zm2.607-36.241c2.034 0 3.688-1.731 3.688-3.858 0-2.126-1.654-3.856-3.688-3.856h-3.562v8.986h-.922v.955h.922V136h.955v-4.059h3.244v-.955H51.79v-1.272h2.608zm-2.607-6.759h2.608c1.507 0 2.733 1.301 2.733 2.901 0 1.601-1.226 2.903-2.733 2.903H51.79v-5.804zm2.607-29.241c2.034 0 3.688-1.73 3.688-3.858 0-2.126-1.654-3.856-3.688-3.856h-3.562v8.986h-.922v.955h.922V100h.955v-4.06h3.244v-.954H51.79v-1.272h2.608zm-2.607-6.76h2.608c1.507 0 2.733 1.302 2.733 2.902s-1.226 2.903-2.733 2.903H51.79v-5.805zm2.607-34.24c2.034 0 3.688-1.73 3.688-3.858 0-2.126-1.654-3.856-3.688-3.856h-3.562v8.986h-.922v.955h.922V59h.955v-4.06h3.244v-.954H51.79v-1.272h2.608zm-2.607-6.76h2.608c1.507 0 2.733 1.302 2.733 2.902s-1.226 2.903-2.733 2.903H51.79v-5.804zm2.607-36.24c2.034 0 3.688-1.73 3.688-3.858C58.087 3.73 56.433 2 54.398 2h-3.562v8.986h-.922v.955h.922V16h.955v-4.06h3.244v-.954H51.79V9.714h2.608zm-2.607-6.76h2.608c1.507 0 2.733 1.302 2.733 2.902 0 1.601-1.226 2.903-2.733 2.903H51.79V2.955z" fill="#21293E"/><circle cx="262" cy="116" r="4.5" fill="#fff" stroke="#19B4EE" stroke-width="3"/><circle cx="430" cy="233" r="4.5" fill="#fff" stroke="#19B4EE" stroke-width="3"/></svg>