<svg width="1396" height="395" fill="none" xmlns="http://www.w3.org/2000/svg"><path fill="#fff" d="M74 0h1322v354H74z"/><mask id="a" maskUnits="userSpaceOnUse" x="103" y="0" width="1264" height="349"><path fill="#fff" d="M103 0h1264v349H103z"/></mask><g mask="url(#a)"><path d="M146.5 328L97 338.5V353h1274.5V5L1327 26.5l-27-6.5-66.5 88.5-65-63.5-39.5 55.5-28.5-21.5-35.5 83.5-48 6-41.5 64-46 19.5-25 51.5-29 11.5-17.5 31.5h-37.5L787 331l-44.5-27.5-40 27.5-50.5-56.5-24.5 22-46 7-34.5-15-31-14-45 37.5-45-8.5-30-29-45.5 44.5-26.5-30.5-27.5 30.5-38.5 12-29.5-19-30 7-25.5-15.5-26.5 24.5z" fill="#1CD0C5" fill-opacity=".07" stroke="#1CD0C5" stroke-width="4"/></g><path d="M74 0v354h1322" stroke="#19B4EE"/><path stroke="#000" stroke-opacity=".08" d="M74 266.5h1322m-1322-90h1322M74 81.5h1322"/><circle cx="74" cy="266" r="3" fill="#F376A2"/><circle cx="74" cy="177" r="3" fill="#F376A2"/><circle cx="74" cy="82" r="3" fill="#F376A2"/><path d="M1296.21 384.096c2.14 0 2.08 2.304.88 3.76l-4.4 5.744v.4h7.05v-1.536h-4.32c1.67-2.144 2.39-3.152 2.98-3.824 2.1-2.752 1.17-5.968-2.13-5.968-2.19.016-3.33 1.136-3.37 3.264h1.5c.06-1.152.72-1.84 1.81-1.84zm12.02 7.552h1.08v-1.52h-1.08V382.8h-1.91l-5.29 8.016v.832h5.5V394h1.7v-2.352zm-1.49-6.672l-.1 2.736v2.48h-3.42l3.49-5.216h.03zm5.43 9.216c.6 0 1.08-.4 1.08-.992 0-.624-.48-1.008-1.08-1.008-.59 0-1.07.384-1.07 1.008 0 .592.48.992 1.07.992zm7.19-11.568c-2.32 0-4.18 1.456-4.18 3.856v3.872c0 2.416 1.86 3.856 4.18 3.856 2.29 0 4.14-1.44 4.14-3.856v-3.872c0-2.4-1.85-3.856-4.14-3.856zm0 9.936c-1.15 0-2.07-.56-2.31-1.632a5.67 5.67 0 0 1-.11-1.056v-2.896c0-.384.05-.736.11-1.056.24-1.088 1.16-1.664 2.31-1.664 1.15 0 2.05.576 2.29 1.664.06.32.11.672.11 1.056v2.896c0 .384-.05.736-.11 1.056-.24 1.072-1.14 1.632-2.29 1.632zm8.02-8.192h5.09V382.8h-6.61v5.6c.81-.192 1.9-.368 2.91-.32 1.44.08 2.67.64 2.64 2.384-.05 1.52-1.09 2.176-2.21 2.176-1.1 0-1.92-.56-2.03-1.728h-1.71c.17 2.08 1.68 3.28 3.69 3.28 2.61 0 3.99-1.76 3.99-3.776 0-2.736-1.91-3.68-4.26-3.728-.51 0-1.01.048-1.5.16v-2.48zm11.53 5.056h8.05v-1.504h-8.05v1.504zm13.83 1.424c.12 2.112 1.69 3.344 3.74 3.344 2.46 0 3.89-1.68 3.89-3.76 0-1.648-1.07-3.216-2.93-3.296l2.83-4.032v-.288h-7.09v1.504h4.52l-2.53 3.76v.32c1.53-.384 3.44.176 3.44 2.048 0 1.328-.87 2.128-2.16 2.128-1.15 0-1.95-.592-2.07-1.728h-1.64zm11.28-6.576v8.288h-2.05V394h5.92v-1.44h-2.08v-9.76h-3.58v1.472h1.79zm6.4 9.92c.6 0 1.08-.4 1.08-.992 0-.624-.48-1.008-1.08-1.008-.59 0-1.07.384-1.07 1.008 0 .592.48.992 1.07.992zm7.19-11.568c-2.32 0-4.18 1.456-4.18 3.856v3.872c0 2.416 1.86 3.856 4.18 3.856 2.29 0 4.14-1.44 4.14-3.856v-3.872c0-2.4-1.85-3.856-4.14-3.856zm0 9.936c-1.15 0-2.07-.56-2.31-1.632a5.67 5.67 0 0 1-.11-1.056v-2.896c0-.384.05-.736.11-1.056.24-1.088 1.16-1.664 2.31-1.664 1.15 0 2.05.576 2.29 1.664.06.32.11.672.11 1.056v2.896c0 .384-.05.736-.11 1.056-.24 1.072-1.14 1.632-2.29 1.632zm8.02-8.192h5.09V382.8h-6.61v5.6c.81-.192 1.9-.368 2.91-.32 1.44.08 2.67.64 2.64 2.384-.05 1.52-1.09 2.176-2.21 2.176-1.1 0-1.92-.56-2.03-1.728h-1.71c.17 2.08 1.68 3.28 3.69 3.28 2.61 0 3.99-1.76 3.99-3.776 0-2.736-1.91-3.68-4.26-3.728-.51 0-1.01.048-1.5.16v-2.48zm-1310.894 6.48c.128 2.112 1.696 3.344 3.744 3.344 2.464 0 3.888-1.68 3.888-3.76 0-1.648-1.072-3.216-2.928-3.296l2.832-4.032v-.288h-7.088v1.504h4.512l-2.528 3.76v.32c1.536-.384 3.44.176 3.44 2.048 0 1.328-.864 2.128-2.16 2.128-1.152 0-1.952-.592-2.064-1.728h-1.648zm11.283-6.576v8.288H83.97V394h5.92v-1.44h-2.08v-9.76h-3.584v1.472h1.792zm6.405 9.92c.592 0 1.072-.4 1.072-.992 0-.624-.48-1.008-1.072-1.008-.592 0-1.072.384-1.072 1.008 0 .592.48.992 1.072.992zm7.184-11.568c-2.32 0-4.176 1.456-4.176 3.856v3.872c0 2.416 1.856 3.856 4.176 3.856 2.288 0 4.144-1.44 4.144-3.856v-3.872c0-2.4-1.856-3.856-4.144-3.856zm0 9.936c-1.152 0-2.064-.56-2.304-1.632a5.345 5.345 0 0 1-.112-1.056v-2.896c0-.384.048-.736.112-1.056.24-1.088 1.152-1.664 2.304-1.664s2.048.576 2.288 1.664c.064.32.112.672.112 1.056v2.896c0 .384-.048.736-.112 1.056-.24 1.072-1.136 1.632-2.288 1.632zm8.02-8.192h5.088V382.8h-6.608v5.6c.816-.192 1.904-.368 2.912-.32 1.44.08 2.672.64 2.64 2.384-.048 1.52-1.088 2.176-2.208 2.176-1.104 0-1.92-.56-2.032-1.728h-1.712c.176 2.08 1.68 3.28 3.696 3.28 2.608 0 3.984-1.76 3.984-3.776 0-2.736-1.904-3.68-4.256-3.728-.512 0-1.008.048-1.504.16v-2.48zm11.537 5.056h8.048v-1.504h-8.048v1.504zm18.349-6.8c-2.32 0-4.176 1.456-4.176 3.856v3.872c0 2.416 1.856 3.856 4.176 3.856 2.288 0 4.144-1.44 4.144-3.856v-3.872c0-2.4-1.856-3.856-4.144-3.856zm0 9.936c-1.152 0-2.064-.56-2.304-1.632a5.345 5.345 0 0 1-.112-1.056v-2.896c0-.384.048-.736.112-1.056.24-1.088 1.152-1.664 2.304-1.664s2.048.576 2.288 1.664c.064.32.112.672.112 1.056v2.896c0 .384-.048.736-.112 1.056-.24 1.072-1.136 1.632-2.288 1.632zm5.972-1.712c.128 2.112 1.696 3.344 3.744 3.344 2.464 0 3.888-1.68 3.888-3.76 0-1.648-1.072-3.216-2.928-3.296l2.832-4.032v-.288h-7.088v1.504h4.512l-2.528 3.76v.32c1.536-.384 3.44.176 3.44 2.048 0 1.328-.864 2.128-2.16 2.128-1.152 0-1.952-.592-2.064-1.728h-1.648zm10.563 3.344c.592 0 1.072-.4 1.072-.992 0-.624-.48-1.008-1.072-1.008-.592 0-1.072.384-1.072 1.008 0 .592.48.992 1.072.992zm7.184-11.568c-2.32 0-4.176 1.456-4.176 3.856v3.872c0 2.416 1.856 3.856 4.176 3.856 2.288 0 4.144-1.44 4.144-3.856v-3.872c0-2.4-1.856-3.856-4.144-3.856zm0 9.936c-1.152 0-2.064-.56-2.304-1.632a5.345 5.345 0 0 1-.112-1.056v-2.896c0-.384.048-.736.112-1.056.24-1.088 1.152-1.664 2.304-1.664s2.048.576 2.288 1.664c.064.32.112.672.112 1.056v2.896c0 .384-.048.736-.112 1.056-.24 1.072-1.136 1.632-2.288 1.632zm10.052-9.824l-3.392 5.376c-.432.656-.72 1.504-.72 2.32 0 2.496 1.84 3.728 4.144 3.728 2.32 0 4.16-1.232 4.16-3.728 0-2.32-1.648-3.648-3.856-3.6-.352 0-.688.08-1.008.256l2.736-4.352h-2.064zm.032 9.84c-1.344 0-2.32-.752-2.32-2.144 0-1.392.96-2.16 2.32-2.16 1.344 0 2.32.768 2.32 2.16 0 1.392-.96 2.144-2.32 2.144zM793.694 290v-9.8h-.714v4.326h-5.894V280.2h-.7v9.8h.7v-4.816h5.894V290h.714zm9.015-3.388c0-4.662-7.084-4.662-7.084 0 0 4.648 7.084 4.648 7.084 0zm-6.412 0c0-3.85 5.74-3.85 5.74 0s-5.74 3.822-5.74 0zm13.322-1.666c0-1.568-1.54-1.694-2.73-1.694h-2.366v6.762h2.604c1.302 0 2.912-.21 2.912-1.89 0-.994-.532-1.526-1.526-1.722.728-.21 1.106-.658 1.106-1.456zm-4.438 4.48v-2.66h1.75c1.008 0 2.436-.028 2.436 1.33 0 1.288-1.316 1.33-2.282 1.33h-1.904zm0-3.234v-2.352h1.736c.868 0 2.044.014 2.044 1.162s-1.176 1.19-2.044 1.19h-1.736zm13.306.42c0-4.662-7.084-4.662-7.084 0 0 4.648 7.084 4.648 7.084 0zm-6.412 0c0-3.85 5.74-3.85 5.74 0s-5.74 3.822-5.74 0zm8.897 3.388v-6.146h3.836v-.602H820.3V290h.672zm11.665-3.388c0-4.662-7.084-4.662-7.084 0 0 4.648 7.084 4.648 7.084 0zm-6.412 0c0-3.85 5.74-3.85 5.74 0s-5.74 3.822-5.74 0zm7.809 5.152V290h5.936v1.764h.588l.014-2.31h-.938v-6.202h-4.172l-.462 3.5c-.182 1.484-.252 2.702-1.302 2.702h-.266l.014 2.31h.588zm4.956-2.31h-4.256c.588-.406.658-.966.84-2.296l.434-3.318h2.982v5.614zm8.198-6.202v2.968h-4.396v-2.968h-.658V290h.658v-3.178h4.396V290h.658v-6.748h-.658zm8.026 1.218l-.07 1.47V290h.644v-6.748h-.252l-4.844 5.502.084-1.862v-3.64h-.658V290h.238l4.858-5.53zm5.83-1.358c-1.932 0-3.304 1.218-3.416 3.276-.112 2.422 1.414 3.752 3.682 3.752.784 0 1.68-.196 2.464-.546l-.14-.574a5.872 5.872 0 0 1-2.338.518c-1.778-.042-2.996-.938-2.996-2.884h5.726c.378-2.254-.798-3.528-2.982-3.542zm-2.73 2.968c.154-1.512 1.19-2.408 2.702-2.408s2.604.812 2.45 2.408h-5.152zm-72.18 14.172V307h.672v-6.146h4.354V307h.658v-6.748h-5.684zm8.797 1.162c0-.938-.35-1.414-1.47-1.232l.028.56c.952-.154.868.546.868 1.568v8.176h.658v-4.242c2.45 1.82 5.656.56 5.656-2.646 0-1.862-1.092-3.514-3.066-3.514-1.176 0-2.128.406-2.674 1.526v-.196zm.084 1.876c.042-1.414.994-2.576 2.478-2.576 1.652 0 2.492 1.372 2.492 2.884 0 2.884-2.912 3.668-4.97 1.946v-2.254zm12.133 2.492c-.042 1.064.252 1.47 1.4 1.288l-.028-.462c-.896.112-.854-.35-.854-1.162l.014-3.08c0-1.68-1.386-2.268-2.842-2.268-.882 0-1.778.21-2.408.56l.154.56c.574-.336 1.386-.518 2.17-.518 1.078 0 2.282.336 2.282 1.652v1.036c-.77-.406-1.666-.588-2.506-.588-1.358 0-2.618.742-2.618 2.268 0 1.288 1.218 2.044 2.394 2.044 1.12 0 2.31-.35 2.842-1.33zm-.112-.896c-.294 1.162-1.526 1.652-2.618 1.652-.938 0-1.806-.462-1.848-1.498-.042-1.12 1.036-1.68 2.044-1.68.798-.014 1.694.224 2.422.616v.91zm2.689-3.626c.56-.35 1.47-.532 2.156-.532.882 0 1.876.21 1.876 1.246 0 1.106-1.078 1.204-2.002 1.218-.28 0-.532-.014-.784-.014v.546h.812c1.092 0 2.394.084 2.394 1.372 0 1.036-1.064 1.442-2.128 1.456-.854 0-2.058-.392-2.604-.91l-.042.672c.644.504 1.708.826 2.73.826 1.344 0 2.73-.56 2.73-1.988 0-.98-.63-1.582-1.568-1.75.77-.168 1.148-.742 1.148-1.484 0-1.372-1.288-1.792-2.478-1.792-.798 0-1.694.196-2.31.546l.07.588zm6.673 7.504V307h5.936v1.764h.588l.014-2.31h-.938v-6.202h-4.172l-.462 3.5c-.182 1.484-.252 2.702-1.302 2.702h-.266l.014 2.31h.588zm4.956-2.31h-4.256c.588-.406.658-.966.84-2.296l.434-3.318h2.982v5.614zm8.197-6.202v2.968h-4.396v-2.968h-.658V307h.658v-3.178h4.396V307h.658v-6.748h-.658zm8.027 1.218l-.07 1.47V307h.644v-6.748h-.252l-4.844 5.502.084-1.862v-3.64h-.658V307h.238l4.858-5.53zm3.519 1.722v-2.954h-.672v6.748h.672v-3.22h1.106c.336 0 .658-.028.952-.084l2.338 3.304h.714v-.084l-2.436-3.416c1.526-.462 2.114-1.694 2.1-3.248h-.644c0 2.03-1.036 2.954-3.01 2.954h-1.12zm11.752-1.722l-.07 1.47V307h.644v-6.748h-.252l-4.844 5.502.084-1.862v-3.64h-.658V307h.238l4.858-5.53zM950.668 42.1c0-3.024-2.128-5.054-4.97-5.054-2.8 0-4.942 2.03-4.942 5.054 0 3.024 2.1 5.054 4.942 5.054 2.926 0 4.97-2.086 4.97-5.054zm-9.198 0c0-2.59 1.778-4.382 4.242-4.382s4.242 1.806 4.242 4.382c0 2.59-1.806 4.396-4.256 4.396-2.436 0-4.228-1.806-4.228-4.396zm11.025-1.848V47h.672v-6.146h4.354V47h.658v-6.748h-5.684zM962.846 47v-6.16h2.576v-.588h-5.782v.588h2.562V47h.644zm9.128-5.53l-.07 1.47V47h.644v-6.748h-.252l-4.844 5.502.084-1.862v-3.64h-.658V47h.238l4.858-5.53zm6.166 3.71l2.604-3.416v5.208h.657v-6.72h-.251l-3.052 3.99-3.024-3.99h-.252v6.72h.644v-5.208l2.59 3.416h.084zm10.623-3.71l-.07 1.47V47h.644v-6.748h-.252l-4.844 5.502.084-1.862v-3.64h-.658V47h.238l4.858-5.53zm2.568-.21c.56-.35 1.47-.532 2.156-.532.882 0 1.876.21 1.876 1.246 0 1.106-1.078 1.204-2.002 1.218-.28 0-.532-.014-.784-.014v.546h.812c1.092 0 2.394.084 2.394 1.372 0 1.036-1.064 1.442-2.128 1.456-.854 0-2.058-.392-2.604-.91l-.042.672c.644.504 1.708.826 2.73.826 1.344 0 2.73-.56 2.73-1.988 0-.98-.63-1.582-1.568-1.75.77-.168 1.148-.742 1.148-1.484 0-1.372-1.288-1.792-2.478-1.792-.798 0-1.694.196-2.31.546l.07.588zm11.589 4.522c-.04 1.064.25 1.47 1.4 1.288l-.03-.462c-.9.112-.85-.35-.85-1.162l.01-3.08c0-1.68-1.39-2.268-2.84-2.268-.885 0-1.781.21-2.411.56l.154.56c.574-.336 1.386-.518 2.167-.518 1.08 0 2.29.336 2.29 1.652v1.036c-.77-.406-1.67-.588-2.51-.588-1.359 0-2.619.742-2.619 2.268 0 1.288 1.218 2.044 2.399 2.044 1.12 0 2.31-.35 2.84-1.33zm-.11-.896c-.3 1.162-1.53 1.652-2.62 1.652-.941 0-1.809-.462-1.851-1.498-.042-1.12 1.036-1.68 2.041-1.68.8-.014 1.7.224 2.43.616v.91zM1011.3 47v1.736h.59l.02-2.31h-.94v-6.174h-.63v6.132h-3.92v-6.132h-.65V47h5.53zm7.27-5.53l-.07 1.47V47h.64v-6.748h-.25l-4.84 5.502.08-1.862v-3.64h-.66V47h.24l4.86-5.53zm2.22 5.46V47h.71l2.06-2.52h1.9V47h.67v-6.748h-2.78c-1.3 0-2.28.868-2.28 2.128 0 1.148.77 1.834 1.79 2.002l-2.07 2.548zm2.7-3.024c-.97 0-1.75-.532-1.75-1.526s.77-1.568 1.75-1.568h1.97v3.094h-1.97zm4.67-1.736h2.1v2.086h.58V42.17h2.08v-.574h-2.08v-2.114h-.58v2.114h-2.1v.574zm11.84-1.918v2.968h-4.39v-2.968h-.66V47h.66v-3.178h4.39V47h.66v-6.748h-.66zm9.57 3.36c0-4.662-7.08-4.662-7.08 0 0 4.648 7.08 4.648 7.08 0zm-6.41 0c0-3.85 5.74-3.85 5.74 0s-5.74 3.822-5.74 0zm13.32-1.666c0-1.568-1.54-1.694-2.73-1.694h-2.37v6.762h2.61c1.3 0 2.91-.21 2.91-1.89 0-.994-.53-1.526-1.53-1.722.73-.21 1.11-.658 1.11-1.456zm-4.44 4.48v-2.66h1.75c1.01 0 2.44-.028 2.44 1.33 0 1.288-1.32 1.33-2.28 1.33h-1.91zm0-3.234V40.84h1.74c.87 0 2.04.014 2.04 1.162s-1.17 1.19-2.04 1.19h-1.74zm11.33 2.59c-.04 1.064.26 1.47 1.4 1.288l-.02-.462c-.9.112-.86-.35-.86-1.162l.02-3.08c0-1.68-1.39-2.268-2.85-2.268-.88 0-1.77.21-2.4.56l.15.56c.57-.336 1.39-.518 2.17-.518 1.08 0 2.28.336 2.28 1.652v1.036c-.77-.406-1.66-.588-2.5-.588-1.36 0-2.62.742-2.62 2.268 0 1.288 1.22 2.044 2.39 2.044 1.12 0 2.31-.35 2.84-1.33zm-.11-.896c-.29 1.162-1.52 1.652-2.62 1.652-.93 0-1.8-.462-1.84-1.498-.05-1.12 1.03-1.68 2.04-1.68.8-.014 1.69.224 2.42.616v.91zm2.34 2.044V47h.72l2.05-2.52h1.91V47h.67v-6.748h-2.79c-1.3 0-2.28.868-2.28 2.128 0 1.148.77 1.834 1.79 2.002l-2.07 2.548zm2.7-3.024c-.96 0-1.75-.532-1.75-1.526s.77-1.568 1.75-1.568h1.98v3.094h-1.98zM941.806 60.192v-2.954h-.672v6.748h.672v-3.22h1.106c.336 0 .658-.028.952-.084l2.338 3.304h.714v-.084l-2.436-3.416c1.526-.462 2.114-1.694 2.1-3.248h-.644c0 2.03-1.036 2.954-3.01 2.954h-1.12zm11.318 2.59c-.042 1.064.252 1.47 1.4 1.288l-.028-.462c-.896.112-.854-.35-.854-1.162l.014-3.08c0-1.68-1.386-2.268-2.842-2.268-.882 0-1.778.21-2.408.56l.154.56c.574-.336 1.386-.518 2.17-.518 1.078 0 2.282.336 2.282 1.652v1.036c-.77-.406-1.666-.588-2.506-.588-1.358 0-2.618.742-2.618 2.268 0 1.288 1.218 2.044 2.394 2.044 1.12 0 2.31-.35 2.842-1.33zm-.112-.896c-.294 1.162-1.526 1.652-2.618 1.652-.938 0-1.806-.462-1.848-1.498-.042-1.12 1.036-1.68 2.044-1.68.798-.014 1.694.224 2.422.616v.91zm6.288.294l2.604-3.416v5.208h.658v-6.72h-.252l-3.052 3.99-3.024-3.99h-.252v6.72h.644v-5.208l2.59 3.416h.084zm5.527-4.928V64h.672v-6.146h4.354V64h.658v-6.748h-5.684zm12.619 5.53c-.042 1.064.252 1.47 1.4 1.288l-.028-.462c-.896.112-.854-.35-.854-1.162l.014-3.08c0-1.68-1.386-2.268-2.842-2.268-.882 0-1.778.21-2.408.56l.154.56c.574-.336 1.386-.518 2.17-.518 1.078 0 2.282.336 2.282 1.652v1.036c-.77-.406-1.666-.588-2.506-.588-1.358 0-2.618.742-2.618 2.268 0 1.288 1.218 2.044 2.394 2.044 1.12 0 2.31-.35 2.842-1.33zm-.112-.896c-.294 1.162-1.526 1.652-2.618 1.652-.938 0-1.806-.462-1.848-1.498-.042-1.12 1.036-1.68 2.044-1.68.798-.014 1.694.224 2.422.616v.91zm8.024-4.634v2.968h-4.396v-2.968h-.658V64h.658v-3.178h4.396V64h.658v-6.748h-.658zm8.026 1.218l-.07 1.47V64h.644v-6.748h-.252l-4.844 5.502.084-1.862v-3.64h-.658V64h.238l4.858-5.53zm2.218 5.46V64h.714l2.058-2.52h1.906V64h.67v-6.748h-2.786c-1.302 0-2.282.868-2.282 2.128 0 1.148.77 1.834 1.792 2.002l-2.072 2.548zm2.702-3.024c-.966 0-1.75-.532-1.75-1.526s.77-1.568 1.75-1.568h1.976v3.094h-1.976zm8.366 4.858V64h5.94v1.764h.59l.01-2.31h-.94v-6.202h-4.17l-.46 3.5c-.18 1.484-.25 2.702-1.3 2.702h-.27l.01 2.31h.59zm4.96-2.31h-4.26c.59-.406.66-.966.84-2.296l.44-3.318h2.98v5.614zm8.24-4.984l-.07 1.47V64h.64v-6.748h-.25l-4.85 5.502.09-1.862v-3.64h-.66V64h.24l4.86-5.53zm3.68-.056c0-.938-.35-1.414-1.47-1.232l.03.56c.95-.154.87.546.87 1.568v8.176h.66v-4.242c2.45 1.82 5.65.56 5.65-2.646 0-1.862-1.09-3.514-3.06-3.514-1.18 0-2.13.406-2.68 1.526v-.196zm.09 1.876c.04-1.414.99-2.576 2.48-2.576 1.65 0 2.49 1.372 2.49 2.884 0 2.884-2.91 3.668-4.97 1.946V60.29zm10.45-3.178c-1.93 0-3.3 1.218-3.42 3.276-.11 2.422 1.42 3.752 3.69 3.752.78 0 1.68-.196 2.46-.546l-.14-.574a5.89 5.89 0 0 1-2.34.518c-1.78-.042-2.99-.938-2.99-2.884h5.72c.38-2.254-.8-3.528-2.98-3.542zm-2.73 2.968c.15-1.512 1.19-2.408 2.7-2.408 1.51 0 2.61.812 2.45 2.408h-5.15zm8.24.112v-2.954h-.67v6.748h.67v-3.22h1.11c.33 0 .65-.028.95-.084l2.34 3.304h.71v-.084l-2.44-3.416c1.53-.462 2.12-1.694 2.1-3.248h-.64c0 2.03-1.04 2.954-3.01 2.954h-1.12zm9.05 3.808v-6.16h2.58v-.588h-5.78v.588h2.56V64h.64zm8.64-1.218c-.04 1.064.25 1.47 1.4 1.288l-.03-.462c-.89.112-.85-.35-.85-1.162l.01-3.08c0-1.68-1.38-2.268-2.84-2.268-.88 0-1.78.21-2.41.56l.16.56c.57-.336 1.38-.518 2.17-.518 1.07 0 2.28.336 2.28 1.652v1.036c-.77-.406-1.67-.588-2.51-.588-1.36 0-2.62.742-2.62 2.268 0 1.288 1.22 2.044 2.4 2.044 1.12 0 2.31-.35 2.84-1.33zm-.11-.896c-.3 1.162-1.53 1.652-2.62 1.652-.94 0-1.81-.462-1.85-1.498-.04-1.12 1.04-1.68 2.05-1.68.79-.014 1.69.224 2.42.616v.91zM113.668 227.1c0-3.024-2.128-5.054-4.97-5.054-2.8 0-4.942 2.03-4.942 5.054 0 3.024 2.1 5.054 4.942 5.054 2.926 0 4.97-2.086 4.97-5.054zm-9.198 0c0-2.59 1.778-4.382 4.242-4.382s4.242 1.806 4.242 4.382c0 2.59-1.806 4.396-4.256 4.396-2.436 0-4.228-1.806-4.228-4.396zm11.934-.686c0-.938-.35-1.414-1.47-1.232l.028.56c.952-.154.868.546.868 1.568v8.176h.658v-4.242c2.45 1.82 5.656.56 5.656-2.646 0-1.862-1.092-3.514-3.066-3.514-1.176 0-2.128.406-2.674 1.526v-.196zm.084 1.876c.042-1.414.994-2.576 2.478-2.576 1.652 0 2.492 1.372 2.492 2.884 0 2.884-2.912 3.668-4.97 1.946v-2.254zm8.142 3.71v-6.146h3.836v-.602h-4.508V232h.672zm9.896-1.218c-.042 1.064.252 1.47 1.4 1.288l-.028-.462c-.896.112-.854-.35-.854-1.162l.014-3.08c0-1.68-1.386-2.268-2.842-2.268-.882 0-1.778.21-2.408.56l.154.56c.574-.336 1.386-.518 2.17-.518 1.078 0 2.282.336 2.282 1.652v1.036c-.77-.406-1.666-.588-2.506-.588-1.358 0-2.618.742-2.618 2.268 0 1.288 1.218 2.044 2.394 2.044 1.12 0 2.31-.35 2.842-1.33zm-.112-.896c-.294 1.162-1.526 1.652-2.618 1.652-.938 0-1.806-.462-1.848-1.498-.042-1.12 1.036-1.68 2.044-1.68.798-.014 1.694.224 2.422.616v.91zm8.024-4.634v2.968h-4.396v-2.968h-.658V232h.658v-3.178h4.396V232h.658v-6.748h-.658zm8.026 1.218l-.07 1.47V232h.644v-6.748h-.252l-4.844 5.502.084-1.862v-3.64h-.658V232h.238l4.858-5.53zm3.044.406v-1.624h-.672v1.624c0 3.038 2.772 3.584 4.774 2.24V232h.672v-6.748h-.658v3.15c-1.736 1.344-4.116 1.064-4.116-1.526zm10.018-1.764c-1.932 0-3.304 1.218-3.416 3.276-.112 2.422 1.414 3.752 3.682 3.752.784 0 1.68-.196 2.464-.546l-.14-.574a5.872 5.872 0 0 1-2.338.518c-1.778-.042-2.996-.938-2.996-2.884h5.726c.378-2.254-.798-3.528-2.982-3.542zm-2.73 2.968c.154-1.512 1.19-2.408 2.702-2.408s2.604.812 2.45 2.408h-5.152zm13.728-.966c-.448-1.33-1.694-1.988-2.982-2.016-1.778-.028-3.626 1.162-3.626 3.5 0 2.324 1.778 3.5 3.514 3.5 1.358 0 2.702-.728 3.164-2.212h-.672c-.42 1.078-1.428 1.61-2.464 1.61-1.414 0-2.87-.994-2.87-2.898 0-1.932 1.526-2.912 2.968-2.898.966.014 1.904.476 2.31 1.414h.658zm2.456 1.078v-2.954h-.672v6.748h.672v-3.22h1.106c.336 0 .658-.028.952-.084l2.338 3.304h.714v-.084l-2.436-3.416c1.526-.462 2.114-1.694 2.1-3.248h-.644c0 2.03-1.036 2.954-3.01 2.954h-1.12zm11.752-1.722l-.07 1.47V232h.644v-6.748h-.252l-4.844 5.502.084-1.862v-3.64h-.658V232h.238l4.858-5.53zm3.939-4.214c.154 1.008.994 1.582 1.932 1.582 1.008 0 1.792-.616 1.932-1.582-.14-.014-.294-.056-.434-.07-.14.742-.798 1.134-1.512 1.134-.756-.014-1.344-.42-1.47-1.134l-.448.07zm-.854 9.744h-.238v-6.748h.658v3.64l-.084 1.862 4.844-5.502h.252V232h-.644v-4.06l.07-1.47-4.858 5.53zm11.411-6.748V232h.672v-6.146h4.354V232h.658v-6.748h-5.684zm14.593 3.36c0-4.662-7.084-4.662-7.084 0 0 4.648 7.084 4.648 7.084 0zm-6.412 0c0-3.85 5.74-3.85 5.74 0s-5.74 3.822-5.74 0zm13.321-2.142l-.07 1.47V232h.644v-6.748h-.252l-4.844 5.502.084-1.862v-3.64h-.658V232h.238l4.858-5.53zm9.007.644c-.448-1.33-1.694-1.988-2.982-2.016-1.778-.028-3.626 1.162-3.626 3.5 0 2.324 1.778 3.5 3.514 3.5 1.358 0 2.702-.728 3.164-2.212h-.672c-.42 1.078-1.428 1.61-2.464 1.61-1.414 0-2.87-.994-2.87-2.898 0-1.932 1.526-2.912 2.968-2.898.966.014 1.904.476 2.31 1.414h.658zm2.456 1.078v-2.954h-.672v6.748h.672v-3.22h1.106c.336 0 .658-.028.952-.084l2.338 3.304h.714v-.084l-2.436-3.416c1.526-.462 2.114-1.694 2.1-3.248h-.644c0 2.03-1.036 2.954-3.01 2.954h-1.12zm6.418-1.022h2.1v2.086h.574v-2.086h2.086v-.574h-2.086v-2.114h-.574v2.114h-2.1v.574zm12.947-.056c-.448-1.33-1.694-1.988-2.982-2.016-1.778-.028-3.626 1.162-3.626 3.5 0 2.324 1.778 3.5 3.514 3.5 1.358 0 2.702-.728 3.164-2.212h-.672c-.42 1.078-1.428 1.61-2.464 1.61-1.414 0-2.87-.994-2.87-2.898 0-1.932 1.526-2.912 2.968-2.898.966.014 1.904.476 2.31 1.414h.658zm4.177 4.886v-6.16h2.576v-.588h-5.782v.588h2.562V232h.644zm8.639-1.218c-.042 1.064.252 1.47 1.4 1.288l-.028-.462c-.896.112-.854-.35-.854-1.162l.014-3.08c0-1.68-1.386-2.268-2.842-2.268-.882 0-1.778.21-2.408.56l.154.56c.574-.336 1.386-.518 2.17-.518 1.078 0 2.282.336 2.282 1.652v1.036c-.77-.406-1.666-.588-2.506-.588-1.358 0-2.618.742-2.618 2.268 0 1.288 1.218 2.044 2.394 2.044 1.12 0 2.31-.35 2.842-1.33zm-.112-.896c-.294 1.162-1.526 1.652-2.618 1.652-.938 0-1.806-.462-1.848-1.498-.042-1.12 1.036-1.68 2.044-1.68.798-.014 1.694.224 2.422.616v.91zm3.755-3.472c0-.938-.35-1.414-1.47-1.232l.028.56c.952-.154.868.546.868 1.568v8.176h.658v-4.242c2.45 1.82 5.656.56 5.656-2.646 0-1.862-1.092-3.514-3.066-3.514-1.176 0-2.128.406-2.674 1.526v-.196zm.084 1.876c.042-1.414.994-2.576 2.478-2.576 1.652 0 2.492 1.372 2.492 2.884 0 2.884-2.912 3.668-4.97 1.946v-2.254zm12.133 2.492c-.042 1.064.252 1.47 1.399 1.288l-.027-.462c-.896.112-.854-.35-.854-1.162l.014-3.08c0-1.68-1.386-2.268-2.842-2.268-.882 0-1.778.21-2.408.56l.154.56c.574-.336 1.386-.518 2.17-.518 1.078 0 2.282.336 2.282 1.652v1.036c-.77-.406-1.666-.588-2.506-.588-1.358 0-2.618.742-2.618 2.268 0 1.288 1.218 2.044 2.394 2.044 1.12 0 2.31-.35 2.842-1.33zm-.112-.896c-.294 1.162-1.526 1.652-2.618 1.652-.938 0-1.806-.462-1.848-1.498-.042-1.12 1.036-1.68 2.044-1.68.798-.014 1.694.224 2.422.616v.91zm2.339 2.044v.07h.714l2.058-2.52h1.904V232h.672v-6.748h-2.786c-1.302 0-2.282.868-2.282 2.128 0 1.148.77 1.834 1.792 2.002l-2.072 2.548zm2.702-3.024c-.966 0-1.75-.532-1.75-1.526s.77-1.568 1.75-1.568h1.974v3.094h-1.974zm-184.357 16.286v-2.954h-.672v6.748h.672v-3.22h1.106c.336 0 .658-.028.952-.084l2.338 3.304h.714v-.084l-2.436-3.416c1.526-.462 2.114-1.694 2.1-3.248h-.644c0 2.03-1.036 2.954-3.01 2.954h-1.12zm11.318 2.59c-.042 1.064.252 1.47 1.4 1.288l-.028-.462c-.896.112-.854-.35-.854-1.162l.014-3.08c0-1.68-1.386-2.268-2.842-2.268-.882 0-1.778.21-2.408.56l.154.56c.574-.336 1.386-.518 2.17-.518 1.078 0 2.282.336 2.282 1.652v1.036c-.77-.406-1.666-.588-2.506-.588-1.358 0-2.618.742-2.618 2.268 0 1.288 1.218 2.044 2.394 2.044 1.12 0 2.31-.35 2.842-1.33zm-.112-.896c-.294 1.162-1.526 1.652-2.618 1.652-.938 0-1.806-.462-1.848-1.498-.042-1.12 1.036-1.68 2.044-1.68.798-.014 1.694.224 2.422.616v.91zm6.288.294l2.604-3.416v5.208h.658v-6.72h-.252l-3.052 3.99-3.024-3.99h-.252v6.72h.644v-5.208l2.59 3.416h.084zm5.527-4.928V249h.672v-6.146h4.354V249h.658v-6.748h-5.684zm12.619 5.53c-.042 1.064.252 1.47 1.4 1.288l-.028-.462c-.896.112-.854-.35-.854-1.162l.014-3.08c0-1.68-1.386-2.268-2.842-2.268-.882 0-1.778.21-2.408.56l.154.56c.574-.336 1.386-.518 2.17-.518 1.078 0 2.282.336 2.282 1.652v1.036c-.77-.406-1.666-.588-2.506-.588-1.358 0-2.618.742-2.618 2.268 0 1.288 1.218 2.044 2.394 2.044 1.12 0 2.31-.35 2.842-1.33zm-.112-.896c-.294 1.162-1.526 1.652-2.618 1.652-.938 0-1.806-.462-1.848-1.498-.042-1.12 1.036-1.68 2.044-1.68.798-.014 1.694.224 2.422.616v.91zm8.024-4.634v2.968h-4.396v-2.968h-.658V249h.658v-3.178h4.396V249h.658v-6.748h-.658zm8.026 1.218l-.07 1.47V249h.644v-6.748h-.252l-4.844 5.502.084-1.862v-3.64h-.658V249h.238l4.858-5.53zm2.218 5.46v.07h.714l2.058-2.52h1.904V249h.672v-6.748h-2.786c-1.302 0-2.282.868-2.282 2.128 0 1.148.77 1.834 1.792 2.002l-2.072 2.548zm2.702-3.024c-.966 0-1.75-.532-1.75-1.526s.77-1.568 1.75-1.568h1.974v3.094h-1.974zm8.367 4.858V249h5.936v1.764h.588l.014-2.31h-.938v-6.202h-4.172l-.462 3.5c-.182 1.484-.252 2.702-1.302 2.702h-.266l.014 2.31h.588zm4.956-2.31h-4.256c.588-.406.658-.966.84-2.296l.434-3.318h2.982v5.614zm8.24-4.984l-.07 1.47V249h.644v-6.748h-.252l-4.844 5.502.084-1.862v-3.64h-.658V249h.238l4.858-5.53zm3.687-.056c0-.938-.35-1.414-1.47-1.232l.028.56c.952-.154.868.546.868 1.568v8.176h.658v-4.242c2.45 1.82 5.656.56 5.656-2.646 0-1.862-1.092-3.514-3.066-3.514-1.176 0-2.128.406-2.674 1.526v-.196zm.084 1.876c.042-1.414.994-2.576 2.478-2.576 1.652 0 2.492 1.372 2.492 2.884 0 2.884-2.912 3.668-4.97 1.946v-2.254zm10.453-3.178c-1.932 0-3.304 1.218-3.416 3.276-.112 2.422 1.414 3.752 3.682 3.752.784 0 1.68-.196 2.464-.546l-.14-.574a5.872 5.872 0 0 1-2.338.518c-1.778-.042-2.996-.938-2.996-2.884h5.726c.378-2.254-.798-3.528-2.982-3.542zm-2.73 2.968c.154-1.512 1.19-2.408 2.702-2.408s2.604.812 2.45 2.408h-5.152zm8.24.112v-2.954h-.672v6.748h.672v-3.22h1.106c.336 0 .658-.028.952-.084l2.338 3.304h.714v-.084l-2.436-3.416c1.526-.462 2.114-1.694 2.1-3.248h-.644c0 2.03-1.036 2.954-3.01 2.954h-1.12zm9.05 3.808v-6.16h2.576v-.588h-5.782v.588h2.562V249h.644zm8.639-1.218c-.042 1.064.252 1.47 1.4 1.288l-.028-.462c-.896.112-.854-.35-.854-1.162l.014-3.08c0-1.68-1.386-2.268-2.842-2.268-.882 0-1.778.21-2.408.56l.154.56c.574-.336 1.386-.518 2.17-.518 1.078 0 2.282.336 2.282 1.652v1.036c-.77-.406-1.666-.588-2.506-.588-1.358 0-2.618.742-2.618 2.268 0 1.288 1.218 2.044 2.394 2.044 1.12 0 2.31-.35 2.842-1.33zm-.112-.896c-.294 1.162-1.526 1.652-2.618 1.652-.938 0-1.806-.462-1.848-1.498-.042-1.12 1.036-1.68 2.044-1.68.798-.014 1.694.224 2.422.616v.91zM5.96 262.856v9.088H3.752V273h5.696v-1.056H7.224V261.8H4.008v1.056H5.96zm13.367-1.216c-2.32 0-4.144 1.456-4.144 3.856v3.84c0 2.416 1.824 3.856 4.144 3.856 2.288 0 4.112-1.44 4.112-3.856v-3.84c0-2.4-1.824-3.856-4.112-3.856zm0 10.384c-1.328 0-2.368-.656-2.704-1.808a3.796 3.796 0 0 1-.176-1.2v-3.2c0-.464.064-.864.176-1.2.336-1.152 1.376-1.824 2.704-1.824 1.28 0 2.352.672 2.688 1.824.112.336.176.736.176 1.2v3.2c0 .464-.064.864-.176 1.2-.336 1.152-1.408 1.808-2.688 1.808zm10.531-10.384c-2.32 0-4.144 1.456-4.144 3.856v3.84c0 2.416 1.824 3.856 4.144 3.856 2.288 0 4.112-1.44 4.112-3.856v-3.84c0-2.4-1.824-3.856-4.112-3.856zm0 10.384c-1.328 0-2.368-.656-2.704-1.808a3.796 3.796 0 0 1-.176-1.2v-3.2c0-.464.064-.864.176-1.2.336-1.152 1.376-1.824 2.704-1.824 1.28 0 2.352.672 2.688 1.824.112.336.176.736.176 1.2v3.2c0 .464-.064.864-.176 1.2-.336 1.152-1.408 1.808-2.688 1.808zM40.39 261.64c-2.32 0-4.144 1.456-4.144 3.856v3.84c0 2.416 1.824 3.856 4.144 3.856 2.288 0 4.112-1.44 4.112-3.856v-3.84c0-2.4-1.824-3.856-4.112-3.856zm0 10.384c-1.328 0-2.368-.656-2.704-1.808a3.796 3.796 0 0 1-.176-1.2v-3.2c0-.464.064-.864.176-1.2.336-1.152 1.376-1.824 2.704-1.824 1.28 0 2.352.672 2.688 1.824.112.336.176.736.176 1.2v3.2c0 .464-.064.864-.176 1.2-.336 1.152-1.408 1.808-2.688 1.808zM4.256 173.792c2.544 0 2.464 2.48 1.104 4.144l-4.624 5.776V184h7.056v-1.184h-4.88l3.648-4.496c.816-1.024 1.072-2.144.96-3.104-.128-1.424-1.248-2.576-3.232-2.576-2.16 0-3.232 1.088-3.344 3.088h1.12c.112-1.344.848-1.936 2.192-1.936zm13.837-1.152c-2.32 0-4.145 1.456-4.145 3.856v3.84c0 2.416 1.825 3.856 4.145 3.856 2.288 0 4.111-1.44 4.111-3.856v-3.84c0-2.4-1.823-3.856-4.111-3.856zm0 10.384c-1.328 0-2.368-.656-2.704-1.808a3.796 3.796 0 0 1-.176-1.2v-3.2c0-.464.064-.864.176-1.2.336-1.152 1.376-1.824 2.704-1.824 1.28 0 2.352.672 2.688 1.824.111.336.175.736.175 1.2v3.2c0 .464-.064.864-.175 1.2-.336 1.152-1.409 1.808-2.688 1.808zm10.53-10.384c-2.32 0-4.143 1.456-4.143 3.856v3.84c0 2.416 1.824 3.856 4.144 3.856 2.288 0 4.112-1.44 4.112-3.856v-3.84c0-2.4-1.824-3.856-4.112-3.856zm0 10.384c-1.327 0-2.367-.656-2.703-1.808a3.796 3.796 0 0 1-.176-1.2v-3.2c0-.464.064-.864.176-1.2.336-1.152 1.376-1.824 2.704-1.824 1.28 0 2.352.672 2.688 1.824a3.8 3.8 0 0 1 .176 1.2v3.2a3.8 3.8 0 0 1-.176 1.2c-.336 1.152-1.408 1.808-2.688 1.808zm10.532-10.384c-2.32 0-4.144 1.456-4.144 3.856v3.84c0 2.416 1.824 3.856 4.144 3.856 2.288 0 4.112-1.44 4.112-3.856v-3.84c0-2.4-1.824-3.856-4.112-3.856zm0 10.384c-1.328 0-2.368-.656-2.704-1.808a3.796 3.796 0 0 1-.176-1.2v-3.2c0-.464.064-.864.176-1.2.336-1.152 1.376-1.824 2.704-1.824 1.28 0 2.352.672 2.688 1.824.112.336.176.736.176 1.2v3.2c0 .464-.064.864-.176 1.2-.336 1.152-1.408 1.808-2.688 1.808zM.768 85.992c.176 2.016 1.696 3.2 3.68 3.2 2.4 0 3.872-1.552 3.872-3.696 0-1.808-1.392-3.344-3.248-3.296l3.232-4.192V77.8h-7.04v1.136H6.24l-3.072 3.968v.304c1.888-.496 3.888.304 3.888 2.288-.016 1.6-1.072 2.528-2.624 2.528-1.344 0-2.32-.672-2.496-2.032H.768zm17.871-8.352c-2.32 0-4.144 1.456-4.144 3.856v3.84c0 2.416 1.824 3.856 4.144 3.856 2.288 0 4.112-1.44 4.112-3.856v-3.84c0-2.4-1.824-3.856-4.112-3.856zm0 10.384c-1.328 0-2.368-.656-2.704-1.808a3.796 3.796 0 0 1-.176-1.2v-3.2c0-.464.064-.864.176-1.2.336-1.152 1.376-1.824 2.704-1.824 1.28 0 2.352.672 2.688 1.824.112.336.176.736.176 1.2v3.2c0 .464-.064.864-.176 1.2-.336 1.152-1.408 1.808-2.688 1.808zM29.171 77.64c-2.32 0-4.144 1.456-4.144 3.856v3.84c0 2.416 1.824 3.856 4.144 3.856 2.288 0 4.112-1.44 4.112-3.856v-3.84c0-2.4-1.824-3.856-4.112-3.856zm0 10.384c-1.328 0-2.368-.656-2.704-1.808a3.796 3.796 0 0 1-.176-1.2v-3.2c0-.464.064-.864.176-1.2.336-1.152 1.376-1.824 2.704-1.824 1.28 0 2.352.672 2.688 1.824.112.336.176.736.176 1.2v3.2c0 .464-.064.864-.176 1.2-.336 1.152-1.408 1.808-2.688 1.808zM39.7 77.64c-2.32 0-4.143 1.456-4.143 3.856v3.84c0 2.416 1.824 3.856 4.144 3.856 2.288 0 4.112-1.44 4.112-3.856v-3.84c0-2.4-1.824-3.856-4.112-3.856zm0 10.384c-1.327 0-2.367-.656-2.703-1.808a3.796 3.796 0 0 1-.176-1.2v-3.2c0-.464.064-.864.176-1.2.336-1.152 1.376-1.824 2.704-1.824 1.28 0 2.352.672 2.688 1.824.112.336.176.736.176 1.2v3.2c0 .464-.064.864-.176 1.2-.336 1.152-1.408 1.808-2.688 1.808z" fill="#21293E"/></svg>