<svg width="592" height="376" fill="none" xmlns="http://www.w3.org/2000/svg"><path d="M7.28 330.64c-2.32 0-4.144 1.456-4.144 3.856v3.84c0 2.416 1.824 3.856 4.144 3.856 2.288 0 4.112-1.44 4.112-3.856v-3.84c0-2.4-1.824-3.856-4.112-3.856zm0 10.384c-1.328 0-2.368-.656-2.704-1.808a3.796 3.796 0 0 1-.176-1.2v-3.2c0-.464.064-.864.176-1.2.336-1.152 1.376-1.824 2.704-1.824 1.28 0 2.352.672 2.688 1.824.112.336.176.736.176 1.2v3.2c0 .464-.064.864-.176 1.2-.336 1.152-1.408 1.808-2.688 1.808zm7.767.496c.016-.048 0-.144-.016-.256a.778.778 0 0 0-.768-.544c-.448 0-.784.288-.784.736 0 .368.24.608.56.72l-.352 1.248h.784l.48-1.52c.048-.144.08-.272.096-.384zm6.233-10.88c-2.32 0-4.144 1.456-4.144 3.856v3.84c0 2.416 1.824 3.856 4.144 3.856 2.288 0 4.112-1.44 4.112-3.856v-3.84c0-2.4-1.824-3.856-4.112-3.856zm0 10.384c-1.328 0-2.368-.656-2.704-1.808a3.796 3.796 0 0 1-.176-1.2v-3.2c0-.464.064-.864.176-1.2.336-1.152 1.376-1.824 2.704-1.824 1.28 0 2.352.672 2.688 1.824.112.336.176.736.176 1.2v3.2c0 .464-.064.864-.176 1.2-.336 1.152-1.408 1.808-2.688 1.808zm10.531-10.384c-2.32 0-4.144 1.456-4.144 3.856v3.84c0 2.416 1.824 3.856 4.144 3.856 2.288 0 4.112-1.44 4.112-3.856v-3.84c0-2.4-1.824-3.856-4.112-3.856zm0 10.384c-1.328 0-2.368-.656-2.704-1.808a3.796 3.796 0 0 1-.176-1.2v-3.2c0-.464.064-.864.176-1.2.336-1.152 1.376-1.824 2.704-1.824 1.28 0 2.352.672 2.688 1.824a3.8 3.8 0 0 1 .176 1.2v3.2a3.8 3.8 0 0 1-.176 1.2c-.336 1.152-1.408 1.808-2.688 1.808zm8.58.992h1.264l5.471-11.184H45.88l-5.488 11.184zm9.504-2.448c0-3.536-5.297-3.552-5.297 0 0 3.536 5.297 3.536 5.297 0zm-4.273 0c0-2.32 3.233-2.32 3.233 0s-3.232 2.32-3.232 0zm-2.672-6.288c0-3.568-5.296-3.552-5.296 0s5.296 3.552 5.296 0zm-4.256 0c0-2.32 3.232-2.32 3.232 0s-3.232 2.32-3.232 0zM7.28 288.64c-2.32 0-4.144 1.456-4.144 3.856v3.84c0 2.416 1.824 3.856 4.144 3.856 2.288 0 4.112-1.44 4.112-3.856v-3.84c0-2.4-1.824-3.856-4.112-3.856zm0 10.384c-1.328 0-2.368-.656-2.704-1.808a3.796 3.796 0 0 1-.176-1.2v-3.2c0-.464.064-.864.176-1.2.336-1.152 1.376-1.824 2.704-1.824 1.28 0 2.352.672 2.688 1.824.112.336.176.736.176 1.2v3.2c0 .464-.064.864-.176 1.2-.336 1.152-1.408 1.808-2.688 1.808zm7.767.496c.016-.048 0-.144-.016-.256a.778.778 0 0 0-.768-.544c-.448 0-.784.288-.784.736 0 .368.24.608.56.72l-.352 1.248h.784l.48-1.52c.048-.144.08-.272.096-.384zm6.233-10.88c-2.32 0-4.144 1.456-4.144 3.856v3.84c0 2.416 1.824 3.856 4.144 3.856 2.288 0 4.112-1.44 4.112-3.856v-3.84c0-2.4-1.824-3.856-4.112-3.856zm0 10.384c-1.328 0-2.368-.656-2.704-1.808a3.796 3.796 0 0 1-.176-1.2v-3.2c0-.464.064-.864.176-1.2.336-1.152 1.376-1.824 2.704-1.824 1.28 0 2.352.672 2.688 1.824.112.336.176.736.176 1.2v3.2c0 .464-.064.864-.176 1.2-.336 1.152-1.408 1.808-2.688 1.808zM29.011 290h5.344v-1.2h-6.56v5.408c.752-.24 1.76-.352 2.784-.352 1.584 0 3.12.56 3.12 2.624 0 1.904-1.424 2.512-2.56 2.512-1.28 0-2.24-.672-2.384-1.904h-1.264c.176 2.032 1.728 3.088 3.664 3.088 2.336 0 3.856-1.472 3.856-3.728.08-2.752-2.048-3.76-4.288-3.76a6.78 6.78 0 0 0-1.712.208V290zm10.13 10.016h1.264l5.471-11.184H44.63l-5.488 11.184zm9.504-2.448c0-3.536-5.297-3.552-5.297 0 0 3.536 5.297 3.536 5.297 0zm-4.273 0c0-2.32 3.233-2.32 3.233 0s-3.232 2.32-3.232 0zM41.7 291.28c0-3.568-5.296-3.552-5.296 0s5.296 3.552 5.296 0zm-4.256 0c0-2.32 3.232-2.32 3.232 0s-3.232 2.32-3.232 0zM9.28 246.64c-2.32 0-4.144 1.456-4.144 3.856v3.84c0 2.416 1.824 3.856 4.144 3.856 2.288 0 4.112-1.44 4.112-3.856v-3.84c0-2.4-1.824-3.856-4.112-3.856zm0 10.384c-1.328 0-2.368-.656-2.704-1.808a3.796 3.796 0 0 1-.176-1.2v-3.2c0-.464.064-.864.176-1.2.336-1.152 1.376-1.824 2.704-1.824 1.28 0 2.352.672 2.688 1.824.112.336.176.736.176 1.2v3.2c0 .464-.064.864-.176 1.2-.336 1.152-1.408 1.808-2.688 1.808zm7.767.496c.016-.048 0-.144-.016-.256a.778.778 0 0 0-.768-.544c-.448 0-.784.288-.784.736 0 .368.24.608.56.72l-.352 1.248h.784l.48-1.52c.048-.144.08-.272.096-.384zm4.07-9.664v9.088h-2.209V258h5.696v-1.056H22.38V246.8h-3.216v1.056h1.952zm9.226-1.216c-2.32 0-4.145 1.456-4.145 3.856v3.84c0 2.416 1.825 3.856 4.145 3.856 2.287 0 4.112-1.44 4.112-3.856v-3.84c0-2.4-1.825-3.856-4.112-3.856zm0 10.384c-1.328 0-2.369-.656-2.704-1.808a3.796 3.796 0 0 1-.177-1.2v-3.2c0-.464.064-.864.177-1.2.335-1.152 1.376-1.824 2.704-1.824 1.28 0 2.351.672 2.688 1.824.111.336.175.736.175 1.2v3.2c0 .464-.064.864-.175 1.2-.337 1.152-1.409 1.808-2.688 1.808zm8.579.992h1.264l5.472-11.184H44.41l-5.488 11.184zm9.504-2.448c0-3.536-5.296-3.552-5.296 0 0 3.536 5.296 3.536 5.296 0zm-4.272 0c0-2.32 3.232-2.32 3.232 0s-3.232 2.32-3.232 0zm-2.672-6.288c0-3.568-5.296-3.552-5.296 0s5.296 3.552 5.296 0zm-4.256 0c0-2.32 3.232-2.32 3.232 0s-3.232 2.32-3.232 0zM11.28 204.64c-2.32 0-4.144 1.456-4.144 3.856v3.84c0 2.416 1.824 3.856 4.144 3.856 2.288 0 4.112-1.44 4.112-3.856v-3.84c0-2.4-1.824-3.856-4.112-3.856zm0 10.384c-1.328 0-2.368-.656-2.704-1.808a3.796 3.796 0 0 1-.176-1.2v-3.2c0-.464.064-.864.176-1.2.336-1.152 1.376-1.824 2.704-1.824 1.28 0 2.352.672 2.688 1.824.112.336.176.736.176 1.2v3.2c0 .464-.064.864-.176 1.2-.336 1.152-1.408 1.808-2.688 1.808zm7.767.496c.016-.048 0-.144-.016-.256a.778.778 0 0 0-.768-.544c-.448 0-.784.288-.784.736 0 .368.24.608.56.72l-.352 1.248h.784l.48-1.52c.048-.144.08-.272.096-.384zm4.07-9.664v9.088h-2.209V216h5.696v-1.056H24.38V204.8h-3.216v1.056h1.952zm6.425.144h5.344v-1.2h-6.56v5.408c.752-.24 1.76-.352 2.784-.352 1.584 0 3.12.56 3.12 2.624 0 1.904-1.423 2.512-2.56 2.512-1.28 0-2.24-.672-2.384-1.904h-1.264c.177 2.032 1.729 3.088 3.665 3.088 2.335 0 3.855-1.472 3.855-3.728.08-2.752-2.047-3.76-4.288-3.76a6.78 6.78 0 0 0-1.712.208V206zm10.13 10.016h1.264l5.472-11.184H45.16l-5.488 11.184zm9.504-2.448c0-3.536-5.296-3.552-5.296 0 0 3.536 5.296 3.536 5.296 0zm-4.272 0c0-2.32 3.232-2.32 3.232 0s-3.232 2.32-3.232 0zm-2.672-6.288c0-3.568-5.296-3.552-5.296 0s5.296 3.552 5.296 0zm-4.256 0c0-2.32 3.232-2.32 3.232 0s-3.232 2.32-3.232 0zM5.28 162.64c-2.32 0-4.144 1.456-4.144 3.856v3.84c0 2.416 1.824 3.856 4.144 3.856 2.288 0 4.112-1.44 4.112-3.856v-3.84c0-2.4-1.824-3.856-4.112-3.856zm0 10.384c-1.328 0-2.368-.656-2.704-1.808a3.796 3.796 0 0 1-.176-1.2v-3.2c0-.464.064-.864.176-1.2.336-1.152 1.376-1.824 2.704-1.824 1.28 0 2.352.672 2.688 1.824.112.336.176.736.176 1.2v3.2c0 .464-.064.864-.176 1.2-.336 1.152-1.408 1.808-2.688 1.808zm7.767.496c.016-.048 0-.144-.016-.256a.778.778 0 0 0-.768-.544c-.448 0-.784.288-.784.736 0 .368.24.608.56.72l-.352 1.248h.784l.48-1.52c.048-.144.08-.272.096-.384zm5.365-9.728c2.544 0 2.464 2.48 1.104 4.144l-4.624 5.776V174h7.056v-1.184h-4.88l3.648-4.496c.816-1.024 1.072-2.144.96-3.104-.128-1.424-1.248-2.576-3.232-2.576-2.16 0-3.232 1.088-3.344 3.088h1.12c.112-1.344.848-1.936 2.192-1.936zm9.696-1.152c-2.32 0-4.144 1.456-4.144 3.856v3.84c0 2.416 1.824 3.856 4.144 3.856 2.288 0 4.112-1.44 4.112-3.856v-3.84c0-2.4-1.824-3.856-4.112-3.856zm0 10.384c-1.328 0-2.368-.656-2.704-1.808a3.796 3.796 0 0 1-.176-1.2v-3.2c0-.464.064-.864.176-1.2.336-1.152 1.376-1.824 2.704-1.824 1.28 0 2.352.672 2.688 1.824.112.336.176.736.176 1.2v3.2c0 .464-.064.864-.176 1.2-.336 1.152-1.408 1.808-2.688 1.808zm8.58.992h1.263l5.472-11.184h-1.248l-5.488 11.184zm9.503-2.448c0-3.536-5.296-3.552-5.296 0 0 3.536 5.296 3.536 5.296 0zm-4.272 0c0-2.32 3.232-2.32 3.232 0s-3.232 2.32-3.232 0zm-2.672-6.288c0-3.568-5.296-3.552-5.296 0s5.296 3.552 5.296 0zm-4.256 0c0-2.32 3.232-2.32 3.232 0s-3.232 2.32-3.232 0zM7.28 119.64c-2.32 0-4.144 1.456-4.144 3.856v3.84c0 2.416 1.824 3.856 4.144 3.856 2.288 0 4.112-1.44 4.112-3.856v-3.84c0-2.4-1.824-3.856-4.112-3.856zm0 10.384c-1.328 0-2.368-.656-2.704-1.808a3.796 3.796 0 0 1-.176-1.2v-3.2c0-.464.064-.864.176-1.2.336-1.152 1.376-1.824 2.704-1.824 1.28 0 2.352.672 2.688 1.824.112.336.176.736.176 1.2v3.2c0 .464-.064.864-.176 1.2-.336 1.152-1.408 1.808-2.688 1.808zm7.767.496c.016-.048 0-.144-.016-.256a.778.778 0 0 0-.768-.544c-.448 0-.784.288-.784.736 0 .368.24.608.56.72l-.352 1.248h.784l.48-1.52c.048-.144.08-.272.096-.384zm5.365-9.728c2.544 0 2.464 2.48 1.104 4.144l-4.624 5.776V131h7.056v-1.184h-4.88l3.648-4.496c.816-1.024 1.072-2.144.96-3.104-.128-1.424-1.248-2.576-3.232-2.576-2.16 0-3.232 1.088-3.344 3.088h1.12c.112-1.344.848-1.936 2.192-1.936zm6.896.208h5.344v-1.2h-6.56v5.408c.752-.24 1.76-.352 2.784-.352 1.584 0 3.12.56 3.12 2.624 0 1.904-1.424 2.512-2.56 2.512-1.28 0-2.24-.672-2.384-1.904h-1.264c.176 2.032 1.728 3.088 3.664 3.088 2.336 0 3.856-1.472 3.856-3.728.08-2.752-2.048-3.76-4.288-3.76a6.78 6.78 0 0 0-1.712.208V121zm10.13 10.016H38.7l5.472-11.184h-1.248l-5.488 11.184zm9.503-2.448c0-3.536-5.296-3.552-5.296 0 0 3.536 5.296 3.536 5.296 0zm-4.272 0c0-2.32 3.232-2.32 3.232 0s-3.232 2.32-3.232 0zm-2.672-6.288c0-3.568-5.296-3.552-5.296 0s5.296 3.552 5.296 0zm-4.256 0c0-2.32 3.232-2.32 3.232 0s-3.232 2.32-3.232 0zM7.28 83.64c-2.32 0-4.144 1.456-4.144 3.856v3.84c0 2.416 1.824 3.856 4.144 3.856 2.288 0 4.112-1.44 4.112-3.856v-3.84c0-2.4-1.824-3.856-4.112-3.856zm0 10.384c-1.328 0-2.368-.656-2.704-1.808a3.796 3.796 0 0 1-.176-1.2v-3.2c0-.464.064-.864.176-1.2.336-1.152 1.376-1.824 2.704-1.824 1.28 0 2.352.672 2.688 1.824.112.336.176.736.176 1.2v3.2c0 .464-.064.864-.176 1.2-.336 1.152-1.408 1.808-2.688 1.808zm7.767.496c.016-.048 0-.144-.016-.256a.778.778 0 0 0-.768-.544c-.448 0-.784.288-.784.736 0 .368.24.608.56.72l-.352 1.248h.784l.48-1.52c.048-.144.08-.272.096-.384zm1.877-2.528c.176 2.016 1.696 3.2 3.68 3.2 2.4 0 3.872-1.552 3.872-3.696 0-1.808-1.392-3.344-3.248-3.296l3.232-4.192V83.8h-7.04v1.136h4.976l-3.072 3.968v.304c1.888-.496 3.888.304 3.888 2.288-.016 1.6-1.072 2.528-2.624 2.528-1.344 0-2.32-.672-2.496-2.032h-1.168zm13.731-8.352c-2.32 0-4.144 1.456-4.144 3.856v3.84c0 2.416 1.824 3.856 4.144 3.856 2.288 0 4.112-1.44 4.112-3.856v-3.84c0-2.4-1.824-3.856-4.112-3.856zm0 10.384c-1.328 0-2.368-.656-2.704-1.808a3.796 3.796 0 0 1-.176-1.2v-3.2c0-.464.064-.864.176-1.2.336-1.152 1.376-1.824 2.704-1.824 1.28 0 2.352.672 2.688 1.824.112.336.176.736.176 1.2v3.2c0 .464-.064.864-.176 1.2-.336 1.152-1.408 1.808-2.688 1.808zm8.58.992h1.263l5.472-11.184h-1.248l-5.488 11.184zm9.503-2.448c0-3.536-5.296-3.552-5.296 0 0 3.536 5.296 3.536 5.296 0zm-4.272 0c0-2.32 3.232-2.32 3.232 0s-3.232 2.32-3.232 0zm-2.672-6.288c0-3.568-5.296-3.552-5.296 0s5.296 3.552 5.296 0zm-4.256 0c0-2.32 3.232-2.32 3.232 0s-3.232 2.32-3.232 0zM8.28 41.64c-2.32 0-4.144 1.456-4.144 3.856v3.84c0 2.416 1.824 3.856 4.144 3.856 2.288 0 4.112-1.44 4.112-3.856v-3.84c0-2.4-1.824-3.856-4.112-3.856zm0 10.384c-1.328 0-2.368-.656-2.704-1.808a3.796 3.796 0 0 1-.176-1.2v-3.2c0-.464.064-.864.176-1.2.336-1.152 1.376-1.824 2.704-1.824 1.28 0 2.352.672 2.688 1.824.112.336.176.736.176 1.2v3.2c0 .464-.064.864-.176 1.2-.336 1.152-1.408 1.808-2.688 1.808zm7.767.496c.016-.048 0-.144-.016-.256a.778.778 0 0 0-.768-.544c-.448 0-.784.288-.784.736 0 .368.24.608.56.72l-.352 1.248h.784l.48-1.52c.048-.144.08-.272.096-.384zm1.877-2.528c.176 2.016 1.696 3.2 3.68 3.2 2.4 0 3.872-1.552 3.872-3.696 0-1.808-1.392-3.344-3.248-3.296l3.232-4.192V41.8h-7.04v1.136h4.976l-3.072 3.968v.304c1.888-.496 3.888.304 3.888 2.288-.016 1.6-1.072 2.528-2.624 2.528-1.344 0-2.32-.672-2.496-2.032h-1.168zM28.855 43h5.344v-1.2h-6.56v5.408c.752-.24 1.76-.352 2.784-.352 1.584 0 3.12.56 3.12 2.624 0 1.904-1.424 2.512-2.56 2.512-1.28 0-2.24-.672-2.384-1.904h-1.264c.176 2.032 1.728 3.088 3.664 3.088 2.336 0 3.856-1.472 3.856-3.728.08-2.752-2.048-3.76-4.288-3.76a6.78 6.78 0 0 0-1.712.208V43zm10.13 10.016h1.263l5.472-11.184h-1.248l-5.488 11.184zm9.503-2.448c0-3.536-5.296-3.552-5.296 0 0 3.536 5.296 3.536 5.296 0zm-4.272 0c0-2.32 3.232-2.32 3.232 0s-3.232 2.32-3.232 0zm-2.672-6.288c0-3.568-5.296-3.552-5.296 0s5.296 3.552 5.296 0zm-4.256 0c0-2.32 3.232-2.32 3.232 0s-3.232 2.32-3.232 0zM8.28 3.64c-2.32 0-4.144 1.456-4.144 3.856v3.84c0 2.416 1.824 3.856 4.144 3.856 2.288 0 4.112-1.44 4.112-3.856v-3.84c0-2.4-1.824-3.856-4.112-3.856zm0 10.384c-1.328 0-2.368-.656-2.704-1.808a3.796 3.796 0 0 1-.176-1.2v-3.2c0-.464.064-.864.176-1.2.336-1.152 1.376-1.824 2.704-1.824 1.28 0 2.352.672 2.688 1.824.112.336.176.736.176 1.2v3.2c0 .464-.064.864-.176 1.2-.336 1.152-1.408 1.808-2.688 1.808zm7.767.496c.016-.048 0-.144-.016-.256a.778.778 0 0 0-.768-.544c-.448 0-.784.288-.784.736 0 .368.24.608.56.72l-.352 1.248h.784l.48-1.52c.048-.144.08-.272.096-.384zm8.581-1.872h1.152V11.56h-1.152v-7.6h-1.312l-5.68 8.112v.576h5.776v2.512h1.216v-2.512zM23.54 5.464l-.048 3.328v2.816h-4.256l4.288-6.144h.016zm8.303-1.824c-2.32 0-4.145 1.456-4.145 3.856v3.84c0 2.416 1.825 3.856 4.145 3.856 2.287 0 4.112-1.44 4.112-3.856v-3.84c0-2.4-1.825-3.856-4.112-3.856zm0 10.384c-1.328 0-2.369-.656-2.704-1.808a3.796 3.796 0 0 1-.177-1.2v-3.2c0-.464.064-.864.177-1.2.335-1.152 1.376-1.824 2.704-1.824 1.28 0 2.351.672 2.688 1.824.111.336.175.736.175 1.2v3.2c0 .464-.064.864-.175 1.2-.337 1.152-1.408 1.808-2.688 1.808zm8.579.992h1.264l5.472-11.184H45.91l-5.488 11.184zm9.504-2.448c0-3.536-5.296-3.552-5.296 0 0 3.536 5.296 3.536 5.296 0zm-4.272 0c0-2.32 3.232-2.32 3.232 0s-3.232 2.32-3.232 0zM42.982 6.28c0-3.568-5.296-3.552-5.296 0s5.296 3.552 5.296 0zm-4.256 0c0-2.32 3.232-2.32 3.232 0s-3.232 2.32-3.232 0zM83.6 366.384c0 2.208-1.776 2.8-3.584 2.848v-5.696c1.824.048 3.584.64 3.584 2.848zm-8.848 0c0-2.208 1.76-2.8 3.568-2.848v5.696c-1.76-.048-3.568-.64-3.568-2.848zm3.552 5.632h1.728v-1.184c2.88-.08 5.44-1.232 5.44-4.448S82.96 362 80.048 361.92v-1.152h-1.744v1.152c-2.864.08-5.424 1.344-5.424 4.464s2.56 4.368 5.424 4.448v1.184zm12.602-7.904c-2.096 0-3.952 1.296-4 3.872-.08 2.608 1.792 4.24 4.336 4.192.976 0 2.016-.256 2.912-.656l-.224-1.296c-.912.4-1.84.528-2.8.48-1.408 0-2.512-.832-2.512-2.24h5.696c.512-2.56-.704-4.352-3.408-4.352zm-.016 1.344c1.104 0 2.064.608 2.016 1.776H88.65c.24-1.216 1.088-1.776 2.24-1.776zm11.613.848c0-1.936-1.92-2.032-3.344-2.032h-2.96v7.744h3.392c1.52 0 3.328-.208 3.328-2.208 0-.928-.528-1.696-1.472-1.952.768-.272 1.056-.864 1.056-1.552zm-4.609 4.368v-2.096h1.44c.801 0 1.889.064 1.889 1.056 0 1.04-1.056 1.04-1.808 1.04h-1.52zm0-3.28v-1.84h1.36c.688 0 1.537.08 1.537.928 0 .832-.864.912-1.537.912h-1.36zm8.564-1.856c0-1.36-.976-1.568-2.256-1.312l.016 1.2c.896 0 .816.432.816 1.328v9.216h1.744v-4.496c.64.384 1.312.576 1.952.608 2.064.096 3.856-1.504 3.856-3.984 0-2.112-1.216-4.016-3.488-4.016-1.104 0-2.192.384-2.64 1.456zm.288 2.24c0-1.152.8-2.144 2-2.144 1.392 0 2.08 1.184 2.08 2.464 0 1.568-.944 2.416-2.112 2.464-.624.032-1.328-.176-1.968-.624v-2.16zm12.632 2.928c.048 1.52.992 1.52 2.208 1.312l-.032-.992c-.832.08-.8-.384-.8-1.104v-3.04c0-2.128-1.664-2.784-3.536-2.784-1.024 0-2.064.208-2.848.608l.256 1.248c.96-.48 4.432-1.152 4.432.88v.768c-.688-.384-1.536-.576-2.288-.576-1.696 0-3.04.88-2.992 2.72 0 1.504 1.36 2.4 2.768 2.4 1.088 0 2.32-.416 2.832-1.44zm-.32-1.344c-.176.976-1.248 1.408-2.16 1.408-.704 0-1.408-.352-1.408-1.12 0-.944.72-1.44 1.568-1.456a3.935 3.935 0 0 1 2 .528v.64zm9.646-3.536V372h1.712v-7.712h-5.872l-.576 4.912c-.128 1.136-.256 1.712-1.6 1.52l-.032 1.28c2.464.352 3.12-.336 3.344-2.736l.368-3.44h2.656zm7.195 6.176c1.744 0 3.408-.72 3.408-2.656 0-1.968-1.632-2.656-3.392-2.656h-1.552v-2.4h-1.68V372h3.216zm-.016-3.984c.944 0 1.728.416 1.728 1.328 0 .912-.784 1.328-1.728 1.328h-1.52v-2.656h1.52zm94.757-1.456l-4.56-5.792h-.688V372h1.872v-7.008l3.248 4.144h.256l3.232-4.144V372h1.872v-11.232h-.688l-4.544 5.792zm12.66 4.144c.048 1.52.992 1.52 2.208 1.312l-.032-.992c-.832.08-.8-.384-.8-1.104v-3.04c0-2.128-1.664-2.784-3.536-2.784-1.024 0-2.064.208-2.848.608l.256 1.248c.96-.48 4.432-1.152 4.432.88v.768c-.688-.384-1.536-.576-2.288-.576-1.696 0-3.04.88-2.992 2.72 0 1.504 1.36 2.4 2.768 2.4 1.088 0 2.32-.416 2.832-1.44zm-.32-1.344c-.176.976-1.248 1.408-2.16 1.408-.704 0-1.408-.352-1.408-1.12 0-.944.72-1.44 1.568-1.456a3.935 3.935 0 0 1 2 .528v.64zm5.838-3.824c0-1.36-.976-1.568-2.256-1.312l.016 1.2c.896 0 .816.432.816 1.328v9.216h1.744v-4.496c.64.384 1.312.576 1.952.608 2.064.096 3.856-1.504 3.856-3.984 0-2.112-1.216-4.016-3.488-4.016-1.104 0-2.192.384-2.64 1.456zm.288 2.24c0-1.152.8-2.144 2-2.144 1.392 0 2.08 1.184 2.08 2.464 0 1.568-.944 2.416-2.112 2.464-.624.032-1.328-.176-1.968-.624v-2.16zm10.922 4.208v-6.176h2.496v-1.52h-6.672v1.52h2.48v6.176h1.696zm131.148-2.304l1.104 2.32h1.936v-.24l-5.152-11.04h-.864l-5.184 11.04v.24h1.952l1.088-2.32h5.12zm-2.544-6.048l1.952 4.48h-3.92l1.968-4.48zm6.754.656V372h1.76v-6.176h3.584V372h1.728v-7.712h-7.072zm11.088 1.248c0-1.36-.976-1.568-2.256-1.312l.016 1.2c.896 0 .816.432.816 1.328v9.216h1.744v-4.496c.64.384 1.312.576 1.952.608 2.064.096 3.856-1.504 3.856-3.984 0-2.112-1.216-4.016-3.488-4.016-1.104 0-2.192.384-2.64 1.456zm.288 2.24c0-1.152.8-2.144 2-2.144 1.392 0 2.08 1.184 2.08 2.464 0 1.568-.944 2.416-2.112 2.464-.624.032-1.328-.176-1.968-.624v-2.16zm11.144-3.664c-2.096 0-3.952 1.296-4 3.872-.08 2.608 1.792 4.24 4.336 4.192.976 0 2.016-.256 2.912-.656l-.224-1.296c-.912.4-1.84.528-2.8.48-1.408 0-2.512-.832-2.512-2.24h5.696c.512-2.56-.704-4.352-3.408-4.352zm-.016 1.344c1.104 0 2.064.608 2.016 1.776h-4.256c.24-1.216 1.088-1.776 2.24-1.776zm10.798.368V372h1.712v-7.712h-5.872l-.576 4.912c-.128 1.136-.256 1.712-1.6 1.52l-.032 1.28c2.464.352 3.12-.336 3.344-2.736l.368-3.44h2.656zm7.195 6.176c1.744 0 3.408-.72 3.408-2.656 0-1.968-1.632-2.656-3.392-2.656h-1.552v-2.4h-1.68V372h3.216zm-.016-3.984c.944 0 1.728.416 1.728 1.328 0 .912-.784 1.328-1.728 1.328h-1.52v-2.656h1.52zm128.773-1.456l-4.56-5.792h-.688V372h1.872v-7.008l3.248 4.144h.256l3.232-4.144V372h1.872v-11.232h-.688l-4.544 5.792zm12.66 4.144c.048 1.52.992 1.52 2.208 1.312l-.032-.992c-.832.08-.8-.384-.8-1.104v-3.04c0-2.128-1.664-2.784-3.536-2.784-1.024 0-2.064.208-2.848.608l.256 1.248c.96-.48 4.432-1.152 4.432.88v.768c-.688-.384-1.536-.576-2.288-.576-1.696 0-3.04.88-2.992 2.72 0 1.504 1.36 2.4 2.768 2.4 1.088 0 2.32-.416 2.832-1.44zm-.32-1.344c-.176.976-1.248 1.408-2.16 1.408-.704 0-1.408-.352-1.408-1.12 0-.944.72-1.44 1.568-1.456a3.935 3.935 0 0 1 2 .528v.64zm5.454-8.256c.112 1.408 1.12 2.256 2.448 2.256 1.408 0 2.4-.88 2.512-2.256a23.915 23.915 0 0 0-1.12-.128c-.128.736-.688 1.008-1.408 1.008-.736-.016-1.248-.336-1.344-1.008l-1.088.128zm-.88 10.912h-.48v-7.728h1.696v4.64l4.832-4.656h.544V372h-1.68v-4.656l-4.912 4.672z" fill="#21293E"/><path d="M72 0v337h503" stroke="#9A9A9A"/><path stroke="#000" stroke-opacity=".08" d="M69 126.5h506m-506 43h506M72 45.5h506M72 7.5h506m-506 81h506m-509 123h506m-506 41h506m-506 42h506"/><circle cx="72" cy="127" r="2" fill="#9A9A9A"/><circle cx="72" cy="88" r="2" fill="#9A9A9A"/><circle cx="72" cy="45" r="2" fill="#9A9A9A"/><circle cx="72" cy="7" r="2" fill="#9A9A9A"/><circle cx="245" cy="337" r="4" fill="#9A9A9A"/><circle cx="413" cy="337" r="4" fill="#9A9A9A"/><circle cx="572" cy="337" r="4" fill="#9A9A9A"/><circle cx="72" cy="170" r="2" fill="#9A9A9A"/><circle cx="72" cy="212" r="2" fill="#9A9A9A"/><circle cx="72" cy="253" r="2" fill="#9A9A9A"/><circle cx="72" cy="295" r="2" fill="#9A9A9A"/><path d="M117.5 271.5h128l161-65.5L568 48.5" stroke="#4263A8" stroke-width="4"/><circle cx="119" cy="272" r="4.5" fill="#fff" stroke="#4263A8" stroke-width="3"/><circle cx="245" cy="270" r="4.5" fill="#fff" stroke="#4263A8" stroke-width="3"/><circle cx="566" cy="49" r="4.5" fill="#fff" stroke="#4263A8" stroke-width="3"/><circle cx="407" cy="206" r="4.5" fill="#fff" stroke="#4263A8" stroke-width="3"/></svg>