<svg width="416" height="159" fill="none" xmlns="http://www.w3.org/2000/svg"><path fill="#19B4EE" d="M0 0h416v34H0z"/><path d="M273.576 50.744c.132 1.512 1.272 2.4 2.76 2.4 1.8 0 2.904-1.164 2.904-2.772 0-1.356-1.044-2.508-2.436-2.472l2.424-3.144V44.6h-5.28v.852h3.732l-2.304 2.976v.228c1.416-.372 2.916.228 2.916 1.716-.012 1.2-.804 1.896-1.968 1.896-1.008 0-1.74-.504-1.872-1.524h-.876zm11.942.492h.864v-.816h-.864v-5.7h-.984l-4.26 6.084v.432h4.332v1.884h.912v-1.884zm-.816-5.388l-.036 2.496v2.112h-3.192l3.216-4.608h.012zm-8.042 22.716l-2.676 4.092a2.995 2.995 0 0 0-.516 1.704c0 1.8 1.368 2.748 3.048 2.748s3.072-.948 3.072-2.748c0-1.728-1.296-2.724-2.928-2.688-.372 0-.744.084-1.068.276l2.172-3.384h-1.104zm-.144 7.68c-1.152 0-2.064-.684-2.064-1.884 0-1.212.9-1.896 2.052-1.896 1.176 0 2.088.684 2.088 1.896 0 1.2-.912 1.884-2.076 1.884zm5.747-6.852v6.816h-1.656V77h4.272v-.792h-1.668V68.6h-2.412v.792h1.464zm-7.043 24v6.816h-1.656V101h4.272v-.792h-1.668V92.6h-2.412v.792h1.464zm6.152-.048c1.908 0 1.848 1.86.828 3.108l-3.468 4.332V101h5.292v-.888h-3.66l2.736-3.372c.612-.768.804-1.608.72-2.328-.096-1.068-.936-1.932-2.424-1.932-1.62 0-2.424.816-2.508 2.316h.84c.084-1.008.636-1.452 1.644-1.452zm5.532.048v6.816h-1.656V101h4.272v-.792h-1.668V92.6h-2.412v.792h1.464zm6.151-.048c1.908 0 1.848 1.86.828 3.108l-3.468 4.332V101h5.292v-.888h-3.66l2.736-3.372c.612-.768.804-1.608.72-2.328-.096-1.068-.936-1.932-2.424-1.932-1.62 0-2.424.816-2.508 2.316h.84c.084-1.008.636-1.452 1.644-1.452zm-15.395 23.22l-2.676 4.092a2.995 2.995 0 0 0-.516 1.704c0 1.8 1.368 2.748 3.048 2.748s3.072-.948 3.072-2.748c0-1.728-1.296-2.724-2.928-2.688-.372 0-.744.084-1.068.276l2.172-3.384h-1.104zm-.144 7.68c-1.152 0-2.064-.684-2.064-1.884 0-1.212.9-1.896 2.052-1.896 1.176 0 2.088.684 2.088 1.896 0 1.2-.912 1.884-2.076 1.884zm5.747-6.852v6.816h-1.656V125h4.272v-.792h-1.668V116.6h-2.412v.792h1.464zm6.152-.048c1.908 0 1.848 1.86.828 3.108l-3.468 4.332V125h5.292v-.888h-3.66l2.736-3.372c.612-.768.804-1.608.72-2.328-.096-1.068-.936-1.932-2.424-1.932-1.62 0-2.424.816-2.508 2.316h.84c.084-1.008.636-1.452 1.644-1.452zm-13.195 24.048v6.816h-1.656V149h4.272v-.792h-1.668V140.6h-2.412v.792h1.464zm3.536 5.352c.132 1.512 1.272 2.4 2.76 2.4 1.8 0 2.904-1.164 2.904-2.772 0-1.356-1.044-2.508-2.436-2.472l2.424-3.144v-.156h-5.28v.852h3.732l-2.304 2.976v.228c1.416-.372 2.916.228 2.916 1.716-.012 1.2-.804 1.896-1.968 1.896-1.008 0-1.74-.504-1.872-1.524h-.876zm12.386-6.144h-5.604v.888h4.248L287.258 149h1.02l3.864-8.256v-.144zM26.032 46.844c0-1.596-1.128-2.28-2.64-2.28h-3.276v8.4h3.636c1.572 0 2.664-.84 2.664-2.364 0-.996-.552-1.728-1.512-2.004.756-.3 1.128-.972 1.128-1.752zm-2.7-1.392c.984 0 1.716.42 1.704 1.428 0 1.008-.78 1.368-1.848 1.368h-2.064v-2.796h2.208zm2.076 5.148c-.012 1.02-.792 1.476-1.86 1.476h-2.424v-2.964h2.064c1.128 0 2.268.3 2.22 1.488zm6.745-1.728l-.096 2.196V53h.912v-5.796h-.312l-3.936 4.068.072-2.004v-2.052h-.912V53h.276l3.996-4.128zm2.438-.564c.48-.276 1.284-.432 1.836-.432.672 0 1.404.144 1.404.888 0 .792-.78.84-1.452.852-.252 0-.492-.012-.72-.012v.744h.768c.792 0 1.764.096 1.764.96 0 .756-.792 1.008-1.596 1.02-.78 0-1.764-.288-2.208-.672l-.048.828c.564.384 1.488.648 2.388.648 1.212 0 2.436-.504 2.436-1.776 0-.78-.504-1.284-1.272-1.452.564-.12.924-.672.924-1.248 0-1.188-1.152-1.548-2.232-1.548-.72-.012-1.524.168-2.04.456l.048.744zm10.288.564l-.096 2.196V53h.912v-5.796h-.312l-3.936 4.068.072-2.004v-2.052h-.912V53h.276l3.996-4.128zm4.946 4.116v-4.944h2.04v-.828h-4.992v.828h2.04v4.944h.912zm4.164-3.324v-2.46h-.948V53h.948v-2.568h.756c.24 0 .492-.012.708-.06L57.205 53h1.008v-.108l-1.932-2.808c1.26-.48 1.668-1.584 1.644-2.88h-.888c0 1.572-.72 2.46-2.28 2.46h-.768zm9.35 2.292c0 1.056.456 1.236 1.416 1.08l-.012-.612c-.708.096-.672-.276-.672-.912V49.1c.036-1.512-1.224-2.016-2.532-2.016-.768 0-1.536.168-2.1.456l.156.72c.492-.288 1.14-.42 1.8-.42.792 0 1.824.264 1.824 1.236v.708c-.576-.324-1.332-.48-1.992-.48-1.2 0-2.28.684-2.244 2.004.036 1.164 1.008 1.788 2.076 1.788.876 0 1.86-.336 2.28-1.14zm-.132-.912c-.192.864-1.224 1.248-1.98 1.248-.648 0-1.284-.288-1.32-1.02-.036-.828.708-1.248 1.476-1.248.588 0 1.296.168 1.824.468v.552zm10.149-2.172l-.096 2.196V53h.912v-5.796h-.312l-3.936 4.068.072-2.004v-2.052h-.912V53h.276l3.996-4.128zm2.438-.564c.48-.276 1.284-.432 1.836-.432.672 0 1.404.144 1.404.888 0 .792-.78.84-1.452.852-.252 0-.492-.012-.72-.012v.744h.768c.792 0 1.764.096 1.764.96 0 .756-.792 1.008-1.596 1.02-.78 0-1.764-.288-2.208-.672l-.048.828c.564.384 1.488.648 2.388.648 1.212 0 2.436-.504 2.436-1.776 0-.78-.504-1.284-1.272-1.452.564-.12.924-.672.924-1.248 0-1.188-1.152-1.548-2.232-1.548-.72-.012-1.524.168-2.04.456l.048.744zM82.746 53v-4.92h3v-.864H81.81V53h.936zm9.769-2.904c0-4.02-6.096-4.02-6.096 0s6.096 3.996 6.096 0zm-5.148 0c0-2.94 4.212-2.94 4.212 0 0 2.952-4.212 2.952-4.212 0zm8.76 2.892v-4.944h2.04v-.828h-4.993v.828h2.04v4.944h.912zm8.798-2.892c0-4.02-6.096-4.02-6.096 0s6.096 3.996 6.096 0zm-5.148 0c0-2.94 4.212-2.94 4.212 0 0 2.952-4.212 2.952-4.212 0zm11.144-1.38c0-1.392-1.392-1.512-2.436-1.512h-2.112v5.808h2.376c1.14 0 2.508-.156 2.508-1.62 0-.732-.456-1.296-1.2-1.476.6-.168.864-.684.864-1.2zm-3.636 3.516v-1.896h1.284c.732 0 1.764.072 1.764.984 0 .936-.96.912-1.668.912h-1.38zm0-2.616v-1.68h1.248c.636 0 1.464.06 1.464.852s-.828.828-1.464.828h-1.248zm9.605-1.56V53h.924v-5.784h-4.116l-.444 3.828c-.108.912-.228 1.416-1.296 1.248l-.024.708c1.668.24 2.076-.312 2.232-1.908l.336-3.036h2.388zm5.341-.972c-1.584 0-2.904 1.044-2.964 2.868-.06 1.968 1.296 3.18 3.216 3.18.708 0 1.44-.168 2.124-.492l-.144-.708c-.672.276-1.296.42-1.956.42-1.308 0-2.364-.816-2.304-2.148h4.596c.324-1.908-.6-3.108-2.568-3.12zm0 .744c1.032 0 1.836.564 1.776 1.656h-3.768c.156-1.044.936-1.656 1.992-1.656zm8.252-.612v2.388h-3.276v-2.388h-.924V53h.924v-2.58h3.276V53h.912v-5.784h-.912zm7.01 1.656l-.096 2.196V53h.912v-5.796h-.312l-3.936 4.068.072-2.004v-2.052h-.912V53h.276l3.996-4.128zm5.234-1.788c-1.584 0-2.904 1.044-2.964 2.868-.06 1.968 1.296 3.18 3.216 3.18.708 0 1.44-.168 2.124-.492l-.144-.708c-.672.276-1.296.42-1.956.42-1.308 0-2.364-.816-2.304-2.148h4.596c.324-1.908-.6-3.108-2.568-3.12zm0 .744c1.032 0 1.836.564 1.776 1.656h-3.768c.156-1.044.936-1.656 1.992-1.656zM26.032 70.844c0-1.596-1.128-2.28-2.64-2.28h-3.276v8.4h3.636c1.572 0 2.664-.84 2.664-2.364 0-.996-.552-1.728-1.512-2.004.756-.3 1.128-.972 1.128-1.752zm-2.7-1.392c.984 0 1.716.42 1.704 1.428 0 1.008-.78 1.368-1.848 1.368h-2.064v-2.796h2.208zm2.076 5.148c-.012 1.02-.792 1.476-1.86 1.476h-2.424v-2.964h2.064c1.128 0 2.268.3 2.22 1.488zm6.745-1.728l-.096 2.196V77h.912v-5.796h-.312l-3.936 4.068.072-2.004v-2.052h-.912V77h.276l3.996-4.128zm2.438-.564c.48-.276 1.284-.432 1.836-.432.672 0 1.404.144 1.404.888 0 .792-.78.84-1.452.852-.252 0-.492-.012-.72-.012v.744h.768c.792 0 1.764.096 1.764.96 0 .756-.792 1.008-1.596 1.02-.78 0-1.764-.288-2.208-.672l-.048.828c.564.384 1.488.648 2.388.648 1.212 0 2.436-.504 2.436-1.776 0-.78-.504-1.284-1.272-1.452.564-.12.924-.672.924-1.248 0-1.188-1.152-1.548-2.232-1.548-.72-.012-1.524.168-2.04.456l.048.744zm10.288.564l-.096 2.196V77h.912v-5.796h-.312l-3.936 4.068.072-2.004v-2.052h-.912V77h.276l3.996-4.128zm4.946 4.116v-4.944h2.04v-.828h-4.992v.828h2.04v4.944h.912zm4.164-3.324v-2.46h-.948V77h.948v-2.568h.756c.24 0 .492-.012.708-.06L57.205 77h1.008v-.108l-1.932-2.808c1.26-.48 1.668-1.584 1.644-2.88h-.888c0 1.572-.72 2.46-2.28 2.46h-.768zm9.35 2.292c0 1.056.456 1.236 1.416 1.08l-.012-.612c-.708.096-.672-.276-.672-.912V73.1c.036-1.512-1.224-2.016-2.532-2.016-.768 0-1.536.168-2.1.456l.156.72c.492-.288 1.14-.42 1.8-.42.792 0 1.824.264 1.824 1.236v.708c-.576-.324-1.332-.48-1.992-.48-1.2 0-2.28.684-2.244 2.004.036 1.164 1.008 1.788 2.076 1.788.876 0 1.86-.336 2.28-1.14zm-.132-.912c-.192.864-1.224 1.248-1.98 1.248-.648 0-1.284-.288-1.32-1.02-.036-.828.708-1.248 1.476-1.248.588 0 1.296.168 1.824.468v.552zm5.877-3.828V77h.948v-4.944h3.216V77h.936v-5.784h-5.1zm9.518-.132c-1.584 0-2.904 1.044-2.964 2.868-.06 1.968 1.296 3.18 3.216 3.18.708 0 1.44-.168 2.124-.492l-.144-.708c-.672.276-1.296.42-1.956.42-1.308 0-2.364-.816-2.304-2.148h4.596c.324-1.908-.6-3.108-2.568-3.12zm0 .744c1.032 0 1.836.564 1.776 1.656H76.61c.156-1.044.936-1.656 1.992-1.656zm4.58.864v-1.476h-.936v1.476c0 2.424 2.244 3.156 4.056 2.148V77h.948v-5.784h-.924v2.676c-1.452 1.056-3.144.54-3.144-1.2zm9.782 3.264c0 1.056.456 1.236 1.416 1.08l-.012-.612c-.708.096-.672-.276-.672-.912V73.1c.036-1.512-1.224-2.016-2.532-2.016-.768 0-1.536.168-2.1.456l.156.72c.492-.288 1.14-.42 1.8-.42.792 0 1.824.264 1.824 1.236v.708c-.576-.324-1.332-.48-1.992-.48-1.2 0-2.28.684-2.244 2.004.036 1.164 1.008 1.788 2.076 1.788.876 0 1.86-.336 2.28-1.14zm-.132-.912c-.192.864-1.224 1.248-1.98 1.248-.648 0-1.284-.288-1.32-1.02-.036-.828.708-1.248 1.476-1.248.588 0 1.296.168 1.824.468v.552zm4.923 1.944v-4.944h2.04v-.828h-4.992v.828h2.04v4.944h.912zm5.472.012c1.26 0 2.52-.492 2.52-1.956s-1.248-1.932-2.52-1.932h-1.344v-1.896h-.912V77h2.256zm-.012-3.144c.828 0 1.62.312 1.62 1.188 0 .888-.792 1.188-1.62 1.188h-1.332v-2.376h1.332zM21.808 93.5v7.5h.972v-7.5h2.592v-.9h-6.156v.9h2.592zm7.884 3.372l-.096 2.196V101h.912v-5.796h-.312l-3.936 4.068.072-2.004v-2.052h-.912V101h.276l3.996-4.128zm2.642-1.656V101h.948v-4.944h3.216V101h.936v-5.784h-5.1zm12.65 2.88c0-4.02-6.096-4.02-6.096 0s6.096 3.996 6.096 0zm-5.148 0c0-2.94 4.212-2.94 4.212 0 0 2.952-4.212 2.952-4.212 0zM47.368 101v-4.92h3v-.864H46.43V101h.937zm5.193-4.824c.036-.912-.588-1.128-1.5-.972l.012.696c.768-.096.684.504.684 1.248v6.828h.936v-3.504c2.064 1.392 4.596.18 4.596-2.4 0-1.656-.924-3.012-2.616-3.012-.828 0-1.572.24-2.112 1.116zm.108 1.656c.036-.996.72-1.92 1.824-1.92 1.296 0 1.836 1.008 1.836 2.16 0 2.124-2.088 2.772-3.66 1.548v-1.788zm9.967 2.124c0 1.056.456 1.236 1.416 1.08l-.012-.612c-.708.096-.672-.276-.672-.912V97.1c.036-1.512-1.224-2.016-2.532-2.016-.768 0-1.536.168-2.1.456l.156.72c.492-.288 1.14-.42 1.8-.42.792 0 1.824.264 1.824 1.236v.708c-.576-.324-1.332-.48-1.992-.48-1.2 0-2.28.684-2.244 2.004.036 1.164 1.008 1.788 2.076 1.788.876 0 1.86-.336 2.28-1.14zm-.132-.912c-.192.864-1.224 1.248-1.98 1.248-.648 0-1.284-.288-1.32-1.02-.036-.828.708-1.248 1.476-1.248.588 0 1.296.168 1.824.468v.552zm7.463 4.896v-3.48c2.088 1.344 4.08.288 4.08-2.364 0-2.664-1.992-3.72-4.08-2.4v-3.432h-.924v3.432c-2.1-1.32-4.104-.264-4.104 2.4 0 2.652 2.004 3.708 4.104 2.364v3.48h.924zm3.144-5.844c0 1.992-1.62 2.7-3.156 1.5v-3.024c1.536-1.2 3.156-.564 3.156 1.524zm-7.224 0c0-2.016 1.632-2.724 3.18-1.524v3.024c-1.548 1.2-3.18.528-3.18-1.5zm13.926-1.224l-.096 2.196V101h.912v-5.796h-.312l-3.936 4.068.072-2.004v-2.052h-.912V101h.276l3.996-4.128zm2.126 4.032V101h.996l1.596-2.004h1.356V101h.948v-5.784h-2.652c-1.188 0-2.004.816-2.004 1.884 0 .864.624 1.536 1.416 1.728l-1.656 2.076zm2.484-2.688c-.732 0-1.296-.408-1.296-1.104 0-.696.552-1.128 1.296-1.128h1.464v2.232h-1.464zM21.808 117.5v7.5h.972v-7.5h2.592v-.9h-6.156v.9h2.592zm7.884 3.372l-.096 2.196V125h.912v-5.796h-.312l-3.936 4.068.072-2.004v-2.052h-.912V125h.276l3.996-4.128zm2.642-1.656V125h.948v-4.944h3.216V125h.936v-5.784h-5.1zm12.65 2.88c0-4.02-6.096-4.02-6.096 0s6.096 3.996 6.096 0zm-5.148 0c0-2.94 4.212-2.94 4.212 0 0 2.952-4.212 2.952-4.212 0zM47.368 125v-4.92h3v-.864H46.43V125h.937zm5.193-4.824c.036-.912-.588-1.128-1.5-.972l.012.696c.768-.096.684.504.684 1.248v6.828h.936v-3.504c2.064 1.392 4.596.18 4.596-2.4 0-1.656-.924-3.012-2.616-3.012-.828 0-1.572.24-2.112 1.116zm.108 1.656c.036-.996.72-1.92 1.824-1.92 1.296 0 1.836 1.008 1.836 2.16 0 2.124-2.088 2.772-3.66 1.548v-1.788zm9.967 2.124c0 1.056.456 1.236 1.416 1.08l-.012-.612c-.708.096-.672-.276-.672-.912V121.1c.036-1.512-1.224-2.016-2.532-2.016-.768 0-1.536.168-2.1.456l.156.72c.492-.288 1.14-.42 1.8-.42.792 0 1.824.264 1.824 1.236v.708c-.576-.324-1.332-.48-1.992-.48-1.2 0-2.28.684-2.244 2.004.036 1.164 1.008 1.788 2.076 1.788.876 0 1.86-.336 2.28-1.14zm-.132-.912c-.192.864-1.224 1.248-1.98 1.248-.648 0-1.284-.288-1.32-1.02-.036-.828.708-1.248 1.476-1.248.588 0 1.296.168 1.824.468v.552zm7.463 4.896v-3.48c2.088 1.344 4.08.288 4.08-2.364 0-2.664-1.992-3.72-4.08-2.4v-3.432h-.924v3.432c-2.1-1.32-4.104-.264-4.104 2.4 0 2.652 2.004 3.708 4.104 2.364v3.48h.924zm3.144-5.844c0 1.992-1.62 2.7-3.156 1.5v-3.024c1.536-1.2 3.156-.564 3.156 1.524zm-7.224 0c0-2.016 1.632-2.724 3.18-1.524v3.024c-1.548 1.2-3.18.528-3.18-1.5zm13.926-1.224l-.096 2.196V125h.912v-5.796h-.312l-3.936 4.068.072-2.004v-2.052h-.912V125h.276l3.996-4.128zm2.126 4.032V125h.996l1.596-2.004h1.356V125h.948v-5.784h-2.652c-1.188 0-2.004.816-2.004 1.884 0 .864.624 1.536 1.416 1.728l-1.656 2.076zm2.484-2.688c-.732 0-1.296-.408-1.296-1.104 0-.696.552-1.128 1.296-1.128h1.464v2.232h-1.464zm15.545-1.416c0-2.664-1.908-4.344-4.26-4.344s-4.26 1.656-4.26 4.344c0 2.676 1.884 4.332 4.248 4.332 2.532 0 4.272-1.788 4.272-4.332zm-7.512 0c0-2.064 1.428-3.432 3.252-3.432 1.86 0 3.252 1.392 3.252 3.432s-1.416 3.408-3.264 3.408c-1.836 0-3.24-1.368-3.24-3.408zm10.039-.624c.036-.912-.588-1.128-1.5-.972l.012.696c.768-.096.684.504.684 1.248v6.828h.936v-3.504c2.064 1.392 4.596.18 4.596-2.4 0-1.656-.924-3.012-2.616-3.012-.828 0-1.572.24-2.112 1.116zm.108 1.656c.036-.996.72-1.92 1.824-1.92 1.296 0 1.836 1.008 1.836 2.16 0 2.124-2.088 2.772-3.66 1.548v-1.788zm8.671-2.748c-1.584 0-2.904 1.044-2.964 2.868-.06 1.968 1.296 3.18 3.216 3.18.708 0 1.44-.168 2.124-.492l-.144-.708c-.672.276-1.296.42-1.956.42-1.308 0-2.364-.816-2.304-2.148h4.596c.324-1.908-.6-3.108-2.568-3.12zm0 .744c1.032 0 1.836.564 1.776 1.656h-3.768c.156-1.044.936-1.656 1.992-1.656zm8.3.228V125h.924v-5.784h-4.116l-.444 3.828c-.108.912-.228 1.416-1.296 1.248l-.024.708c1.668.24 2.076-.312 2.232-1.908l.336-3.036h2.388zM21.808 141.5v7.5h.972v-7.5h2.592v-.9h-6.156v.9h2.592zm7.884 3.372l-.096 2.196V149h.912v-5.796h-.312l-3.936 4.068.072-2.004v-2.052h-.912V149h.276l3.996-4.128zm2.642-1.656V149h.948v-4.944h3.216V149h.936v-5.784h-5.1zm12.65 2.88c0-4.02-6.096-4.02-6.096 0s6.096 3.996 6.096 0zm-5.148 0c0-2.94 4.212-2.94 4.212 0 0 2.952-4.212 2.952-4.212 0zM47.368 149v-4.92h3v-.864H46.43V149h.937zm5.193-4.824c.036-.912-.588-1.128-1.5-.972l.012.696c.768-.096.684.504.684 1.248v6.828h.936v-3.504c2.064 1.392 4.596.18 4.596-2.4 0-1.656-.924-3.012-2.616-3.012-.828 0-1.572.24-2.112 1.116zm.108 1.656c.036-.996.72-1.92 1.824-1.92 1.296 0 1.836 1.008 1.836 2.16 0 2.124-2.088 2.772-3.66 1.548v-1.788zm9.967 2.124c0 1.056.456 1.236 1.416 1.08l-.012-.612c-.708.096-.672-.276-.672-.912V145.1c.036-1.512-1.224-2.016-2.532-2.016-.768 0-1.536.168-2.1.456l.156.72c.492-.288 1.14-.42 1.8-.42.792 0 1.824.264 1.824 1.236v.708c-.576-.324-1.332-.48-1.992-.48-1.2 0-2.28.684-2.244 2.004.036 1.164 1.008 1.788 2.076 1.788.876 0 1.86-.336 2.28-1.14zm-.132-.912c-.192.864-1.224 1.248-1.98 1.248-.648 0-1.284-.288-1.32-1.02-.036-.828.708-1.248 1.476-1.248.588 0 1.296.168 1.824.468v.552zm7.463 4.896v-3.48c2.088 1.344 4.08.288 4.08-2.364 0-2.664-1.992-3.72-4.08-2.4v-3.432h-.924v3.432c-2.1-1.32-4.104-.264-4.104 2.4 0 2.652 2.004 3.708 4.104 2.364v3.48h.924zm3.144-5.844c0 1.992-1.62 2.7-3.156 1.5v-3.024c1.536-1.2 3.156-.564 3.156 1.524zm-7.224 0c0-2.016 1.632-2.724 3.18-1.524v3.024c-1.548 1.2-3.18.528-3.18-1.5zm13.926-1.224l-.096 2.196V149h.912v-5.796h-.312l-3.936 4.068.072-2.004v-2.052h-.912V149h.276l3.996-4.128zm2.126 4.032V149h.996l1.596-2.004h1.356V149h.948v-5.784h-2.652c-1.188 0-2.004.816-2.004 1.884 0 .864.624 1.536 1.416 1.728l-1.656 2.076zm2.484-2.688c-.732 0-1.296-.408-1.296-1.104 0-.696.552-1.128 1.296-1.128h1.464v2.232h-1.464zm13.06-.12c0-4.02-6.095-4.02-6.095 0s6.096 3.996 6.096 0zm-5.147 0c0-2.94 4.212-2.94 4.212 0 0 2.952-4.212 2.952-4.212 0zm11.288 5.844v-3.48c2.088 1.344 4.08.288 4.08-2.364 0-2.664-1.992-3.72-4.08-2.4v-3.432h-.924v3.432c-2.1-1.32-4.105-.264-4.105 2.4 0 2.652 2.005 3.708 4.105 2.364v3.48h.924zm3.144-5.844c0 1.992-1.62 2.7-3.156 1.5v-3.024c1.536-1.2 3.156-.564 3.156 1.524zm-7.225 0c0-2.016 1.633-2.724 3.181-1.524v3.024c-1.548 1.2-3.18.528-3.18-1.5zm13.926-1.224l-.096 2.196V149h.912v-5.796h-.312l-3.936 4.068.072-2.004v-2.052h-.912V149h.276l3.996-4.128zm7.286 4.128v1.404h.792l.048-2.16h-.768v-5.028h-.9v4.944h-2.904v-4.944h-.912V149h4.644zm6.449-4.128l-.096 2.196V149h.912v-5.796h-.312l-3.936 4.068.072-2.004v-2.052h-.912V149h.276l3.996-4.128zm6.53 3.084c0 1.056.456 1.236 1.416 1.08l-.012-.612c-.708.096-.672-.276-.672-.912V145.1c.036-1.512-1.224-2.016-2.532-2.016-.768 0-1.536.168-2.1.456l.156.72c.492-.288 1.14-.42 1.8-.42.792 0 1.824.264 1.824 1.236v.708c-.576-.324-1.332-.48-1.992-.48-1.2 0-2.28.684-2.244 2.004.036 1.164 1.008 1.788 2.076 1.788.876 0 1.86-.336 2.28-1.14zm-.132-.912c-.192.864-1.224 1.248-1.98 1.248-.648 0-1.284-.288-1.32-1.02-.036-.828.708-1.248 1.476-1.248.588 0 1.296.168 1.824.468v.552zm7.019-2.988V149h.924v-5.784h-4.116l-.444 3.828c-.108.912-.228 1.416-1.296 1.248l-.024.708c1.668.24 2.076-.312 2.232-1.908l.336-3.036h2.388zm5.004 4.944c1.26 0 2.52-.492 2.52-1.956s-1.248-1.932-2.52-1.932h-1.344v-1.896h-.912V149h2.256zm-.012-3.144c.828 0 1.62.312 1.62 1.188 0 .888-.792 1.188-1.62 1.188h-1.332v-2.376h1.332zm8.015-2.64v2.388h-3.276v-2.388h-.924V149h.924v-2.58h3.276V149h.912v-5.784h-.912zm4.993 5.784c1.26 0 2.52-.492 2.52-1.956s-1.248-1.932-2.52-1.932h-1.344v-1.896h-.912V149h2.256zm-.012-3.156c.804 0 1.62.324 1.62 1.2 0 .888-.792 1.224-1.62 1.224h-1.332v-2.424h1.332zm3.684 3.156h.888v-5.784h-.888V149zm3.669-8.172c.108.96.852 1.548 1.764 1.548.96 0 1.656-.612 1.764-1.548-.192-.024-.444-.06-.636-.072-.108.588-.576.888-1.14.888-.612-.012-1.02-.324-1.104-.888l-.648.072zm-.684 8.172h-.276v-5.784h.912v2.052l-.072 2.004 3.936-4.068h.312V149h-.912v-1.932l.096-2.196-3.996 4.128z" fill="#21293E"/><path d="M21.816 11.8h-1.328V23h1.328v-4.96c.624 0 1.872-.032 2.464-.208L27.832 23h1.52v-.192l-3.904-5.52c.784-.688 1.168-1.856 1.504-3.008.336-1.168.832-1.712 2.096-1.568v-.896c-2.096-.384-2.848.592-3.28 2.08-.288 1.056-.704 2.288-1.408 2.704-.496.304-1.472.32-2.544.32V11.8zm14.72 4.608V23h1.232v-7.712H32.28l-.592 5.104c-.144 1.216-.304 1.888-1.728 1.664l-.032.944c2.224.32 2.768-.416 2.976-2.544l.448-4.048h3.184zm14.576 2.736c0-2.656-1.984-4.016-4.016-4.016-1.872-.016-3.728 1.104-4.032 3.344h-1.648v-3.184H40.2V23h1.216v-3.424h1.6c.192 2.4 2.128 3.6 4.048 3.584 2.032-.016 4.048-1.344 4.048-4.016zm-6.88 0c0-1.952 1.424-2.912 2.848-2.896 1.392.016 2.768.992 2.768 2.896 0 1.92-1.376 2.896-2.768 2.896-1.424.016-2.848-.96-2.848-2.896zm9.516-1.888v-1.968H52.5v1.968c0 3.232 2.992 4.208 5.408 2.864V23h1.264v-7.712H57.94v3.568c-1.936 1.408-4.192.72-4.192-1.6zm11.315-2.144c-2.112 0-3.872 1.392-3.952 3.824-.08 2.624 1.728 4.24 4.288 4.24.944 0 1.92-.224 2.832-.656l-.192-.944c-.896.368-1.728.56-2.608.56-1.744 0-3.152-1.088-3.072-2.864h6.128c.432-2.544-.8-4.144-3.424-4.16zm0 .992c1.376 0 2.448.752 2.368 2.208h-5.024c.208-1.392 1.248-2.208 2.656-2.208zm11.467 1.184c0-1.856-1.856-2.016-3.248-2.016h-2.816v7.744h3.168c1.52 0 3.344-.208 3.344-2.16 0-.976-.608-1.728-1.6-1.968.8-.224 1.152-.912 1.152-1.6zm-4.848 4.688v-2.528h1.712c.976 0 2.352.096 2.352 1.312 0 1.248-1.28 1.216-2.224 1.216h-1.84zm0-3.488v-2.24h1.664c.848 0 1.952.08 1.952 1.136 0 1.056-1.104 1.104-1.952 1.104h-1.664zM81.912 23c1.68 0 3.36-.656 3.36-2.608s-1.665-2.576-3.36-2.576h-1.793v-2.528h-1.216V23h3.008zm-.017-4.208c1.073 0 2.16.432 2.16 1.6 0 1.184-1.056 1.632-2.16 1.632H80.12v-3.232h1.775zM86.808 23h1.183v-7.712h-1.183V23zm7.067-7.888c-2.112 0-3.872 1.392-3.952 3.824-.08 2.624 1.728 4.24 4.288 4.24.944 0 1.92-.224 2.832-.656l-.192-.944c-.896.368-1.728.56-2.608.56-1.744 0-3.152-1.088-3.072-2.864H97.3c.432-2.544-.8-4.144-3.424-4.16zm0 .992c1.376 0 2.448.752 2.368 2.208H91.22c.208-1.392 1.248-2.208 2.656-2.208zm16.696 1.536c-.48-1.68-2-2.528-3.568-2.544-2.016-.016-4.096 1.328-4.096 4.016 0 2.656 2.048 4.016 4.064 4.016 1.616 0 3.216-.896 3.68-2.72h-1.216c-.416 1.088-1.424 1.616-2.448 1.616-1.392 0-2.816-1.008-2.816-2.912 0-1.92 1.472-2.896 2.88-2.896.976 0 1.904.464 2.32 1.424h1.2zm7.434-1.232V23h1.232v-7.712h-5.488l-.592 5.104c-.144 1.216-.304 1.888-1.728 1.664l-.032.944c2.224.32 2.768-.416 2.976-2.544l.448-4.048h3.184zm11.296 2.72c0-5.36-8.128-5.36-8.128 0s8.128 5.328 8.128 0zm-6.864 0c0-3.92 5.616-3.92 5.616 0 0 3.936-5.616 3.936-5.616 0zm14.859-1.84c0-1.856-1.856-2.016-3.248-2.016h-2.816v7.744h3.168c1.52 0 3.344-.208 3.344-2.16 0-.976-.608-1.728-1.6-1.968.8-.224 1.152-.912 1.152-1.6zm-4.848 4.688v-2.528h1.712c.976 0 2.352.096 2.352 1.312 0 1.248-1.28 1.216-2.224 1.216h-1.84zm0-3.488v-2.24h1.664c.848 0 1.952.08 1.952 1.136 0 1.056-1.104 1.104-1.952 1.104h-1.664zm12.405 3.12c0 1.408.608 1.648 1.888 1.44l-.016-.816c-.944.128-.896-.368-.896-1.216V17.8c.048-2.016-1.632-2.688-3.376-2.688-1.024 0-2.048.224-2.8.608l.208.96c.656-.384 1.52-.56 2.4-.56 1.056 0 2.432.352 2.432 1.648v.944c-.768-.432-1.776-.64-2.656-.64-1.6 0-3.04.912-2.992 2.672.048 1.552 1.344 2.384 2.768 2.384 1.168 0 2.48-.448 3.04-1.52zm-.176-1.216c-.256 1.152-1.632 1.664-2.64 1.664-.864 0-1.712-.384-1.76-1.36-.048-1.104.944-1.664 1.968-1.664.784 0 1.728.224 2.432.624v.736zM281.656 22V10.816h-1.328v5.744c-3.472.528-5.296-.368-5.296-4.096v-1.648h-1.344v1.648c0 4.64 2.448 5.952 6.64 5.344V22h1.328zm7.775-1.392c0 1.408.608 1.648 1.888 1.44l-.016-.816c-.944.128-.896-.368-.896-1.216V16.8c.048-2.016-1.632-2.688-3.376-2.688-1.024 0-2.048.224-2.8.608l.208.96c.656-.384 1.52-.56 2.4-.56 1.056 0 2.432.352 2.432 1.648v.944c-.768-.432-1.776-.64-2.656-.64-1.6 0-3.04.912-2.992 2.672.048 1.552 1.344 2.384 2.768 2.384 1.168 0 2.48-.448 3.04-1.52zm-.176-1.216c-.256 1.152-1.632 1.664-2.64 1.664-.864 0-1.712-.384-1.76-1.36-.048-1.104.944-1.664 1.968-1.664.784 0 1.728.224 2.432.624v.736zm10.847-2.752c-.48-1.68-2-2.528-3.568-2.544-2.016-.016-4.096 1.328-4.096 4.016 0 2.656 2.048 4.016 4.064 4.016 1.616 0 3.216-.896 3.68-2.72h-1.216c-.416 1.088-1.424 1.616-2.448 1.616-1.392 0-2.816-1.008-2.816-2.912 0-1.92 1.472-2.896 2.88-2.896.976 0 1.904.464 2.32 1.424h1.2zm4.983 5.344v-6.592h2.72v-1.104h-6.656v1.104h2.72v6.592h1.216zm11.732-3.856c0-5.36-8.128-5.36-8.128 0s8.128 5.328 8.128 0zm-6.864 0c0-3.92 5.616-3.92 5.616 0 0 3.936-5.616 3.936-5.616 0zm11.679 3.856v-6.592h2.72v-1.104h-6.656v1.104h2.72v6.592h1.216zm9.887-7.696v3.184h-4.368v-3.184h-1.232V22h1.232v-3.44h4.368V22h1.216v-7.712h-1.216zm11.282 3.84c0-5.36-8.128-5.36-8.128 0s8.128 5.328 8.128 0zm-6.864 0c0-3.92 5.616-3.92 5.616 0 0 3.936-5.616 3.936-5.616 0zm15.947-1.488c-.48-1.68-2-2.528-3.568-2.544-2.016-.016-4.096 1.328-4.096 4.016 0 2.656 2.048 4.016 4.064 4.016 1.616 0 3.216-.896 3.68-2.72h-1.216c-.416 1.088-1.424 1.616-2.448 1.616-1.392 0-2.816-1.008-2.816-2.912 0-1.92 1.472-2.896 2.88-2.896.976 0 1.904.464 2.32 1.424h1.2zm4.982 5.344v-6.592h2.72v-1.104h-6.656v1.104h2.72v6.592h1.216zm7.295.016c1.681 0 3.361-.656 3.361-2.608s-1.664-2.576-3.361-2.576h-1.791v-2.528h-1.216V22h3.007zm-.015-4.192c1.104 0 2.16.416 2.16 1.584 0 1.184-1.056 1.584-2.16 1.584h-1.776v-3.168h1.776z" fill="#fff"/><path stroke="url(#paint0_linear)" d="M416 60.5H0"/><path stroke="url(#paint1_linear)" d="M416 85.5H0"/><path stroke="url(#paint2_linear)" d="M416 109.5H0"/><path stroke="url(#paint3_linear)" d="M416 134.5H0"/><path stroke="url(#paint4_linear)" d="M416 158.5H0"/><path stroke="url(#paint5_linear)" d="M253.5 0v134"/><defs><linearGradient id="paint0_linear" x1="416" y1="60" x2="-27.433" y2="60.002" gradientUnits="userSpaceOnUse"><stop stop-color="#9A9A9A"/><stop offset="1" stop-color="#fff" stop-opacity="0"/></linearGradient><linearGradient id="paint1_linear" x1="422.551" y1="85" x2="2.456" y2="84.331" gradientUnits="userSpaceOnUse"><stop stop-color="#9A9A9A"/><stop offset="1" stop-color="#fff" stop-opacity="0"/></linearGradient><linearGradient id="paint2_linear" x1="472.147" y1="109" x2="91.877" y2="109.002" gradientUnits="userSpaceOnUse"><stop stop-color="#9A9A9A"/><stop offset="1" stop-color="#fff" stop-opacity="0"/></linearGradient><linearGradient id="paint3_linear" x1="556.85" y1="134" x2="91.877" y2="134.002" gradientUnits="userSpaceOnUse"><stop stop-color="#9A9A9A"/><stop offset="1" stop-color="#fff" stop-opacity="0"/></linearGradient><linearGradient id="paint4_linear" x1="556.85" y1="158" x2="91.877" y2="158.002" gradientUnits="userSpaceOnUse"><stop stop-color="#9A9A9A"/><stop offset="1" stop-color="#fff" stop-opacity="0"/></linearGradient><linearGradient id="paint5_linear" x1="253" y1="-18.086" x2="264" y2="195.5" gradientUnits="userSpaceOnUse"><stop stop-color="#9A9A9A"/><stop offset="1" stop-color="#fff" stop-opacity="0"/></linearGradient></defs></svg>