<svg width="24" height="24" fill="none" xmlns="http://www.w3.org/2000/svg"><g clip-path="url(#clip0)"><path d="M12 24c6.627 0 12-5.373 12-12S18.627 0 12 0 0 5.373 0 12s5.373 12 12 12z" fill="#FFD93B"/><path d="M12 19.713a7.671 7.671 0 0 1-7.436-5.779.5.5 0 1 1 .969-.247 6.672 6.672 0 0 0 12.933 0 .5.5 0 1 1 .969.248A7.67 7.67 0 0 1 12 19.712z" fill="#3E4347"/><path d="M24 12c0 6.63-5.374 12-12 12-3.773 0-7.14-1.74-9.341-4.467a11.937 11.937 0 0 0 7.534 2.66c6.626 0 12-5.37 12-12 0-2.855-.994-5.476-2.66-7.535A11.987 11.987 0 0 1 24 12z" fill="#F4C534"/><path d="M8.125 12.512c1.015 0 1.839-.978 1.839-2.185S9.14 8.14 8.124 8.14c-1.015 0-1.838.979-1.838 2.186 0 1.207.823 2.185 1.839 2.185z" fill="#3E4347"/><path d="M8.954 9.857c-.143.112-.378.057-.53-.126-.15-.183-.157-.429-.014-.541.142-.118.379-.062.529.12.151.189.153.43.015.547z" fill="#5A5F63"/><path d="M15.877 12.512c1.016 0 1.84-.978 1.84-2.185s-.824-2.186-1.84-2.186c-1.015 0-1.838.979-1.838 2.186 0 1.207.823 2.185 1.838 2.185z" fill="#3E4347"/><path d="M16.706 9.857c-.144.112-.38.057-.53-.126-.15-.183-.158-.429-.015-.541.142-.118.378-.062.529.12.151.189.153.43.015.547z" fill="#5A5F63"/></g><defs><clipPath id="clip0"><path fill="#fff" d="M0 0h24v24H0z"/></clipPath></defs></svg>